<?xml version="1.0" encoding="UTF-8" standalone="no"?>
<svg width="182px" height="68px" viewBox="0 0 182 68" version="1.1" xmlns="http://www.w3.org/2000/svg" xmlns:xlink="http://www.w3.org/1999/xlink" xmlns:sketch="http://www.bohemiancoding.com/sketch/ns">
    <!-- Generator: Sketch 3.4.2 (15855) - http://www.bohemiancoding.com/sketch -->
    <title>appstore</title>
    <desc>Created with Sketch.</desc>
    <defs></defs>
    <g id="Page-1" stroke="none" stroke-width="1" fill="none" fill-rule="evenodd" sketch:type="MSPage">
        <g id="appstore" sketch:type="MSArtboardGroup">
            <g id="Rectangle-1-+-Google-Play-Icon-+-Imported-Layers-+-Download-on-the-+-Imported-Layers" sketch:type="MSLayerGroup" transform="translate(5.000000, 4.000000)">
                <g id="Rectangle-1-+-Google-Play-Icon-+-Imported-Layers" fill="#000000" sketch:type="MSShapeGroup">
                    <rect id="Rectangle-1" x="0" y="0" width="172" height="60" rx="10"></rect>
                </g>
                <path d="M44.05,18.972 C44.68,19.056 45.394,19.084 46.276,19.084 C48.11,19.084 49.566,18.608 50.462,17.726 C51.33,16.858 51.82,15.598 51.82,14.058 C51.82,12.532 51.33,11.44 50.476,10.67 C49.65,9.9 48.404,9.494 46.654,9.494 C45.688,9.494 44.806,9.578 44.05,9.69 L44.05,18.972 Z M45.282,10.586 C45.604,10.516 46.08,10.46 46.71,10.46 C49.286,10.46 50.546,11.874 50.532,14.1 C50.532,16.648 49.118,18.118 46.514,18.104 C46.038,18.104 45.59,18.104 45.282,18.048 L45.282,10.586 Z M56.174,19.154 C57.784,19.154 59.534,18.062 59.534,15.542 C59.534,13.484 58.218,12.07 56.272,12.07 C54.41,12.07 52.912,13.4 52.912,15.668 C52.912,17.81 54.34,19.154 56.16,19.154 L56.174,19.154 Z M56.202,18.23 C55.012,18.23 54.172,17.11 54.172,15.626 C54.172,14.338 54.802,12.994 56.244,12.994 C57.7,12.994 58.274,14.436 58.274,15.584 C58.274,17.124 57.392,18.23 56.216,18.23 L56.202,18.23 Z M60.22,12.224 L62.264,19 L63.384,19 L64.476,15.78 C64.714,15.052 64.924,14.338 65.092,13.526 L65.12,13.526 C65.288,14.324 65.484,14.996 65.722,15.766 L66.758,19 L67.878,19 L70.062,12.224 L68.844,12.224 L67.878,15.626 C67.654,16.424 67.472,17.138 67.36,17.824 L67.318,17.824 C67.164,17.138 66.968,16.41 66.716,15.612 L65.666,12.224 L64.63,12.224 L63.524,15.668 C63.3,16.41 63.076,17.138 62.922,17.824 L62.88,17.824 C62.754,17.124 62.572,16.41 62.39,15.654 L61.48,12.224 L60.22,12.224 Z M71.294,19 L72.526,19 L72.526,14.912 C72.526,14.716 72.554,14.492 72.61,14.338 C72.834,13.652 73.464,13.078 74.262,13.078 C75.424,13.078 75.83,14.002 75.83,15.094 L75.83,19 L77.062,19 L77.062,14.954 C77.062,12.63 75.606,12.07 74.668,12.07 C73.548,12.07 72.764,12.7 72.428,13.33 L72.4,13.33 L72.33,12.224 L71.238,12.224 C71.28,12.784 71.294,13.344 71.294,14.058 L71.294,19 Z M79.064,19 L80.296,19 L80.296,9.06 L79.064,9.06 L79.064,19 Z M85.14,19.154 C86.75,19.154 88.5,18.062 88.5,15.542 C88.5,13.484 87.184,12.07 85.238,12.07 C83.376,12.07 81.878,13.4 81.878,15.668 C81.878,17.81 83.306,19.154 85.126,19.154 L85.14,19.154 Z M85.168,18.23 C83.978,18.23 83.138,17.11 83.138,15.626 C83.138,14.338 83.768,12.994 85.21,12.994 C86.666,12.994 87.24,14.436 87.24,15.584 C87.24,17.124 86.358,18.23 85.182,18.23 L85.168,18.23 Z M94.828,14.842 C94.828,13.484 94.324,12.07 92.238,12.07 C91.384,12.07 90.558,12.308 89.998,12.658 L90.278,13.484 C90.754,13.162 91.412,12.98 92.056,12.98 C93.442,12.966 93.596,13.988 93.596,14.548 L93.596,14.688 C90.978,14.674 89.522,15.57 89.522,17.208 C89.522,18.188 90.222,19.154 91.594,19.154 C92.56,19.154 93.302,18.678 93.666,18.146 L93.708,18.146 L93.82,19 L94.926,19 C94.856,18.538 94.828,17.964 94.828,17.376 L94.828,14.842 Z M93.624,16.718 C93.624,16.844 93.61,16.984 93.568,17.11 C93.372,17.684 92.798,18.244 91.902,18.244 C91.286,18.244 90.754,17.88 90.754,17.068 C90.754,15.752 92.28,15.514 93.624,15.542 L93.624,16.718 Z M101.422,9.06 L101.422,13.092 L101.394,13.092 C101.1,12.56 100.4,12.07 99.35,12.07 C97.712,12.07 96.298,13.442 96.312,15.71 C96.312,17.768 97.586,19.154 99.224,19.154 C100.33,19.154 101.142,18.58 101.52,17.824 L101.548,17.824 L101.604,19 L102.71,19 C102.668,18.538 102.654,17.852 102.654,17.25 L102.654,9.06 L101.422,9.06 Z M101.422,16.158 C101.422,16.354 101.408,16.522 101.366,16.676 C101.142,17.6 100.386,18.16 99.56,18.16 C98.244,18.16 97.558,17.026 97.558,15.64 C97.558,14.156 98.314,13.036 99.588,13.036 C100.512,13.036 101.184,13.68 101.366,14.45 C101.408,14.618 101.422,14.814 101.422,14.982 L101.422,16.158 Z M110.438,19.154 C112.048,19.154 113.798,18.062 113.798,15.542 C113.798,13.484 112.482,12.07 110.536,12.07 C108.674,12.07 107.176,13.4 107.176,15.668 C107.176,17.81 108.604,19.154 110.424,19.154 L110.438,19.154 Z M110.466,18.23 C109.276,18.23 108.436,17.11 108.436,15.626 C108.436,14.338 109.066,12.994 110.508,12.994 C111.964,12.994 112.538,14.436 112.538,15.584 C112.538,17.124 111.656,18.23 110.48,18.23 L110.466,18.23 Z M115.352,19 L116.584,19 L116.584,14.912 C116.584,14.716 116.612,14.492 116.668,14.338 C116.892,13.652 117.522,13.078 118.32,13.078 C119.482,13.078 119.888,14.002 119.888,15.094 L119.888,19 L121.12,19 L121.12,14.954 C121.12,12.63 119.664,12.07 118.726,12.07 C117.606,12.07 116.822,12.7 116.486,13.33 L116.458,13.33 L116.388,12.224 L115.296,12.224 C115.338,12.784 115.352,13.344 115.352,14.058 L115.352,19 Z M126.37,10.978 L126.37,12.224 L125.32,12.224 L125.32,13.162 L126.37,13.162 L126.37,16.844 C126.37,17.642 126.51,18.244 126.846,18.622 C127.14,18.944 127.602,19.14 128.176,19.14 C128.652,19.14 129.03,19.056 129.268,18.972 L129.212,18.034 C129.03,18.09 128.834,18.118 128.498,18.118 C127.812,18.118 127.574,17.642 127.574,16.802 L127.574,13.162 L129.338,13.162 L129.338,12.224 L127.574,12.224 L127.574,10.6 L126.37,10.978 Z M130.724,19 L131.956,19 L131.956,14.912 C131.956,14.674 131.97,14.492 132.04,14.324 C132.278,13.652 132.894,13.092 133.692,13.092 C134.854,13.092 135.26,14.002 135.26,15.094 L135.26,19 L136.492,19 L136.492,14.968 C136.492,12.63 135.036,12.07 134.126,12.07 C133.664,12.07 133.23,12.196 132.866,12.42 C132.488,12.616 132.18,12.938 131.984,13.288 L131.956,13.288 L131.956,9.06 L130.724,9.06 L130.724,19 Z M143.94,15.836 C143.968,15.696 143.982,15.514 143.982,15.262 C143.982,14.016 143.408,12.07 141.196,12.07 C139.222,12.07 138.004,13.68 138.004,15.724 C138.004,17.754 139.264,19.14 141.336,19.14 C142.414,19.14 143.17,18.902 143.604,18.706 L143.38,17.824 C142.932,18.02 142.386,18.174 141.504,18.174 C140.272,18.174 139.222,17.488 139.194,15.836 L143.94,15.836 Z M139.208,14.954 C139.306,14.1 139.838,12.952 141.098,12.952 C142.47,12.952 142.806,14.17 142.792,14.954 L139.208,14.954 Z M54.76,41.4520057 L56.468,46.8000057 L60.164,46.8000057 L54.032,27.9280057 L49.636,27.9280057 L43.588,46.8000057 L47.144,46.8000057 L48.768,41.4520057 L54.76,41.4520057 Z M49.328,38.8480057 L50.784,34.2000057 C51.12,33.0800057 51.4,31.7640057 51.68,30.6720057 L51.736,30.6720057 C52.016,31.7640057 52.324,33.0520057 52.688,34.2000057 L54.172,38.8480057 L49.328,38.8480057 Z M62.516,52.3440057 L65.96,52.3440057 L65.96,45.2880057 L66.016,45.2880057 C66.716,46.3800057 68.144,47.1080057 69.852,47.1080057 C72.96,47.1080057 76.068,44.7280057 76.068,39.8000057 C76.068,35.5440057 73.464,32.8560057 70.328,32.8560057 C68.256,32.8560057 66.66,33.7240057 65.652,35.2640057 L65.596,35.2640057 L65.428,33.1640057 L62.404,33.1640057 C62.46,34.4520057 62.516,35.9080057 62.516,37.7000057 L62.516,52.3440057 Z M65.96,38.9880057 C65.96,38.7080057 66.016,38.4000057 66.1,38.1200057 C66.436,36.6080057 67.752,35.5720057 69.18,35.5720057 C71.392,35.5720057 72.568,37.5320057 72.568,39.9400057 C72.568,42.6280057 71.28,44.4480057 69.096,44.4480057 C67.64,44.4480057 66.408,43.4400057 66.072,42.0400057 C65.988,41.7320057 65.96,41.4240057 65.96,41.0880057 L65.96,38.9880057 Z M78.896,52.3440057 L82.34,52.3440057 L82.34,45.2880057 L82.396,45.2880057 C83.096,46.3800057 84.524,47.1080057 86.232,47.1080057 C89.34,47.1080057 92.448,44.7280057 92.448,39.8000057 C92.448,35.5440057 89.844,32.8560057 86.708,32.8560057 C84.636,32.8560057 83.04,33.7240057 82.032,35.2640057 L81.976,35.2640057 L81.808,33.1640057 L78.784,33.1640057 C78.84,34.4520057 78.896,35.9080057 78.896,37.7000057 L78.896,52.3440057 Z M82.34,38.9880057 C82.34,38.7080057 82.396,38.4000057 82.48,38.1200057 C82.816,36.6080057 84.132,35.5720057 85.56,35.5720057 C87.772,35.5720057 88.948,37.5320057 88.948,39.9400057 C88.948,42.6280057 87.66,44.4480057 85.476,44.4480057 C84.02,44.4480057 82.788,43.4400057 82.452,42.0400057 C82.368,41.7320057 82.34,41.4240057 82.34,41.0880057 L82.34,38.9880057 Z M100.372,45.9040057 C101.408,46.5200057 103.48,47.0800057 105.468,47.0800057 C110.34,47.0800057 112.636,44.4480057 112.636,41.4240057 C112.636,38.7080057 111.04,37.0560057 107.764,35.8240057 C105.244,34.8440057 104.152,34.1720057 104.152,32.7160057 C104.152,31.6240057 105.104,30.4480057 107.288,30.4480057 C109.052,30.4480057 110.368,30.9800057 111.04,31.3440057 L111.88,28.5720057 C110.9,28.0680057 109.388,27.6200057 107.344,27.6200057 C103.256,27.6200057 100.68,29.9720057 100.68,33.0520057 C100.68,35.7680057 102.668,37.4200057 105.776,38.5400057 C108.184,39.4080057 109.136,40.2480057 109.136,41.6760057 C109.136,43.2160057 107.904,44.2520057 105.692,44.2520057 C103.928,44.2520057 102.248,43.6920057 101.128,43.0480057 L100.372,45.9040057 Z M116.08,30.0840057 L116.08,33.1640057 L114.12,33.1640057 L114.12,35.7400057 L116.08,35.7400057 L116.08,42.1520057 C116.08,43.9440057 116.416,45.1760057 117.144,45.9600057 C117.788,46.6600057 118.852,47.0800057 120.112,47.0800057 C121.204,47.0800057 122.1,46.9400057 122.604,46.7440057 L122.548,44.1120057 C122.24,44.1960057 121.792,44.2800057 121.204,44.2800057 C119.888,44.2800057 119.44,43.4120057 119.44,41.7600057 L119.44,35.7400057 L122.716,35.7400057 L122.716,33.1640057 L119.44,33.1640057 L119.44,29.2720057 L116.08,30.0840057 Z M131.34,32.8560057 C127.224,32.8560057 124.284,35.6000057 124.284,40.0800057 C124.284,44.4480057 127.252,47.1080057 131.116,47.1080057 C134.588,47.1080057 138.116,44.8680057 138.116,39.8560057 C138.116,35.7120057 135.4,32.8560057 131.34,32.8560057 L131.34,32.8560057 Z M131.256,35.3760057 C133.608,35.3760057 134.56,37.8120057 134.56,39.9400057 C134.56,42.6840057 133.188,44.6160057 131.228,44.6160057 C129.128,44.6160057 127.84,42.6280057 127.84,39.9960057 C127.84,37.7280057 128.82,35.3760057 131.256,35.3760057 L131.256,35.3760057 Z M140.944,46.8000057 L144.388,46.8000057 L144.388,39.7440057 C144.388,39.3520057 144.444,38.9880057 144.5,38.6800057 C144.808,37.1400057 145.928,36.0760057 147.58,36.0760057 C148,36.0760057 148.308,36.1320057 148.588,36.1880057 L148.588,32.9400057 C148.308,32.8840057 148.112,32.8560057 147.776,32.8560057 C146.32,32.8560057 144.724,33.8360057 144.052,35.7680057 L143.94,35.7680057 L143.828,33.1640057 L140.832,33.1640057 C140.916,34.3960057 140.944,35.7120057 140.944,37.5600057 L140.944,46.8000057 Z M162.224,40.9480057 C162.28,40.6400057 162.336,40.1360057 162.336,39.4920057 C162.336,36.4960057 160.88,32.8560057 156.456,32.8560057 C152.088,32.8560057 149.792,36.4120057 149.792,40.1920057 C149.792,44.3640057 152.396,47.0800057 156.82,47.0800057 C158.78,47.0800057 160.404,46.7160057 161.58,46.2400057 L161.076,43.8600057 C160.04,44.2520057 158.892,44.4760057 157.296,44.4760057 C155.112,44.4760057 153.18,43.4120057 153.096,40.9480057 L162.224,40.9480057 Z M153.096,38.5400057 C153.236,37.1400057 154.132,35.2080057 156.26,35.2080057 C158.556,35.2080057 159.116,37.2800057 159.088,38.5400057 L153.096,38.5400057 Z" id="Download-on-the" fill="#FFFFFF" sketch:type="MSShapeGroup"></path>
                <path d="M26.6886857,29.2488095 C29.9314286,29.2488095 32.0050286,32.3863333 32.0050286,32.3863333 C32.0050286,32.3863333 28.8418286,34.1028571 28.8418286,37.8307381 C28.8418286,42.2553095 32.8155429,43.5423571 32.8155429,43.5423571 C32.8155429,43.5423571 29.6790857,50.9843095 26.1572571,50.9843095 C24.1769143,50.9843095 24.0445714,49.8450238 21.4128,49.8450238 C19.1273143,49.8450238 18.3565714,50.9843095 16.6155429,50.9843095 C13.2925714,50.9843095 9,43.7301667 9,37.8307381 C9,31.7027619 13.3460571,29.2488095 16.0704,29.2488095 C18.4628571,29.2488095 19.4592,30.6566905 21.3860571,30.6566905 C23.0077714,30.6566905 24.2838857,29.2488095 26.6886857,29.2488095 L26.6886857,29.2488095 Z M26.1312,23 C26.6091429,26.0035714 23.8848,29.7183333 20.6290286,29.5975 C20.1504,25.7757143 23.6592,23.201619 26.1312,23 L26.1312,23 Z" id="Imported-Layers" fill="#FFFFFF" sketch:type="MSShapeGroup"></path>
            </g>
        </g>
    </g>
</svg>