<?xml version="1.0" encoding="UTF-8"?>
<svg width="107px" height="102px" viewBox="0 0 107 102" version="1.1" xmlns="http://www.w3.org/2000/svg" xmlns:xlink="http://www.w3.org/1999/xlink">
    <!-- Generator: Sketch 48.2 (47327) - http://www.bohemiancoding.com/sketch -->
    <title>logo-bankid</title>
    <desc>Created with Sketch.</desc>
    <defs></defs>
    <g id="Page-1" stroke="none" stroke-width="1" fill="none" fill-rule="evenodd">
        <g id="logo-bankid" fill-rule="nonzero">
            <g id="logo1-default">
                <path d="M33.7,53.2 L38.1,25.1 C36.3,25.1 33.3,25.1 33.3,25.1 C31.1,25.1 28.2,23.9 27.3,21.6 C27,20.8 26.4,18.1 30.1,15.5 C31.4,14.6 32.3,13.6 32.4,12.8 C32.6,12 32.4,11.3 31.8,10.7 C31.1,10 29.5,9.5 27.5,9.5 C24.1,9.5 21.7,11.5 21.5,12.9 C21.3,14 22.2,14.8 22.9,15.3 C25,16.9 25.5,19.2 24.2,21.4 C22.8,23.6 19.9,25.1 16.8,25.1 C16.8,25.1 13.7,25.1 11.9,25.1 C11.5,27.8 4.9,69.8 4.4,73.1 L30.8,73.1 C30.9,71.7 32.1,63.7 33.7,53.2 Z" id="Shape" fill="#459BBE"></path>
                <path d="M69,0.5 L42.2,0.5 L38.6,23.2 L43.2,23.2 C45.7,23.2 48.1,22.1 49.1,20.4 C49.4,19.9 49.6,19.4 49.6,19 C49.6,18.1 49,17.3 48.3,16.9 C46.5,15.6 46.2,14.2 46.2,13.2 C46.2,13 46.2,12.8 46.2,12.7 C46.6,10.3 49.8,7.7 54.1,7.7 C56.7,7.7 58.6,8.3 59.8,9.4 C60.8,10.4 61.3,11.8 61,13.2 C60.6,14.9 58.9,16.3 57.9,17 C55.3,18.8 55.6,20.4 55.8,20.9 C56.3,22.3 58.4,23.2 60,23.2 L67,23.2 C76.5,23.3 81.6,27.6 79.9,37.8 C78.4,47.2 71.2,51.3 62.6,51.4 L59,73.1 L64,73.1 C85.3,73.1 102.6,59.4 106.1,37.9 C110.4,11.2 93.4,0.5 69,0.5 Z" id="Shape" fill="#235971"></path>
                <g id="Group" transform="translate(0.000000, 82.000000)" fill="#235971">
                    <g id="Shape">
                        <path d="M2.9,0.8 L13.7,0.8 C18.3,0.8 19.4,3.1 19.1,5.3 C18.8,7 17.7,8.3 15.6,9.1 C18.2,10.1 19.2,11.6 18.8,14 C18.3,17 15.7,19.2 12.3,19.2 L0,19.2 L2.9,0.8 Z M10,8.5 C12.1,8.5 13.1,7.4 13.3,6.1 C13.5,4.7 12.9,3.7 10.8,3.7 L8.9,3.7 L8.1,8.5 L10,8.5 Z M8.8,16.5 C11,16.5 12.2,15.6 12.5,13.8 C12.7,12.3 11.9,11.3 9.8,11.3 L7.7,11.3 L6.9,16.5 L8.8,16.5 Z"></path>
                        <path d="M33.8,19.4 C31,19.6 29.6,19.3 29,18.1 C27.5,19 25.9,19.5 24.1,19.5 C20.9,19.5 19.8,17.9 20.1,16 C20.2,15.1 20.7,14.3 21.6,13.6 C23.3,12.1 27.7,11.9 29.4,10.7 C29.5,9.4 29,8.9 27.4,8.9 C25.5,8.9 24,9.5 21.3,11.3 L21.9,7.1 C24.2,5.4 26.4,4.7 29,4.7 C32.3,4.7 35.2,6 34.6,9.6 L34,13.7 C33.8,15.1 33.8,15.6 35.4,15.6 L33.8,19.4 Z M29,13.1 C27.5,14 24.7,13.9 24.4,15.8 C24.3,16.7 24.8,17.4 25.7,17.4 C26.6,17.4 27.7,17 28.5,16.4 C28.4,16.1 28.5,15.7 28.6,15.1 L29,13.1 Z"></path>
                        <path d="M39.1,5 L44.7,5 L44.4,6.9 C46.2,5.4 47.5,4.8 49.3,4.8 C52.4,4.8 53.9,6.7 53.4,9.9 L51.9,19.3 L46.3,19.3 L47.5,11.5 C47.7,10.1 47.3,9.4 46.2,9.4 C45.3,9.4 44.5,9.9 43.7,10.9 L42.4,19.2 L36.8,19.2 L39.1,5 Z"></path>
                        <polygon points="57.8 0.8 63.4 0.8 62 9.9 67.4 5 74.3 5 67.4 11.1 72.9 19.3 65.8 19.3 61.5 12.7 61.4 12.7 60.4 19.3 54.8 19.3"></polygon>
                    </g>
                    <g id="Shape">
                        <path d="M2.9,0.8 L13.7,0.8 C18.3,0.8 19.4,3.1 19.1,5.3 C18.8,7 17.7,8.3 15.6,9.1 C18.2,10.1 19.2,11.6 18.8,14 C18.3,17 15.7,19.2 12.3,19.2 L0,19.2 L2.9,0.8 Z M10,8.5 C12.1,8.5 13.1,7.4 13.3,6.1 C13.5,4.7 12.9,3.7 10.8,3.7 L8.9,3.7 L8.1,8.5 L10,8.5 Z M8.8,16.5 C11,16.5 12.2,15.6 12.5,13.8 C12.7,12.3 11.9,11.3 9.8,11.3 L7.7,11.3 L6.9,16.5 L8.8,16.5 Z"></path>
                        <path d="M33.8,19.4 C31,19.6 29.6,19.3 29,18.1 C27.5,19 25.9,19.5 24.1,19.5 C20.9,19.5 19.8,17.9 20.1,16 C20.2,15.1 20.7,14.3 21.6,13.6 C23.3,12.1 27.7,11.9 29.4,10.7 C29.5,9.4 29,8.9 27.4,8.9 C25.5,8.9 24,9.5 21.3,11.3 L21.9,7.1 C24.2,5.4 26.4,4.7 29,4.7 C32.3,4.7 35.2,6 34.6,9.6 L34,13.7 C33.8,15.1 33.8,15.6 35.4,15.6 L33.8,19.4 Z M29,13.1 C27.5,14 24.7,13.9 24.4,15.8 C24.3,16.7 24.8,17.4 25.7,17.4 C26.6,17.4 27.7,17 28.5,16.4 C28.4,16.1 28.5,15.7 28.6,15.1 L29,13.1 Z"></path>
                        <path d="M39.1,5 L44.7,5 L44.4,6.9 C46.2,5.4 47.5,4.8 49.3,4.8 C52.4,4.8 53.9,6.7 53.4,9.9 L51.9,19.3 L46.3,19.3 L47.5,11.5 C47.7,10.1 47.3,9.4 46.2,9.4 C45.3,9.4 44.5,9.9 43.7,10.9 L42.4,19.2 L36.8,19.2 L39.1,5 Z"></path>
                        <polygon points="57.8 0.8 63.4 0.8 62 9.9 67.4 5 74.3 5 67.4 11.1 72.9 19.3 65.8 19.3 61.5 12.7 61.4 12.7 60.4 19.3 54.8 19.3"></polygon>
                    </g>
                </g>
                <g id="Group" transform="translate(74.000000, 82.000000)" fill="#459BBE">
                    <polygon id="Shape" points="3.6 0.8 10.1 0.8 7.2 19.2 0.7 19.2"></polygon>
                    <path d="M13.2,0.8 L22.4,0.8 C29.5,0.8 31.6,6 30.9,10.3 C30.3,14.5 26.9,19.3 20.7,19.3 L10.4,19.3 L13.2,0.8 Z M19.2,14.9 C22.3,14.9 24.1,13.4 24.6,10.1 C25,7.7 24.2,5.3 20.8,5.3 L19,5.3 L17.5,15 L19.2,14.9 Z" id="Shape"></path>
                </g>
            </g>
        </g>
    </g>
</svg>