<?xml version="1.0" encoding="UTF-8"?>
<svg width="256px" height="256px" viewBox="0 0 256 256" version="1.1" xmlns="http://www.w3.org/2000/svg" xmlns:xlink="http://www.w3.org/1999/xlink">
    <!-- Generator: Sketch 51.3 (57544) - http://www.bohemiancoding.com/sketch -->
    <title>bitbucket-logo-white</title>
    <desc>Created with Sketch.</desc>
    <defs></defs>
    <g id="bitbucket-logo-white" stroke="none" stroke-width="1" fill="none" fill-rule="evenodd">
        <g id="iconfinder_bitbucket-repository-svn-manage-files-contribute-branch_652585" transform="translate(38.000000, 26.000000)" fill="#FFFFFF" fill-rule="nonzero">
            <path d="M177.562273,22.8888889 C176.392165,20.9491525 174.441983,19.3973635 172.881838,18.2335217 C168.981476,15.1299435 164.30104,12.8022599 159.620605,11.2504708 C149.869699,7.37099812 139.33872,5.0433145 128.807741,3.10357815 C115.936544,1.16384181 103.065348,0.387947269 89.4140784,0 C77.3229543,0 64.4517577,0.775894539 51.9705974,2.71563089 C42.9997634,4.26741996 34.0289294,5.81920904 25.4481316,8.92278719 C19.5975877,10.8625235 14.13708,13.1902072 9.06660865,16.6817326 C6.72639109,18.2335217 4.38617352,20.173258 2.82602848,22.5009416 C0.485810914,25.2165725 -0.294261608,28.7080979 0.0957746533,32.1996234 C1.26588344,39.1826742 2.43599222,46.5536723 3.606101,53.5367232 C5.16624605,64.0112994 7.11642735,74.4858757 9.06660865,84.960452 C11.01679,96.5988701 12.9669713,108.237288 14.9171526,119.875706 C15.3071888,122.591337 16.4772976,124.919021 18.4274789,126.858757 C19.5975877,128.022599 20.7676965,129.186441 22.3278415,130.350282 C27.0082767,134.229755 32.4687843,136.945386 38.3193282,139.27307 C51.9705974,144.704331 66.0119027,147.032015 80.8332807,147.80791 C91.3642597,148.583804 101.895239,148.195857 112.426218,146.644068 C121.397052,145.480226 129.97785,143.54049 138.558647,140.436911 C144.799227,138.109228 151.039808,135.393597 156.500315,131.514124 C158.840533,129.962335 160.790714,128.022599 162.740895,125.694915 C163.911004,124.143126 164.691077,122.591337 165.081113,120.651601 C167.811367,105.521657 170.541621,90.3917137 172.881838,74.873823 C175.222056,60.9077213 177.562273,46.5536723 179.902491,32.5875706 C180.292527,28.3201507 179.512455,25.6045198 177.562273,22.8888889 Z M90.1941509,127.634652 C74.5927005,127.634652 61.7215039,114.832392 61.7215039,99.3145009 C61.7215039,83.7966102 74.5927005,70.9943503 90.1941509,70.9943503 C106.185638,70.9943503 118.666798,83.7966102 118.666798,99.7024482 C118.666798,115.220339 105.795601,127.634652 90.1941509,127.634652 Z M147.139445,28.7080979 C146.359372,29.4839925 145.189264,30.259887 144.409191,31.0357815 C141.288901,32.5875706 138.168611,33.7514124 135.048321,34.527307 C128.807741,36.079096 122.567161,36.8549906 115.936544,37.6308851 C107.745783,38.4067797 99.1649849,38.7947269 90.9742234,38.7947269 C81.2233169,38.7947269 71.8624467,38.4067797 62.5015764,37.2429379 C55.4809237,36.4670433 48.460271,35.3032015 41.8296546,32.9755179 C39.8794733,32.1996234 37.929292,31.4237288 35.9791107,30.6478343 C35.1990381,30.259887 34.0289294,29.4839925 33.6388931,28.7080979 C32.4687843,27.1563089 32.4687843,25.6045198 33.6388931,24.440678 C34.4189656,23.6647834 35.1990381,22.8888889 36.3691469,22.5009416 C39.0994007,20.9491525 42.2196908,19.7853107 45.3399809,19.0094162 C51.5805611,17.4576271 58.2111775,16.2937853 64.841794,15.5178908 C75.7628093,14.354049 86.2937883,13.9661017 97.2148036,14.354049 C107.355746,14.7419962 117.106653,15.5178908 126.857559,17.0696798 C131.537995,17.8455744 136.21843,19.0094162 140.508829,20.5612053 C142.068974,21.3370998 143.629119,22.1129944 144.799227,22.8888889 C145.5793,23.2768362 145.969336,24.0527307 146.749409,24.440678 C147.919518,25.992467 147.919518,27.5442561 147.139445,28.7080979 Z M157.670424,147.80791 C157.670424,148.195857 157.670424,148.971751 157.670424,149.747646 C155.720243,160.222222 153.770061,170.696798 151.81988,181.171375 C151.039808,184.6629 149.479663,187.766478 147.139445,190.094162 C144.409191,192.809793 141.288901,195.137476 137.778575,196.689266 C131.537995,199.792844 124.517342,202.120527 117.496689,203.284369 C108.525855,205.224105 99.5550212,206 94.0945135,206 C78.4930631,206 66.7919753,204.836158 55.4809237,201.344633 C50.4104523,199.792844 45.3399809,197.853107 40.2695095,195.137476 C37.929292,193.585687 35.5890744,192.033898 33.6388931,190.094162 C30.9086393,187.378531 29.3484942,184.6629 28.958458,181.171375 C27.0082767,170.696798 25.0580954,160.222222 23.107914,149.747646 C23.107914,149.359699 23.107914,148.583804 23.107914,148.195857 C23.107914,145.480226 25.4481316,144.316384 27.7883492,145.480226 C28.1783854,145.480226 28.1783854,145.868173 28.5684217,145.868173 C36.3691469,151.299435 44.9499447,155.178908 53.9207787,157.894539 C62.1115401,160.610169 70.6923379,162.161959 79.2731356,162.937853 C89.0240421,163.713748 99.1649849,163.713748 108.915891,162.161959 C122.177124,160.222222 134.658285,156.730697 145.969336,150.135593 C148.309554,148.971751 150.649771,147.419962 152.599953,145.868173 C152.989989,145.480226 153.380025,145.480226 153.770061,145.092279 C155.330206,144.316384 157.670424,145.480226 157.670424,147.80791 Z M104.625493,99.3145009 C104.625493,107.073446 97.9948761,113.66855 90.1941509,113.66855 C82.3934257,113.66855 75.7628093,107.073446 76.1528455,99.3145009 C76.1528455,91.5555556 82.3934257,84.960452 90.5841872,85.3483992 C97.9948761,84.960452 104.625493,91.5555556 104.625493,99.3145009 Z" id="Shape"></path>
        </g>
    </g>
</svg>