<?xml version="1.0" encoding="UTF-8"?>
<svg width="354px" height="197px" viewBox="0 0 354 197" version="1.1" xmlns="http://www.w3.org/2000/svg" xmlns:xlink="http://www.w3.org/1999/xlink">
    <!-- Generator: Sketch 51.3 (57544) - http://www.bohemiancoding.com/sketch -->
    <title>box-logo-white</title>
    <desc>Created with Sketch.</desc>
    <defs></defs>
    <g id="box-logo-white" stroke="none" stroke-width="1" fill="none" fill-rule="evenodd">
        <g id="iconfinder_Box_2460213" fill="#FFFFFF" fill-rule="nonzero">
            <path d="M27.5,71.9 C44.8,59.7 63.5,55.6 83.7,60.1 C103.9,64.6 118.9,76.4 129.3,94.5 C144.5,69.5 166.5,56.8 195.8,58.7 C214.8,59.9 230.5,68.5 242.8,83 C267.5,112.4 263.2,156.2 233.3,180.6 C225.4,187.1 216.4,191.5 206.4,193.9 C196.4,196.3 186.4,196.5 176.4,194.5 C166.4,192.5 157.3,188.4 149.2,182.4 C141,176.3 134.5,168.7 129.5,159.7 C128.7,160.4 128.4,161.2 128,162 C115.8,181.7 98.4,193.2 75.4,195.5 C40.2,199 8.6,175.6 1.4,141.1 C0.5,136.6 0,132.1 0,127.6 C0,90 0,52.4 0,14.8 C0,8.8 3.5,3.6 9.1,1.7 C18.4,-1.5 27.4,5 27.6,14.6 C27.7,17.2 27.6,19.7 27.6,22.3 C27.6,38 27.6,53.7 27.6,69.4 C27.5,70 27.5,70.7 27.5,71.9 Z M68.6,85.9 C45.9,85.9 27.5,104.4 27.5,127 C27.5,149.6 45.8,168 68.3,168.2 C90.2,168.4 109.7,150.8 109.8,127 C109.8,104.4 91.2,85.9 68.6,85.9 Z M190,85.9 C167.3,86 148.7,104.5 148.8,127.1 C149,151.4 169,168.4 190.4,168.2 C213.1,168 231.4,149.1 231.2,126.7 C231,104.3 212.6,85.9 190,85.9 Z" id="Combined-Shape"></path>
            <path d="M299.1,103.8 C302.7,99 306.3,94.2 309.9,89.4 C316.2,80.9 322.6,72.4 328.9,64 C333.4,58 341.4,56.5 347.5,60.5 C354,64.7 355.8,73.3 351.5,79.8 C349.8,82.3 348,84.6 346.2,87 C336.7,99.8 327.1,112.5 317.6,125.2 C317.4,125.5 317.2,125.8 316.9,126 C316.2,126.8 316.3,127.4 316.9,128.2 C318.7,130.6 320.5,133 322.3,135.4 C331.8,148 341.2,160.7 350.7,173.3 C353.2,176.7 354.5,180.3 353.7,184.5 C352.6,190.3 349.2,194.2 343.4,195.5 C337.7,196.9 332.8,195.3 329.2,190.6 C324.7,184.8 320.3,178.8 315.9,172.9 C310.6,165.8 305.3,158.8 300.1,151.7 C299,150.2 299,150.2 297.8,151.8 C290.9,161 284.1,170.1 277.2,179.3 C274.4,183.1 271.6,186.9 268.8,190.6 C265.1,195.3 260.2,196.9 254.6,195.6 C248.9,194.3 245.4,190.4 244.3,184.6 C243.5,180.6 244.5,177 247,173.7 C252.2,166.8 257.4,159.8 262.6,152.9 C268.6,144.8 274.7,136.7 280.7,128.6 C281.8,127.1 282.1,127.4 280.7,125.5 C269.7,110.8 258.6,96 247.6,81.3 C245.5,78.6 244.1,75.6 244.1,72.1 C244.1,66.1 247.7,61 253.2,59 C258.8,57 265,58.7 268.7,63.5 C271.8,67.5 274.8,71.6 277.8,75.6 C284.5,84.5 291.2,93.5 297.9,102.4 C298,103 298.2,103.5 299.1,103.8 Z" id="Shape"></path>
        </g>
    </g>
</svg>