<svg xmlns="http://www.w3.org/2000/svg" viewBox="0 0 134.46 62.55"><defs><style>.cls-1{fill:#fff;}</style></defs><title>cgi-logo</title><g id="Lager_2" data-name="Lager 2"><g id="Layer_1" data-name="Layer 1"><path class="cls-1" d="M33.42,12.06A19.24,19.24,0,0,0,13.67,31.27c0,11.62,9.47,19.22,19.84,19.22,6.88,0,13.4-3,18.94-8V56.92a42,42,0,0,1-19.92,5.63C14.83,62.55,0,48.16,0,31.27,0,13.4,14.92,0,32.62,0A48.77,48.77,0,0,1,52.54,4.65V18.77C46,14.48,39.41,12.06,33.42,12.06Z"/><path class="cls-1" d="M90.06,62.55c-17.78,0-32.79-13.85-32.79-31.28C57.27,13.67,72.19,0,90.87,0a54.12,54.12,0,0,1,20.37,4.2v14c-5.89-3.4-13.49-6.17-20.1-6.17-12.24,0-20.2,9.56-20.2,19.21,0,11.35,9.39,19.57,20.38,19.57a19.39,19.39,0,0,0,7.41-1.25V38.33h-10V26.45H111.6V58.08A52.17,52.17,0,0,1,90.06,62.55Z"/><path class="cls-1" d="M121.59,61.3v-60h12.87V61.3Z"/></g></g></svg>
