<?xml version="1.0" encoding="UTF-8"?>
<svg width="256px" height="256px" viewBox="0 0 256 256" version="1.1" xmlns="http://www.w3.org/2000/svg" xmlns:xlink="http://www.w3.org/1999/xlink">
    <!-- Generator: Sketch 51.3 (57544) - http://www.bohemiancoding.com/sketch -->
    <title>criipto-logo-white</title>
    <desc>Created with Sketch.</desc>
    <defs></defs>
    <g id="criipto-logo-white" stroke="none" stroke-width="1" fill="none" fill-rule="evenodd">
        <g id="logo-criipto-white-2" transform="translate(42.000000, 14.000000)" fill="#FFFFFF" fill-rule="nonzero">
            <g id="Logo">
                <g id="Group">
                    <path d="M140.94,76.3333333 L140.94,52.3428571 C140.94,23.4452381 115.829625,0 87,0 C58.170375,0 33.06,23.4452381 33.06,52.3428571 L33.06,76.3333333 C13.833,76.3333333 0,91.9598571 0,111.228571 L0,194.104762 C0,213.384381 15.583875,229 34.8,229 L139.2,229 C158.416125,229 174,213.384381 174,194.104762 L174,111.228571 C174,91.9598571 160.167,76.3333333 140.94,76.3333333 Z M43.5,52.3428571 C43.5,29.2574762 63.977625,10.4685714 87,10.4685714 C110.022375,10.4685714 130.5,29.2574762 130.5,52.3428571 L130.5,76.3333333 L43.5,76.3333333 L43.5,52.3428571 Z M163.56,194.104762 C163.56,207.572143 152.630625,218.531429 139.2,218.531429 L34.8,218.531429 C21.369375,218.531429 10.44,207.572143 10.44,194.104762 L10.44,111.228571 C10.44,97.7611905 21.369375,86.8019048 34.8,86.8019048 L139.2,86.8019048 C152.630625,86.8019048 163.56,97.7611905 163.56,111.228571 L163.56,194.104762 Z" id="Fill-4"></path>
                    <path d="M87,174.47619 C80.997,174.47619 76.125,169.601762 76.125,163.571429 L76.125,140.889524 C76.125,134.870095 80.997,130.857143 87,130.857143 C93.003,130.857143 97.875,134.870095 97.875,140.889524 L97.875,163.571429 C97.875,169.601762 93.003,174.47619 87,174.47619" id="Fill-6"></path>
                </g>
            </g>
        </g>
    </g>
</svg>