<?xml version="1.0" encoding="UTF-8"?>
<svg width="127px" height="129px" viewBox="0 0 127 129" version="1.1" xmlns="http://www.w3.org/2000/svg" xmlns:xlink="http://www.w3.org/1999/xlink">
    <!-- Generator: Sketch 48.2 (47327) - http://www.bohemiancoding.com/sketch -->
    <title>cube</title>
    <desc>Created with Sketch.</desc>
    <defs></defs>
    <g id="Page-1" stroke="none" stroke-width="1" fill="none" fill-rule="evenodd">
        <g id="cube" fill="#626D87" fill-rule="nonzero">
            <g transform="translate(8.000000, 9.000000)" id="Shape">
                <path d="M108.82525,33.9452294 C108.374,33.9452294 107.94625,34.0272962 107.55775,34.1851938 L106.9875,34.4720535 L64.11875,56.6570334 L63.14675,57.154922 C63.14675,57.154922 63.13375,57.1606592 63.13375,57.1666459 C61.24375,58.3310468 60,60.2861826 60,62.5109666 L60,108.870984 C60,110.462931 61.41225,111.750557 63.1725,111.750557 C63.717,111.750557 64.23525,111.622592 64.68875,111.400339 C64.7275,111.376641 64.7795,111.353443 64.8185,111.329996 L108.50125,88.2081069 L108.566,88.1729354 C110.62625,87.0494432 111.99975,84.9945301 111.99975,82.6589933 L111.99975,36.8133274 C112,35.227118 110.57475,33.9452294 108.82525,33.9452294 Z"></path>
                <path d="M105.56825,21.5820757 L60.14325,1.19483296 C60.14325,1.19483296 57.4785,1.42108547e-14 55.999,1.42108547e-14 C54.5195,1.42108547e-14 51.8675,1.19483296 51.8675,1.19483296 L6.4035,21.5820757 C6.4035,21.5820757 4.40625,22.4032428 4.40625,23.9465479 C4.40625,25.5833942 6.48125,26.8151448 6.48125,26.8151448 L52.12675,50.8542361 L52.85225,51.2231626 C53.79825,51.6439733 54.8715,51.8839376 55.999,51.8839376 C57.13925,51.8839376 58.22775,51.6437238 59.1845,51.2114388 L59.81925,50.8834209 L105.5425,26.8031715 C105.5425,26.8031715 107.4195,25.7964187 107.4195,23.9462984 C107.4195,22.325167 105.56825,21.5820757 105.56825,21.5820757 Z"></path>
                <path d="M48.8665,57.1668953 L47.8685,56.6572829 L5.0105,34.4723029 L4.4405,34.1854432 C4.06675,34.0272962 3.626,33.9454788 3.17275,33.9454788 C1.4235,33.9454788 0.00025,35.227118 0.00025,36.8133274 L0.00025,82.6589933 C0.00025,85.0007661 1.3715,87.0496927 3.432,88.1729354 L3.484,88.2081069 L47.16875,111.329996 C47.64825,111.599394 48.2185,111.750806 48.82775,111.750806 C50.575,111.750806 52.00025,110.46318 52.00025,108.871234 L52.00025,62.511216 C52,60.2864321 50.756,58.3312962 48.8665,57.1668953 Z"></path>
            </g>
        </g>
    </g>
</svg>