<svg width="100%" height="100%" viewBox="0 0 188 54" version="1.1" xmlns="http://www.w3.org/2000/svg" xmlns:xlink="http://www.w3.org/1999/xlink" xmlns:sketch="http://www.bohemiancoding.com/sketch/ns">
    <defs>
        <path id="path-1" d="M0,1.09636364 L179.388367,1.09636364 L179.388367,38.1818182 L0,38.1818182 L0,1.09636364 Z"></path>
        <path id="path-3" d="M0,1.09636364 L179.388367,1.09636364 L179.388367,38.1818182 L0,38.1818182 L0,1.09636364 Z"></path>
    </defs>
    <g id="Page-1" stroke="none" stroke-width="1" fill="none" fill-rule="evenodd" sketch:type="MSPage">
        <g id="curity-logo" sketch:type="MSArtboardGroup">
            <g id="Page-1" sketch:type="MSLayerGroup" transform="translate(4.000000, 7.000000)">
                <g id="Group-3">
                    <mask id="mask-2" sketch:name="Clip 2" fill="white">
                        <use xlink:href="#path-1"></use>
                    </mask>
                    <g id="Clip-2"></g>
                    <path d="M51.4537347,24.6129091 L50.8751633,25.1874545 C47.6076122,28.422 43.5006735,30.2783636 39.6049592,30.2783636 C33.4243469,30.2783636 28.9390408,25.8129091 28.9390408,19.662 C28.9390408,13.5147273 33.3159796,9.05109091 39.3478163,9.05109091 C42.8412857,9.05109091 46.9776122,10.6638182 49.8851633,13.1547273 L50.4674082,13.6583636 L56.249449,7.67836364 L55.5974082,7.12745455 C51.1561837,3.35290909 44.8488367,1.09472727 38.727,1.09472727 C31.9825102,1.09472727 26.2702653,4.13109091 22.8759796,8.93290909 L12.2210816,8.93290909 L11.5984286,14.1256364 L20.3504694,14.1256364 C20.069449,15.0638182 19.8747551,16.0401818 19.7425102,17.0438182 L6.64659184,17.0438182 L6.02393878,22.2347273 L19.7406735,22.2347273 C19.8710816,23.2383636 20.0639388,24.2165455 20.339449,25.1492727 L20.3302653,25.1492727 L19.5533265,25.1492727 L0.623938776,25.1492727 L-0.000551020408,30.342 L19.5533265,30.342 L20.3302653,30.342 L22.8300612,30.342 C26.2261837,35.1801818 32.011898,38.182 38.9859796,38.182 C47.7435306,38.182 53.8488367,33.7474545 56.7086327,31.1056364 L57.3165918,30.5438182 L51.4537347,24.6129091 Z" id="Fill-1" fill="#FFFFFF" sketch:type="MSShapeGroup" mask="url(#mask-2)"></path>
                </g>
                <path d="M5.16306122,17.0436364 L1.30408163,17.0436364 L0.681428571,22.2345455 L4.5422449,22.2345455 L5.16306122,17.0436364 Z" id="Fill-4" fill="#FFFFFF" sketch:type="MSShapeGroup"></path>
                <path d="M87.462,23.9489091 C85.3515918,25.898 82.1428163,27.6816364 78.1203673,27.6816364 C72.0132245,27.6816364 67.9889388,23.3634545 67.9889388,18.0143636 C67.9889388,12.778 72.0407755,8.378 77.9789388,8.378 C81.3548571,8.378 84.6756735,9.68709091 86.8705714,11.5543636 L84.3377143,14.1707273 C82.6497551,12.7234545 80.2858776,11.8325455 78.316898,11.8325455 C74.6030204,11.8325455 72.2097551,14.6452727 72.2097551,18.0434545 C72.2097551,21.4689091 74.6581224,24.2543636 78.4583265,24.2543636 C80.9617959,24.2543636 83.2962857,22.9452727 84.8997551,21.358 L87.462,23.9489091 Z" id="Fill-6" fill="#FFFFFF" sketch:type="MSShapeGroup"></path>
                <path d="M107.523367,8.93472727 L107.523367,20.5765455 C107.523367,25.1183636 103.976633,27.682 99.1092857,27.682 C94.3815306,27.682 90.7521429,25.1183636 90.7521429,20.5765455 L90.7521429,8.93472727 L94.8039796,8.93472727 L94.8039796,20.5765455 C94.8039796,22.9747273 96.7454082,24.2547273 99.1092857,24.2547273 C101.614592,24.2547273 103.471531,22.9747273 103.471531,20.5765455 L103.471531,8.93472727 L107.523367,8.93472727 Z" id="Fill-8" fill="#FFFFFF" sketch:type="MSShapeGroup"></path>
                <path d="M117.004776,12.3047273 L117.004776,17.0683636 L123.589469,17.0683636 C124.996408,17.0683636 126.149878,16.0647273 126.149878,14.6738182 C126.149878,14.0610909 125.923959,13.5029091 125.50151,13.0847273 C124.85498,12.3883636 124.039469,12.3047273 123.308449,12.3047273 L117.004776,12.3047273 Z M112.982327,27.1229091 L112.982327,8.93381818 L123.16702,8.93381818 C125.784367,8.93381818 127.499878,9.68836364 128.682735,10.912 C129.639673,11.9156364 130.201714,13.2247273 130.201714,14.6738182 C130.201714,17.012 128.739673,18.8229091 126.487837,19.7974545 L130.793143,27.1229091 L126.179265,27.1229091 L122.463551,20.4392727 L117.004776,20.4392727 L117.004776,27.1229091 L112.982327,27.1229091 Z" id="Fill-10" fill="#FFFFFF" sketch:type="MSShapeGroup"></path>
                <mask id="mask-4" sketch:name="Clip 13" fill="white">
                    <use xlink:href="#path-3"></use>
                </mask>
                <g id="Clip-13"></g>
                <path d="M134.928367,8.93454545 L138.950816,8.93454545 L138.950816,27.1236364 L134.928367,27.1236364 L134.928367,8.93454545 Z" id="Fill-12" fill="#FFFFFF" sketch:type="MSShapeGroup" mask="url(#mask-4)"></path>
                <path d="M142.582776,8.93472727 L159.917878,8.93472727 L159.917878,12.3874545 L153.274408,12.3874545 L153.274408,27.1238182 L149.251959,27.1238182 L149.251959,12.3874545 L142.582776,12.3874545 L142.582776,8.93472727 Z" id="Fill-14" fill="#FFFFFF" sketch:type="MSShapeGroup" mask="url(#mask-4)"></path>
                <path d="M179.387449,8.93472727 L172.099286,18.822 L172.099286,27.1238182 L168.047449,27.1238182 L168.047449,18.822 L160.731735,8.93472727 L165.738673,8.93472727 L170.212959,15.2583636 L174.661531,8.93472727 L179.387449,8.93472727 Z" id="Fill-15" fill="#FFFFFF" sketch:type="MSShapeGroup" mask="url(#mask-4)"></path>
            </g>
        </g>
    </g>
</svg>
