<svg xmlns="http://www.w3.org/2000/svg" xmlns:xlink="http://www.w3.org/1999/xlink" viewBox="0 0 339.23 152.37"><defs><style>.cls-1,.cls-10,.cls-2,.cls-3,.cls-4,.cls-5,.cls-7,.cls-8,.cls-9{fill:none;}.cls-1,.cls-10{stroke:#d55ba0;}.cls-1,.cls-10,.cls-5,.cls-8,.cls-9{stroke-miterlimit:10;}.cls-1{stroke-width:1.47px;}.cls-2,.cls-3,.cls-4,.cls-7{stroke-linecap:round;stroke-linejoin:round;}.cls-2,.cls-3,.cls-4{stroke-width:1.42px;}.cls-2{stroke:url(#Namnlös_övertoning_56);}.cls-3{stroke:url(#Namnlös_övertoning_56-2);}.cls-4{stroke:url(#Namnlös_övertoning_65);}.cls-5{stroke:#d5ce49;}.cls-5,.cls-7,.cls-8{stroke-width:1.51px;}.cls-6{fill:#fff;}.cls-7,.cls-8{stroke:#fff;}.cls-9{stroke:#f5f5f5;}.cls-10,.cls-9{stroke-width:1.23px;}.cls-11{fill:#00d8ff;}</style><linearGradient id="Namnlös_övertoning_56" x1="978.23" y1="-160.98" x2="978.23" y2="-278.18" gradientTransform="matrix(0, -1, -1, 0, -85.99, 1119.03)" gradientUnits="userSpaceOnUse"><stop offset="0" stop-color="#616881"/><stop offset="1" stop-color="#555c71" stop-opacity="0.2"/></linearGradient><linearGradient id="Namnlös_övertoning_56-2" x1="970.54" y1="-160.98" x2="970.54" y2="-281.24" xlink:href="#Namnlös_övertoning_56"/><linearGradient id="Namnlös_övertoning_65" x1="974.13" y1="-160.98" x2="974.13" y2="-288.37" gradientTransform="matrix(0, -1, -1, 0, -85.99, 1119.03)" gradientUnits="userSpaceOnUse"><stop offset="0" stop-color="#d55ba0" stop-opacity="0.97"/><stop offset="1" stop-color="#555c71" stop-opacity="0.2"/></linearGradient></defs><g id="Lager_2" data-name="Lager 2"><g id="Lager_5" data-name="Lager 5"><circle class="cls-1" cx="59.63" cy="50.38" r="11.81"/><rect class="cls-1" x="54.69" y="49.83" width="9.88" height="6.04" rx="1.1"/><path class="cls-1" d="M56.89,49.83V47.64a2.75,2.75,0,1,1,5.49,0v2.19"/><path class="cls-2" d="M75.71,41.67h30.83A8.43,8.43,0,0,1,115,50.08V92.13a8.43,8.43,0,0,0,8.41,8.41h68.12"/><path class="cls-3" d="M75.71,57.06h30.83A8.44,8.44,0,0,1,115,65.47v42.05a8.44,8.44,0,0,0,8.41,8.42h71.18"/><path class="cls-4" d="M75.71,49.88h30.83A8.44,8.44,0,0,1,115,58.29v42.06a8.44,8.44,0,0,0,8.41,8.41h78.31"/><circle class="cls-5" cx="18.38" cy="41.53" r="9.89"/><path class="cls-5" d="M.75,73.52c0-8.77,7.9-15.88,17.63-15.88a19.14,19.14,0,0,1,6.87,1.25"/><line class="cls-5" x1="10.5" y1="68.64" x2="26.27" y2="68.64"/><line class="cls-5" x1="10.5" y1="73.97" x2="26.27" y2="73.97"/><circle class="cls-6" cx="31.75" cy="88.68" r="4.11"/><line class="cls-7" x1="27.64" y1="10.69" x2="35.85" y2="10.69"/><path class="cls-8" d="M7,27.51V5.92A5.19,5.19,0,0,1,12.12.75H53.85A5.18,5.18,0,0,1,59,5.92v17"/><path class="cls-8" d="M59,88.68v5.81a5.17,5.17,0,0,1-5.16,5.16H12.12A5.18,5.18,0,0,1,7,94.49V84.58"/><polygon class="cls-9" points="284.76 78.58 264.51 78.58 254.38 96.12 264.51 113.66 284.76 113.66 294.89 96.12 284.76 78.58"/><polygon class="cls-9" points="284.76 78.58 264.51 78.58 254.38 96.12 264.51 113.66 284.76 113.66 294.89 96.12 284.76 78.58"/><circle class="cls-9" cx="274.64" cy="49" r="8.52"/><line class="cls-9" x1="274.64" y1="57.52" x2="274.64" y2="71.91"/><circle class="cls-9" cx="274.64" cy="143.24" r="8.52"/><line class="cls-9" x1="274.64" y1="134.72" x2="274.64" y2="120.33"/><circle class="cls-9" cx="232.81" cy="75.32" r="8.52"/><line class="cls-9" x1="240.37" y1="79.24" x2="253.14" y2="85.86"/><circle class="cls-9" cx="232.36" cy="117.81" r="8.52"/><line class="cls-9" x1="240" y1="114.05" x2="252.91" y2="107.7"/><circle class="cls-9" cx="316.91" cy="76.21" r="8.52"/><line class="cls-9" x1="309.27" y1="79.97" x2="296.36" y2="86.32"/><circle class="cls-10" cx="316.46" cy="117.81" r="22.15"/><rect class="cls-10" x="307.19" y="116.78" width="18.54" height="11.33" rx="2.06"/><path class="cls-10" d="M311.31,116.78v-4.12a5.15,5.15,0,1,1,10.3,0v4.12"/><path class="cls-11" d="M92.38,10.15l-.82-.26c0-.19.09-.38.13-.56.62-3,.21-5.44-1.17-6.24S87,3.12,84.82,5l-.63.58-.43-.39c-2.3-2-4.6-2.9-6-2.1S76.05,6.17,76.61,9c0,.28.12.56.19.84-.33.1-.64.19-.94.3-2.7.94-4.42,2.41-4.42,3.94s1.85,3.16,4.66,4.12l.68.22c-.07.31-.14.61-.2.91-.53,2.81-.11,5,1.21,5.8s3.66,0,5.9-2c.18-.15.35-.32.53-.49l.69.63c2.16,1.86,4.3,2.61,5.63,1.85s1.81-3.19,1.23-6.1c0-.22-.1-.45-.15-.68l.47-.15c2.92-1,4.82-2.53,4.82-4.13s-1.78-3-4.53-4Zm-.63,7.06-.43.13A25.42,25.42,0,0,0,90,14.12a25.27,25.27,0,0,0,1.24-3.18c.26.07.51.15.76.24,2.35.81,3.79,2,3.79,2.93s-1.55,2.27-4.07,3.1Zm-1,2.07a9.12,9.12,0,0,1,.12,3.37A2.25,2.25,0,0,1,90,24.23c-.8.46-2.52-.14-4.37-1.74-.21-.18-.43-.37-.64-.58a25.08,25.08,0,0,0,2.13-2.71,25.81,25.81,0,0,0,3.45-.53c.06.21.1.41.14.61ZM80.12,24.15a2.25,2.25,0,0,1-1.78.06c-.81-.46-1.14-2.25-.69-4.65.06-.27.12-.55.19-.84a25.72,25.72,0,0,0,3.43.49,24.67,24.67,0,0,0,2.19,2.7c-.16.16-.33.31-.49.45a9.09,9.09,0,0,1-2.85,1.79ZM76.45,17.2a9.15,9.15,0,0,1-3-1.57,2.22,2.22,0,0,1-1-1.52c0-.93,1.38-2.11,3.68-2.91.28-.1.58-.19.88-.28a27.11,27.11,0,0,0,1.24,3.22,26.07,26.07,0,0,0-1.25,3.26l-.63-.2Zm1.23-8.38c-.48-2.45-.16-4.29.64-4.75s2.73.21,4.72,2l.38.35a26.48,26.48,0,0,0-2.17,2.69,26.6,26.6,0,0,0-3.4.53c-.06-.27-.12-.53-.17-.79Zm11,2.71c-.25-.43-.51-.86-.78-1.27a22.54,22.54,0,0,1,2.33.41c-.22.7-.5,1.44-.82,2.19-.23-.44-.48-.88-.73-1.33ZM84.19,7.17c.5.54,1,1.15,1.5,1.81-.5,0-1,0-1.52,0s-1,0-1.5,0c.5-.65,1-1.26,1.52-1.81Zm-4.51,4.37q-.39.66-.72,1.32a22.11,22.11,0,0,1-.81-2.21c.72-.16,1.5-.29,2.31-.39-.27.42-.53.84-.78,1.28Zm.8,6.5c-.83-.09-1.62-.22-2.35-.37.23-.73.51-1.48.83-2.25q.35.66.72,1.32h0c.26.44.53.88.8,1.3Zm3.74,3.09c-.52-.55-1-1.17-1.54-1.83.49,0,1,0,1.49,0s1,0,1.54,0a22.83,22.83,0,0,1-1.49,1.84Zm5.19-5.75a23.63,23.63,0,0,1,.86,2.24,22.68,22.68,0,0,1-2.38.4c.26-.41.52-.85.78-1.29s.51-.9.74-1.35Zm-1.68.8c-.4.7-.81,1.35-1.22,2-.76.05-1.54.08-2.34.08s-1.56,0-2.3-.07c-.43-.63-.85-1.3-1.25-2h0c-.39-.68-.76-1.37-1.08-2.05.32-.69.69-1.37,1.08-2.06h0c.39-.68.81-1.34,1.23-2,.76-.06,1.54-.09,2.32-.09h0c.79,0,1.57,0,2.33.09.42.62.83,1.28,1.23,2s.76,1.37,1.09,2c-.33.68-.69,1.38-1.09,2.06ZM90,4c.86.49,1.19,2.48.65,5.08,0,.17-.07.34-.11.51a24.82,24.82,0,0,0-3.41-.54A25.58,25.58,0,0,0,85,6.39c.19-.19.39-.37.58-.54C87.42,4.22,89.17,3.57,90,4Zm-5.8,7.81a2.28,2.28,0,1,1-2.27,2.27,2.28,2.28,0,0,1,2.27-2.27Z"/></g></g></svg>