<svg xmlns="http://www.w3.org/2000/svg" width="935" height="302.5" viewBox="0 0 935 302.5"><style>.st0{fill:#ffffff}</style><g id="g10_1_" transform="matrix(1.33333 0 0 -1.33333 0 1333.333)"><g id="g12_1_" transform="scale(.1)"><path id="path16_1_" class="st0" d="M1134.3 7731.6H0v1068.7h2266.4c-33.8-596-527.8-1068.7-1132.1-1068.7"/><path id="path18_1_" class="st0" d="M1134.3 7731.6H0v1068.7h2266.4c-33.8-596-527.8-1068.7-1132.1-1068.7"/><path id="path20_1_" class="st0" d="M1134.3 10000H0V8931.2h2266.4c-33.8 595.9-527.8 1068.8-1132.1 1068.8"/><path id="path22_1_" class="st0" d="M2373 10000V8865.8c0-604.4 472.9-1098.5 1068.9-1132.3V10000H2373"/><path id="path24_1_" class="st0" d="M5880.2 7731.6c-604.2 0-1098.1 472.7-1132.2 1068.7h2264.5c-33.9-596-527.9-1068.7-1132.3-1068.7"/><path id="path26_1_" class="st0" d="M5880.2 7731.6c-604.2 0-1098.1 472.7-1132.2 1068.7h2264.5c-33.9-596-527.9-1068.7-1132.3-1068.7"/><path id="path28_1_" class="st0" d="M5880.2 10000c-604.2 0-1098.1-472.9-1132.2-1068.8h2264.5c-33.9 595.9-527.9 1068.8-1132.3 1068.8"/><path id="path30_1_" class="st0" d="M4639.3 7733.6H3572.6V10000h1068.9V8865.8c0-22-.8-43.7-2.1-65.5V7733.6"/><path id="path32_1_" class="st0" d="M4639.3 7733.6H3572.6V10000h1068.9V8865.8c0-22-.8-43.7-2.1-65.5V7733.6"/></g></g></svg>
