<?xml version="1.0" encoding="UTF-8" standalone="no"?>
<svg width="32px" height="32px" viewBox="0 0 32 32" version="1.1" xmlns="http://www.w3.org/2000/svg" xmlns:xlink="http://www.w3.org/1999/xlink" xmlns:sketch="http://www.bohemiancoding.com/sketch/ns">
    <!-- Generator: Sketch 3.4.2 (15855) - http://www.bohemiancoding.com/sketch -->
    <title>emptyprofile</title>
    <desc>Created with Sketch.</desc>
    <defs></defs>
    <g id="Page-1" stroke="none" stroke-width="1" fill="none" fill-rule="evenodd" sketch:type="MSPage">
        <g id="emptyprofile" sketch:type="MSArtboardGroup">
            <g id="1447943909_user_male2" sketch:type="MSLayerGroup" transform="translate(2.000000, 2.000000)">
                <circle id="Oval" stroke="#000000" sketch:type="MSShapeGroup" cx="14" cy="14" r="13.44"></circle>
                <rect id="Rectangle-path" sketch:type="MSShapeGroup" x="0" y="0" width="28" height="28"></rect>
                <path d="M16.76248,19.89568 C16.68072,18.99296 16.71208,18.36296 16.71208,17.53808 C17.12088,17.3236 17.85336,15.95608 17.97712,14.8008 C18.29856,14.77448 18.80536,14.46088 18.95376,13.22272 C19.03384,12.558 18.71576,12.18392 18.522,12.06632 C19.04504,10.49328 20.13144,5.62688 16.51272,5.124 C16.14032,4.46992 15.18664,4.13896 13.94736,4.13896 C8.98912,4.23024 8.39104,7.88312 9.478,12.06632 C9.2848,12.18392 8.96672,12.558 9.04624,13.22272 C9.1952,14.46088 9.70144,14.77448 10.02288,14.8008 C10.14608,15.95552 10.90768,17.3236 11.3176,17.53808 C11.3176,18.36296 11.3484,18.99296 11.26664,19.89568 C10.56048,21.79408 6.93392,21.94248 4.84176,23.77312 C7.02912,25.9756 10.57392,27.55088 14.31472,27.55088 C18.05552,27.55088 22.45264,24.59744 23.18456,23.7916 C21.10528,21.94416 17.47032,21.8008 16.76248,19.89568 L16.76248,19.89568 Z" id="Shape" fill="#000000" sketch:type="MSShapeGroup"></path>
            </g>
        </g>
    </g>
</svg>