<?xml version="1.0" encoding="UTF-8"?>
<svg width="313px" height="346px" viewBox="0 0 313 346" version="1.1" xmlns="http://www.w3.org/2000/svg" xmlns:xlink="http://www.w3.org/1999/xlink">
    <!-- Generator: Sketch 51.3 (57544) - http://www.bohemiancoding.com/sketch -->
    <title>freja-logo-white</title>
    <desc>Created with Sketch.</desc>
    <defs></defs>
    <g id="freja-logo-white" stroke="none" stroke-width="1" fill="none" fill-rule="evenodd">
        <g id="Group" fill="#FFFFFE">
            <path d="M220.165361,193 L145.755944,193 C128.218976,193 114,178.80385 114,161.295034 L114,84.6551464 C114,73.7129994 122.889452,64.8412681 133.849193,64.8412681 C144.808934,64.8412681 153.69493,73.7129994 153.69493,84.6551464 L153.69493,145.442551 C153.69493,149.821481 157.247946,153.368793 161.633916,153.368793 L220.165361,153.368793 C249.512305,153.368793 273.30507,129.617674 273.30507,100.31439 C273.30507,67.3499218 246.539938,40.6277565 213.522466,40.6277565 L197.64795,40.6277565 C186.684753,40.6277565 177.798756,31.7560252 177.798756,20.8138783 C177.798756,9.87173128 186.684753,1 197.64795,1 L213.522466,1 C268.462876,1 313,45.4656279 313,100.31439 C313,151.501968 271.435243,193 220.165361,193" id="Fill-1"></path>
            <path d="M154,20.0034453 C154,31.0490956 145.042976,40 133.998277,40 C122.953579,40 114,31.0490956 114,20.0034453 C114,8.9543497 122.953579,0 133.998277,0 C145.042976,0 154,8.9543497 154,20.0034453" id="Fill-2"></path>
            <path d="M38,133 C38,143.491711 29.4924857,152 19.0017306,152 C8.50751435,152 0,143.491711 0,133 C0,122.504828 8.50751435,114 19.0017306,114 C29.4924857,114 38,122.504828 38,133" id="Fill-3"></path>
            <path d="M38,217.501749 C38,227.717932 29.7171488,236 19.5,236 C9.2828512,236 1,227.717932 1,217.501749 C1,207.282068 9.2828512,199 19.5,199 C29.7171488,199 38,207.282068 38,217.501749" id="Fill-4"></path>
            <path d="M84,60.5 C84,71.2697311 75.2663034,80 64.4965723,80 C53.7268413,80 45,71.2697311 45,60.5 C45,49.7336966 53.7268413,41 64.4965723,41 C75.2663034,41 84,49.7336966 84,60.5" id="Fill-5"></path>
            <path d="M80,289.501723 C80,299.167471 72.1613507,307 62.5,307 C52.8352038,307 45,299.167471 45,289.501723 C45,279.835975 52.8352038,272 62.5,272 C72.1613507,272 80,279.835975 80,289.501723" id="Fill-6"></path>
            <path d="M312,289.501724 C312,296.9544 305.9544,303 298.501724,303 C291.0456,303 285,296.9544 285,289.501724 C285,282.0456 291.0456,276 298.501724,276 C305.9544,276 312,282.0456 312,289.501724" id="Fill-7"></path>
            <path d="M151,329.5 C151,338.614385 143.613605,346 134.498257,346 C125.386395,346 118,338.614385 118,329.5 C118,320.385615 125.386395,313 134.498257,313 C143.613605,313 151,320.385615 151,329.5" id="Fill-8"></path>
            <path d="M237,327.996582 C237,336.284347 230.285112,343 222.001709,343 C213.714888,343 207,336.284347 207,327.996582 C207,319.715653 213.714888,313 222.001709,313 C230.285112,313 237,319.715653 237,327.996582" id="Fill-9"></path>
        </g>
    </g>
</svg>