<?xml version="1.0" encoding="UTF-8" standalone="no"?>
<svg width="182px" height="68px" viewBox="0 0 182 68" version="1.1" xmlns="http://www.w3.org/2000/svg" xmlns:xlink="http://www.w3.org/1999/xlink" xmlns:sketch="http://www.bohemiancoding.com/sketch/ns">
    <!-- Generator: Sketch 3.4.2 (15855) - http://www.bohemiancoding.com/sketch -->
    <title>googleplay</title>
    <desc>Created with Sketch.</desc>
    <defs>
        <linearGradient x1="19.2147947%" y1="-35.1571758%" x2="69.3023416%" y2="93.5367562%" id="linearGradient-1">
            <stop stop-color="#19A3B4" offset="0%"></stop>
            <stop stop-color="#5BC3AF" offset="34.816763%"></stop>
            <stop stop-color="#C9F7A6" offset="92.2336229%"></stop>
            <stop stop-color="#D7FEA5" offset="100%"></stop>
        </linearGradient>
        <path id="path-2" d="M19.245074,9.6372494 L2.12909515,0.288169246 C1.6437801,0.0243995965 1.19616722,-0.0369607148 0.833584733,0.0754003747 L14.8531734,14.0010035 L19.245074,9.6372494"></path>
        <linearGradient x1="-14.698314%" y1="-114.321644%" x2="74.8444046%" y2="114.156353%" id="linearGradient-4">
            <stop stop-color="#FC227C" offset="0%"></stop>
            <stop stop-color="#FEEB7B" offset="100%"></stop>
        </linearGradient>
        <linearGradient x1="28.1511582%" y1="-14.8137139%" x2="48.1878808%" y2="82.8944571%" id="linearGradient-5">
            <stop stop-color="#0E4DA0" offset="0%"></stop>
            <stop stop-color="#6BFED4" offset="100%"></stop>
        </linearGradient>
        <path id="path-6" d="M0.83278256,0.0754003747 C0.312171871,0.237168468 -0.0247410561,0.760723332 -0.0247410561,1.55282917 L-0.0215323616,26.4826471 C-0.0215323616,27.2659871 0.304952308,27.7815731 0.810321698,27.9537008 L14.8531734,14.0033941 L0.83278256,0.0754003747"></path>
        <linearGradient x1="132.244588%" y1="16.465744%" x2="5.95853392%" y2="126.310354%" id="linearGradient-8">
            <stop stop-color="#FC472E" offset="0%"></stop>
            <stop stop-color="#FC472E" offset="0.331892433%"></stop>
            <stop stop-color="#893CD8" offset="100%"></stop>
        </linearGradient>
        <path id="path-9" d="M0.810321698,27.9537008 C1.1753107,28.0764214 1.6317475,28.0190455 2.12909515,27.7481039 L19.2651283,18.3862735 L14.8531734,14.0033941 L0.810321698,27.9537008"></path>
    </defs>
    <g id="Page-1" stroke="none" stroke-width="1" fill="none" fill-rule="evenodd" sketch:type="MSPage">
        <g id="googleplay" sketch:type="MSArtboardGroup">
            <g id="Rectangle-1-+-Google-Play-Icon-+-Imported-Layers-+-GET-IT-ON" sketch:type="MSLayerGroup" transform="translate(5.000000, 4.000000)">
                <g id="Rectangle-1-+-Google-Play-Icon-+-Imported-Layers">
                    <rect id="Rectangle-1" fill="#000000" sketch:type="MSShapeGroup" x="0" y="0" width="172" height="60" rx="10"></rect>
                    <g id="Google-Play-Icon" transform="translate(8.000000, 25.000000)">
                        <mask id="mask-3" sketch:name="Fill 1" fill="white">
                            <use xlink:href="#path-2"></use>
                        </mask>
                        <use id="Fill-1" fill="url(#linearGradient-1)" sketch:type="MSShapeGroup" xlink:href="#path-2"></use>
                        <path d="M19.2675349,18.3862735 L25.1105676,15.1947405 C26.2953781,14.5452774 26.2953781,13.488605 25.1105676,12.8407358 L19.2458762,9.6372494 L14.8531734,14.0010035 L19.2675349,18.3862735" id="Fill-2" fill="url(#linearGradient-4)" sketch:type="MSShapeGroup"></path>
                        <mask id="mask-7" sketch:name="Fill 3" fill="white">
                            <use xlink:href="#path-6"></use>
                        </mask>
                        <use id="Fill-3" fill="url(#linearGradient-5)" sketch:type="MSShapeGroup" xlink:href="#path-6"></use>
                        <mask id="mask-10" sketch:name="Fill 4" fill="white">
                            <use xlink:href="#path-9"></use>
                        </mask>
                        <use id="Fill-4" fill="url(#linearGradient-8)" sketch:type="MSShapeGroup" xlink:href="#path-9"></use>
                    </g>
                    <g id="Imported-Layers" transform="translate(40.000000, 28.000000)" fill="#FFFFFF" sketch:type="MSShapeGroup">
                        <path d="M77.1727707,17.2123056 L75.8877389,18.4391667 C75.5907643,18.6043056 75.2953822,18.7960278 75.0007962,18.9321667 C74.1082803,19.3421944 73.2006369,19.4453056 72.3941083,19.4453056 C71.535828,19.4453056 70.1902866,19.3889167 68.8176752,18.3843889 C66.910828,17.0254167 66.0772293,14.6893056 66.0772293,12.6536667 C66.0772293,8.439 69.4681529,6.37194444 72.2340764,6.37194444 C73.2006369,6.37194444 74.1934713,6.61683333 75.0007962,7.13319444 C76.3431529,8.03138889 76.6902866,9.19863889 76.8829618,9.82375 L70.566879,12.4055556 L68.4984076,12.5682778 C69.1679936,16.0241111 71.4785032,18.0339722 74.0318471,18.0339722 C75.3073248,18.0339722 76.2539809,17.6126667 77.1226115,17.1784722 C77.1226115,17.1784722 77.2969745,17.0866389 77.1727707,17.2123056 L77.1727707,17.2123056 Z M73.3622611,10.3385 C73.875,10.15 74.1417197,9.98727778 74.1417197,9.60866667 C74.1417197,8.52277778 72.9275478,7.26852778 71.4785032,7.26852778 C70.4052548,7.26852778 68.3901274,8.11436111 68.3901274,11.0514167 C68.3901274,11.5097778 68.4442675,11.9979444 68.4713376,12.4861111 L73.3622611,10.3385 L73.3622611,10.3385 Z" id="Fill-1"></path>
                        <path d="M63.9665605,17.0020556 C63.9665605,18.0581389 64.1528662,18.2224722 65.035828,18.3054444 C65.4960191,18.3602222 65.9546178,18.3843889 66.4084395,18.4391667 L65.4148089,19.0376944 L60.6799363,19.0376944 C61.3009554,18.2224722 61.4076433,18.1411111 61.4076433,17.5981667 L61.4076433,16.9915833 L61.397293,0.828916667 L59.3065287,0.828916667 L61.3192675,-0.15225 L65.1616242,-0.15225 C64.3288217,0.335916667 64.0796178,0.633166667 63.9729299,1.58452778 L63.9665605,17.0020556" id="Fill-2"></path>
                        <path d="M56.6234076,7.70594444 C57.2404459,8.21908333 58.5278662,9.30819444 58.5278662,11.3736389 C58.5278662,13.3867222 57.406051,14.3356667 56.2746815,15.2338611 C55.9275478,15.5875 55.5214968,15.9709444 55.5214968,16.5638333 C55.5214968,17.1655833 55.9275478,17.4918333 56.2197452,17.7351111 L57.1902866,18.4931389 C58.3702229,19.5008889 59.4458599,20.4248611 59.4458599,22.3018056 C59.4458599,24.8586389 57,27.4372222 52.3781847,27.4372222 C48.4848726,27.4372222 46.602707,25.5610833 46.602707,23.5496111 C46.602707,22.5708611 47.0843949,21.1845 48.6735669,20.23475 C50.339172,19.2044444 52.5955414,19.0666944 53.8041401,18.9861389 C53.4267516,18.4931389 52.9960191,17.9767778 52.9960191,17.1341667 C52.9960191,16.6733889 53.1329618,16.3986944 53.2651274,16.0748611 C52.9713376,16.1030556 52.6751592,16.1320556 52.406051,16.1320556 C49.5565287,16.1320556 47.9458599,13.9812222 47.9458599,11.8618056 C47.9458599,10.6115833 48.5095541,9.22441667 49.6671975,8.21908333 C51.1990446,6.94308333 53.0254777,6.72316667 54.4769108,6.72316667 L60.013535,6.72316667 L58.2921975,7.70594444 L56.6234076,7.70594444 L56.6234076,7.70594444 Z M54.7197452,19.7739722 C54.4992038,19.7449722 54.3670382,19.7449722 54.1011146,19.7449722 C53.8574841,19.7449722 52.406051,19.7981389 51.2818471,20.1799722 C50.6871019,20.3998889 48.9681529,21.0499722 48.9681529,22.9808889 C48.9681529,24.9077778 50.8240446,26.2973611 53.6950637,26.2973611 C56.2746815,26.2973611 57.6441083,25.0463333 57.6441083,23.3619167 C57.6441083,21.9755556 56.7579618,21.2441111 54.7197452,19.7739722 L54.7197452,19.7739722 Z M55.4920382,14.60875 C56.1130573,13.9812222 56.1671975,13.1144444 56.1671975,12.62225 C56.1671975,10.6671667 55.0151274,7.62216667 52.7818471,7.62216667 C52.0851911,7.62216667 51.330414,7.97580556 50.9020701,8.52277778 C50.4474522,9.08908333 50.3113057,9.82375 50.3113057,10.5302222 C50.3113057,12.3507778 51.3606688,15.37 53.6687898,15.37 C54.3423567,15.37 55.066879,15.0389167 55.4920382,14.60875 L55.4920382,14.60875 Z" id="Fill-3"></path>
                        <path d="M39.9657643,19.3889167 C35.6950637,19.3889167 33.4100318,16.0241111 33.4100318,12.9775 C33.4100318,9.41775 36.2826433,6.37194444 40.3686306,6.37194444 C44.3184713,6.37194444 46.7921975,9.50072222 46.7921975,12.7857778 C46.7921975,15.9943056 44.3471338,19.3889167 39.9657643,19.3889167 L39.9657643,19.3889167 Z M43.3256369,17.18975 C43.9753185,16.31975 44.1329618,15.2338611 44.1329618,14.1753611 C44.1329618,11.78125 43.0055732,7.21536111 39.6735669,7.21536111 C38.7874204,7.21536111 37.8949045,7.56577778 37.2515924,8.13772222 C36.2022293,9.08908333 36.0151274,10.2845278 36.0151274,11.4574167 C36.0151274,14.1431389 37.3272293,18.5728889 40.5835987,18.5728889 C41.6345541,18.5728889 42.7070064,18.0581389 43.3256369,17.18975 L43.3256369,17.18975 Z" id="Fill-4"></path>
                        <path d="M25.6671975,19.3889167 C21.3957006,19.3889167 19.1146497,16.0241111 19.1146497,12.9775 C19.1146497,9.41775 21.9880573,6.37194444 26.0724522,6.37194444 C30.0199045,6.37194444 32.491242,9.50072222 32.491242,12.7857778 C32.491242,15.9943056 30.0493631,19.3889167 25.6671975,19.3889167 L25.6671975,19.3889167 Z M29.0278662,17.18975 C29.6727707,16.31975 29.8335987,15.2338611 29.8335987,14.1753611 C29.8335987,11.78125 28.7030255,7.21536111 25.3742038,7.21536111 C24.4848726,7.21536111 23.6019108,7.56577778 22.9570064,8.13772222 C21.906051,9.08908333 21.7197452,10.2845278 21.7197452,11.4574167 C21.7197452,14.1431389 23.0374204,18.5728889 26.2882166,18.5728889 C27.3367834,18.5728889 28.4076433,18.0581389 29.0278662,17.18975 L29.0278662,17.18975 Z" id="Fill-5"></path>
                        <path d="M17.4068471,18.4456111 L13.8049363,19.2801667 C12.3455414,19.5129722 11.0350318,19.7175833 9.64729299,19.7175833 C2.69984076,19.7175833 0.0525477707,14.5435 0.0525477707,10.4939722 C0.0525477707,5.54866667 3.80334395,0.963444444 10.2269108,0.963444444 C11.5859873,0.963444444 12.8933121,1.16563889 14.0843949,1.49430556 C15.9721338,2.03080556 16.8550955,2.69216667 17.4068471,3.07963889 L15.3144904,5.09030556 L14.4323248,5.29008333 L15.0613057,4.27588889 C14.2093949,3.43408333 12.6433121,1.88016667 9.67117834,1.88016667 C5.69745223,1.88016667 2.69984076,4.93644444 2.69984076,9.39841667 C2.69984076,14.1906667 6.12261146,18.6985556 11.6122611,18.6985556 C13.2253185,18.6985556 14.0557325,18.3706944 14.8097134,18.0645833 L14.8097134,13.95625 L11.0063694,14.1632778 L13.022293,13.0677222 L18.3598726,13.0677222 L17.7070064,13.7033056 C17.531051,13.85475 17.5071656,13.9063056 17.4578025,14.1093056 C17.4315287,14.3413056 17.4068471,15.0791944 17.4068471,15.3385833 L17.4068471,18.4456111" id="Fill-6"></path>
                        <path d="M84.9171975,17.3283056 L84.9171975,24.2520556 L83.558121,24.2520556 L83.558121,6.63375 L84.9171975,6.63375 L84.9171975,8.64038889 C85.8025478,7.34344444 87.4203822,6.31555556 89.2993631,6.31555556 C92.669586,6.31555556 94.9394904,8.90219444 94.9394904,12.9968333 C94.9394904,17.0640833 92.669586,19.7046944 89.2993631,19.7046944 C87.5254777,19.7046944 85.9363057,18.7791111 84.9171975,17.3283056 L84.9171975,17.3283056 Z M93.4792994,12.9968333 C93.4792994,9.91075 91.8893312,7.55691667 89.0700637,7.55691667 C87.3192675,7.55691667 85.6449045,8.94891667 84.9171975,10.1628889 L84.9171975,15.8025833 C85.6449045,17.0189722 87.3192675,18.4617222 89.0700637,18.4617222 C91.8893312,18.4617222 93.4792994,16.08775 93.4792994,12.9968333 L93.4792994,12.9968333 Z" id="Fill-7"></path>
                        <path d="M96.7953822,1.769 L98.1536624,1.769 L98.1536624,19.3873056 L96.7953822,19.3873056 L96.7953822,1.769 Z" id="Fill-8"></path>
                        <path d="M113.403662,23.113 C113.694268,23.2443056 114.190287,23.3248611 114.504777,23.3248611 C115.335987,23.3248611 115.914809,22.9808889 116.434713,21.7661111 L117.425955,19.4936389 L112.072452,6.63375 L113.588376,6.63375 L118.180732,17.7778056 L122.728503,6.63375 L124.265924,6.63375 L117.736465,22.19225 C117.058917,23.7953056 115.992834,24.5662222 114.528662,24.5662222 C114.089172,24.5662222 113.509554,24.4872778 113.170382,24.38175 L113.403662,23.113" id="Fill-9"></path>
                        <path d="M109.433917,19.3494444 C109.343153,18.9071944 109.274682,18.5173056 109.224522,18.1918611 C109.183121,17.8672222 109.159236,17.5353333 109.159236,17.1978056 C108.693471,17.8897778 108.033439,18.46575 107.190287,18.9192778 C106.346338,19.3760278 105.544586,19.5999722 104.445064,19.5999722 C103.121019,19.5999722 102.093153,19.2705 101.359873,18.6018889 C100.628981,17.9340833 100.261146,17.0294444 100.261146,15.88475 C100.261146,14.7416667 100.79379,13.8136667 101.855892,13.1039722 C102.917994,12.3910556 104.290605,12.0366111 105.98965,12.0366111 L109.159236,12.0366111 L109.159236,10.4520833 C109.159236,9.53938889 108.851911,8.82163889 108.238057,8.30125 C107.621815,7.78005556 106.757166,7.51663889 105.636146,7.51663889 C104.611465,7.51663889 103.780255,7.7575 103.147293,8.22633333 C102.519904,8.70483333 102.203822,9.29772222 102.203822,10.01225 L100.812898,10.01225 L100.784236,9.94377778 C100.734076,8.98033333 101.169586,8.13530556 102.095541,7.40547222 C103.017516,6.67644444 104.225318,6.30991667 105.711783,6.30991667 C107.193471,6.30991667 108.392516,6.67080556 109.296178,7.39097222 C110.199045,8.10388889 110.65207,9.13419444 110.65207,10.4810833 L110.65207,16.7724722 C110.65207,17.2243889 110.673567,17.661 110.729299,18.0863333 C110.786624,18.5124722 110.878185,18.9378056 111,19.3494444 L109.433917,19.3494444 L109.433917,19.3494444 Z M104.611465,18.3473333 C105.765924,18.3473333 106.595541,18.0863333 107.443471,17.5699722 C108.285828,17.0568333 108.859076,16.3874167 109.159236,15.5770278 L109.159236,13.1281389 L105.974522,13.1281389 C104.757962,13.1281389 103.750796,13.4004167 102.958599,13.9498056 C102.164809,14.4975833 101.762739,15.1605556 101.762739,15.9314722 C101.762739,16.6588889 102.017516,17.2405 102.523885,17.6811389 C103.031847,18.1266111 103.726115,18.3473333 104.611465,18.3473333 L104.611465,18.3473333 Z" id="Fill-10"></path>
                    </g>
                </g>
                <path d="M61.5361328,13.1855469 L61.5361328,11.9824219 L57.5371094,11.9824219 L57.5371094,13.0625 L60.3125,13.0625 L60.3125,13.3017578 C60.3125,14.9697266 59.1162109,16.0976562 57.3525391,16.0976562 C55.3701172,16.0976562 54.1396484,14.5527344 54.1396484,12.0644531 C54.1396484,9.61035156 55.390625,8.03808594 57.3457031,8.03808594 C58.8085938,8.03808594 59.7998047,8.7421875 60.2236328,10.0751953 L61.4746094,10.0751953 C61.1191406,8.12011719 59.5332031,6.90332031 57.3457031,6.90332031 C54.6455078,6.90332031 52.875,8.94726562 52.875,12.0644531 C52.875,15.2226562 54.6181641,17.2324219 57.3457031,17.2324219 C59.8681641,17.2324219 61.5361328,15.6191406 61.5361328,13.1855469 L61.5361328,13.1855469 Z M69.6708984,15.8925781 L64.7900391,15.8925781 L64.7900391,12.5019531 L69.4179688,12.5019531 L69.4179688,11.4082031 L64.7900391,11.4082031 L64.7900391,8.24316406 L69.6708984,8.24316406 L69.6708984,7.13574219 L63.5595703,7.13574219 L63.5595703,17 L69.6708984,17 L69.6708984,15.8925781 Z M75.5429688,17 L75.5429688,8.24316406 L78.7216797,8.24316406 L78.7216797,7.13574219 L71.1337891,7.13574219 L71.1337891,8.24316406 L74.3125,8.24316406 L74.3125,17 L75.5429688,17 Z M85.5029297,17 L85.5029297,7.13574219 L84.2724609,7.13574219 L84.2724609,17 L85.5029297,17 Z M91.6621094,17 L91.6621094,8.24316406 L94.8408203,8.24316406 L94.8408203,7.13574219 L87.2529297,7.13574219 L87.2529297,8.24316406 L90.4316406,8.24316406 L90.4316406,17 L91.6621094,17 Z M104.541016,6.90332031 C101.751953,6.90332031 100.008789,8.89257812 100.008789,12.0644531 C100.008789,15.2226562 101.710938,17.2324219 104.541016,17.2324219 C107.357422,17.2324219 109.052734,15.2158203 109.052734,12.0644531 C109.052734,8.89941406 107.34375,6.90332031 104.541016,6.90332031 L104.541016,6.90332031 Z M104.541016,8.03808594 C106.557617,8.03808594 107.788086,9.59667969 107.788086,12.0644531 C107.788086,14.5117188 106.564453,16.0976562 104.541016,16.0976562 C102.490234,16.0976562 101.273438,14.5117188 101.273438,12.0644531 C101.273438,9.59667969 102.53125,8.03808594 104.541016,8.03808594 L104.541016,8.03808594 Z M112.251953,17 L112.251953,9.35058594 L112.361328,9.35058594 L117.713867,17 L118.910156,17 L118.910156,7.13574219 L117.693359,7.13574219 L117.693359,14.8125 L117.583984,14.8125 L112.231445,7.13574219 L111.035156,7.13574219 L111.035156,17 L112.251953,17 Z" id="GET-IT-ON" fill="#FFFFFF" sketch:type="MSShapeGroup"></path>
            </g>
        </g>
    </g>
</svg>