<svg id="Lager_1" data-name="Lager 1" xmlns="http://www.w3.org/2000/svg" viewBox="0 0 256 262"><defs><style>.cls-1{fill:#fff;}</style></defs><title>Rityta 1</title><path class="cls-1" d="M253.12,106.76H130.55v48.45H202.5c-1.45,12-9.29,30.17-26.69,42.36-11,7.68-25.82,13.05-45.26,13.05-34.52,0-63.82-22.77-74.27-54.25a80.53,80.53,0,0,1-4.35-25.82,84.49,84.49,0,0,1,4.21-25.82C66.73,73.25,96,50.48,130.55,50.48c24.51,0,41,10.59,50.48,19.44l36.84-36C195.24,12.91,165.8,0,130.55,0a130.55,130.55,0,0,0,0,261.1c35.25,0,64.84-11.61,86.45-31.62,24.66-22.78,38.88-56.28,38.88-96A111.61,111.61,0,0,0,253.12,106.76Z"/></svg>
