<?xml version="1.0" encoding="UTF-8" standalone="no"?>
<svg width="128px" height="128px" viewBox="0 0 128 128" version="1.1" xmlns="http://www.w3.org/2000/svg" xmlns:xlink="http://www.w3.org/1999/xlink" xmlns:sketch="http://www.bohemiancoding.com/sketch/ns">
    <!-- Generator: Sketch 3.5.2 (25235) - http://www.bohemiancoding.com/sketch -->
    <title>ipad</title>
    <desc>Created with Sketch.</desc>
    <defs></defs>
    <g id="Page-1" stroke="none" stroke-width="1" fill="none" fill-rule="evenodd" sketch:type="MSPage">
        <g id="ipad" sketch:type="MSArtboardGroup" fill="#33B3A8">
            <path d="M98.0899319,35.1998889 L98.0910891,23.2264803 C98.0910891,19.9898297 96.1215577,17.2125822 93.3153804,16.0276232 C92.3803738,15.6318654 91.351635,15.412 90.2708228,15.412 L63.7365367,15.4131572 L37.1501772,15.412 C36.0705222,15.412 35.0417834,15.6307082 34.1056195,16.0276232 C31.2994423,17.2125822 29.3299109,19.9886726 29.3310681,23.2264803 L29.3322253,35.1998889 L29.3391684,35.1998889 L29.3299109,104.598677 C29.3299109,108.911511 32.8257713,112.408528 37.1386053,112.408528 L50.8732517,112.409686 C50.8720945,112.410843 50.8720945,112.410843 50.8709373,112.412 L63.7272792,112.410843 L76.5500626,112.412 C76.5489054,112.410843 76.5489054,112.410843 76.5477483,112.409686 L90.2823947,112.408528 C94.5952287,112.408528 98.0922463,108.911511 98.0910891,104.598677 L98.0829888,35.1987317 L98.0899319,35.1987317 L98.0899319,35.1998889 Z M67.492764,108.35259 L59.9293931,108.35259 C58.8069222,108.35259 57.8973737,107.443041 57.8973737,106.32057 C57.8973737,105.927127 58.0107779,105.561456 58.2040281,105.250173 C58.2861883,105.117096 58.3822348,104.993277 58.4921675,104.883345 C58.8601528,104.515359 59.3681577,104.288551 59.9293931,104.288551 L67.492764,104.288551 C68.2646074,104.288551 68.9357756,104.719024 69.2794599,105.352005 C69.4356801,105.640145 69.5247835,105.969943 69.5247835,106.32057 C69.5247835,106.671198 69.4356801,107.000996 69.2794599,107.289135 C68.9357756,107.922116 68.2646074,108.35259 67.492764,108.35259 L67.492764,108.35259 Z M93.0862575,97.7747481 C93.0862575,99.1541144 91.9684154,100.271957 90.5890491,100.271957 L73.1051185,100.271957 L36.8319509,100.271957 C35.4525846,100.271957 34.3347424,99.1541144 34.3347424,97.7747481 L34.3347424,35.1998889 L34.3347424,35.1998889 L34.3347424,28.4442342 C34.3347424,27.5254281 34.8323326,26.7246551 35.5717748,26.2907102 C35.8726433,26.1148178 36.2116989,25.9967848 36.5762127,25.9597548 C36.6595301,25.9516545 36.7451619,25.9470258 36.8319509,25.9470258 L90.5890491,25.9470258 C91.0843249,25.9470258 91.5448851,26.0928313 91.9336998,26.3427835 C92.6256973,26.7871432 93.0862575,27.5613009 93.0862575,28.4442342 L93.0862575,35.1998889 L93.0862575,35.1998889 L93.0862575,97.7747481 L93.0862575,97.7747481 Z M85.2717772,59.3422706 L85.2717772,64.5496098 C85.2717772,65.7160537 84.3263558,66.6614751 83.161069,66.6614751 L81.7006997,66.6614751 C80.7888367,69.6342872 79.0113983,72.2969733 76.6160223,74.4273536 L76.6194938,74.4250392 C76.6067648,74.4354539 76.5963501,74.4447114 76.583621,74.4551261 C76.4945177,74.5349719 76.4031,74.6125034 76.3116822,74.6911921 C74.1651013,76.6364226 73.9695368,78.9114512 73.9556505,79.4842585 L73.9556505,81.2073092 C73.9556505,81.839133 73.4441741,82.3506095 72.8123503,82.3506095 L65.8403017,82.3506095 C65.2084779,82.3506095 64.6970015,81.839133 64.6970015,81.2073092 L64.6970015,79.5641044 C63.9008572,79.6474218 63.0896694,79.6925521 62.268067,79.6925521 C61.2150273,79.6925521 60.1816598,79.6219637 59.1725932,79.4854157 L59.1725932,81.2073092 C59.1725932,81.839133 58.6611167,82.3506095 58.0292929,82.3506095 L51.0560872,82.3506095 C50.4508786,82.3506095 49.95676,81.8796346 49.9174157,81.2848407 L49.9162585,81.2859979 C49.9162585,81.2859979 49.9162585,81.2825263 49.9174157,81.274426 C49.9162585,81.2524395 49.9139441,81.2304529 49.9139441,81.2073092 L49.9139441,80.6877325 C49.8607135,79.4831014 49.4869423,76.6838672 47.2940739,74.4261964 C45.7839455,72.8709378 44.6776753,70.954637 43.9197181,69.3172181 C43.3445964,68.2016903 42.9002368,67.0248316 42.6005255,65.8005283 C42.591268,65.7658128 42.5854821,65.7461406 42.5854821,65.7461406 L42.5866393,65.7472978 C42.3019714,64.5669676 42.15038,63.3438214 42.15038,62.0882741 C42.15038,52.3667504 51.1579196,44.4851533 62.268067,44.4851533 C64.6703862,44.4851533 66.9743445,44.8542958 69.1105107,45.5300927 C70.098748,44.0650946 72.0057913,42.3061711 75.5745544,41.8618115 C76.6333801,41.7298923 77.3658791,42.88245 76.8000149,43.7850554 C75.9922987,45.073004 75.3014584,46.8735862 75.8603795,48.839646 C75.8904663,48.94495 75.9055098,49.0490968 75.9089813,49.149772 C78.5797677,51.3067676 80.5805432,54.0874867 81.609282,57.229248 L81.6115963,57.229248 L83.1587547,57.229248 C84.3263558,57.2304052 85.2717772,58.1758266 85.2717772,59.3422706 L85.2717772,59.3422706 Z" id="Shape" sketch:type="MSShapeGroup"></path>
        </g>
    </g>
</svg>