<svg xmlns="http://www.w3.org/2000/svg" viewBox="0 0 92 92"><defs><style>.cls-1{fill:#f5f6f8;}.cls-2{fill:#2b303c;}</style></defs><title>login-symbol-netid</title><g id="Lager_2" data-name="Lager 2"><g id="Layer_3" data-name="Layer 3"><circle class="cls-1" cx="46" cy="46" r="46"/><path class="cls-2" d="M27.3,43.21c0-3.52,0-7,0-10.52a8.81,8.81,0,0,1,9-8.93c7.13,0,14.22,0,21.34,0a8.76,8.76,0,0,1,8.93,8.93c0,7.13,0,14.22,0,21.34A8.76,8.76,0,0,1,57.6,63c-7.12,0-14.21,0-21.34,0A8.76,8.76,0,0,1,27.33,54C27.27,50.43,27.3,46.82,27.3,43.21Zm37.88.27c0-3.36,0-6.7,0-10.07A8,8,0,0,0,57,25.09q-10.05-.09-20.11,0a7.93,7.93,0,0,0-8.2,8.32q0,9.93,0,19.84c0,5,3.33,8.36,8.26,8.39q10,.09,20,0c4.93,0,8.24-3.43,8.27-8.39C65.18,50,65.18,46.73,65.18,43.48Z"/><path class="cls-2" d="M47.11,55.42h-.75c-3.82.24-3.43-1-3.37-3.82a1.61,1.61,0,0,1,1.75-1.69c1.11,0,2.19,0,3.3,0C52,49.76,54.9,47,54.93,43.39S52.07,37,48.1,36.87c-1.11,0-2.19,0-3.3,0A1.72,1.72,0,0,1,43,35c0-.7,0-1.42,0-2.11a1.55,1.55,0,0,1,1.63-1.62,35.75,35.75,0,0,1,5.68.15A12,12,0,0,1,60.37,44.38a12.16,12.16,0,0,1-12.06,11Z"/><path class="cls-2" d="M40.2,47.57c0,1.86,0,3.7,0,5.56,0,1.68-.57,2.19-2.29,2.26-3.57.09-3.75-.1-3.75-3.64,0-3.31,0-6.61,0-9.92,0-1.89.51-2.35,2.43-2.38H38.1c1.5.06,2.07.58,2.07,2.11C40.23,43.57,40.2,45.59,40.2,47.57Z"/><path class="cls-2" d="M37.07,31.31c2.62,0,3,.33,3,2.7,0,2.53-.36,2.86-3,2.86s-2.94-.42-2.94-2.8S34.55,31.31,37.07,31.31Z"/></g></g></svg>