<svg xmlns="http://www.w3.org/2000/svg" viewBox="0 0 92 92"><defs><style>.cls-1{fill:#f5f6f8;}.cls-2{fill:#459abd;}.cls-3{fill:#235a72;}</style></defs><title>login-symbol-bankid</title><g id="Lager_2" data-name="Lager 2"><g id="Layer_3" data-name="Layer 3"><circle class="cls-1" cx="46" cy="46" r="46"/><g id="Page-1"><g id="logo-bankid"><g id="logo1-default"><path id="Shape" class="cls-2" d="M38.46,43.84l1.68-10.77H38.3A2.53,2.53,0,0,1,36,31.73c-.11-.31-.34-1.34,1.08-2.34a1.94,1.94,0,0,0,.88-1,.82.82,0,0,0-.23-.81,2.54,2.54,0,0,0-1.65-.46,2.29,2.29,0,0,0-2.3,1.31c-.08.42.27.72.54.92a1.68,1.68,0,0,1,.49,2.33A3.36,3.36,0,0,1,32,33.07H30.1c-.15,1-2.68,17.14-2.87,18.4H37.34C37.38,50.93,37.84,47.87,38.46,43.84Z"/><path class="cls-3" d="M52,23.64H41.71l-1.38,8.7H42.1a2.64,2.64,0,0,0,2.26-1.07,1.17,1.17,0,0,0,.19-.54,1,1,0,0,0-.5-.8,1.67,1.67,0,0,1-.8-1.42v-.19a3,3,0,0,1,3-1.92,3.13,3.13,0,0,1,2.19.66,1.6,1.6,0,0,1,.46,1.45A2.9,2.9,0,0,1,47.73,30c-1,.69-.88,1.3-.8,1.49a1.77,1.77,0,0,0,1.61.88h2.68c3.64,0,5.6,1.69,4.94,5.6-.57,3.6-3.33,5.17-6.63,5.21l-1.38,8.32h1.92c8.16,0,14.79-5.25,16.14-13.49C67.85,27.75,61.34,23.64,52,23.64Z"/><g id="Group"><path class="cls-3" d="M26.65,55.19h4.14c1.76,0,2.18.88,2.07,1.72a1.92,1.92,0,0,1-1.34,1.46c1,.38,1.38,1,1.22,1.88a2.42,2.42,0,0,1-2.49,2H25.54Zm2.72,3a1.13,1.13,0,0,0,1.27-.92c.07-.54-.16-.92-1-.92H29l-.31,1.84Zm-.46,3.07c.85,0,1.3-.35,1.42-1s-.23-1-1-1h-.81l-.31,2Z"/><path class="cls-3" d="M38.49,62.32c-1.07.07-1.61,0-1.84-.5a3.58,3.58,0,0,1-1.87.54c-1.23,0-1.65-.62-1.54-1.35a1.37,1.37,0,0,1,.58-.92c.65-.57,2.34-.65,3-1.11,0-.5-.16-.69-.77-.69a4,4,0,0,0-2.34.92l.23-1.61a4.34,4.34,0,0,1,2.72-.92c1.27,0,2.38.5,2.15,1.88l-.23,1.57c-.08.54-.08.73.54.73ZM36.65,59.9c-.57.35-1.64.31-1.76,1a.5.5,0,0,0,.5.61,1.91,1.91,0,0,0,1.07-.38,1.16,1.16,0,0,1,0-.5Z"/><path class="cls-3" d="M40.53,56.8h2.14l-.11.73a2.71,2.71,0,0,1,1.88-.81c1.18,0,1.76.73,1.57,2l-.58,3.6H43.29l.46-3c.07-.54-.08-.81-.5-.81a1.26,1.26,0,0,0-1,.58l-.5,3.18H39.64Z"/><polygon class="cls-3" points="47.69 55.19 49.84 55.19 49.3 58.68 51.37 56.8 54.02 56.8 51.37 59.14 53.48 62.28 50.76 62.28 49.11 59.75 49.07 59.75 48.69 62.28 46.54 62.28 47.69 55.19"/><path class="cls-3" d="M26.65,55.19h4.14c1.76,0,2.18.88,2.07,1.72a1.92,1.92,0,0,1-1.34,1.46c1,.38,1.38,1,1.22,1.88a2.42,2.42,0,0,1-2.49,2H25.54Zm2.72,3a1.13,1.13,0,0,0,1.27-.92c.07-.54-.16-.92-1-.92H29l-.31,1.84Zm-.46,3.07c.85,0,1.3-.35,1.42-1s-.23-1-1-1h-.81l-.31,2Z"/><path class="cls-3" d="M38.49,62.32c-1.07.07-1.61,0-1.84-.5a3.58,3.58,0,0,1-1.87.54c-1.23,0-1.65-.62-1.54-1.35a1.37,1.37,0,0,1,.58-.92c.65-.57,2.34-.65,3-1.11,0-.5-.16-.69-.77-.69a4,4,0,0,0-2.34.92l.23-1.61a4.34,4.34,0,0,1,2.72-.92c1.27,0,2.38.5,2.15,1.88l-.23,1.57c-.08.54-.08.73.54.73ZM36.65,59.9c-.57.35-1.64.31-1.76,1a.5.5,0,0,0,.5.61,1.91,1.91,0,0,0,1.07-.38,1.16,1.16,0,0,1,0-.5Z"/><path class="cls-3" d="M40.53,56.8h2.14l-.11.73a2.71,2.71,0,0,1,1.88-.81c1.18,0,1.76.73,1.57,2l-.58,3.6H43.29l.46-3c.07-.54-.08-.81-.5-.81a1.26,1.26,0,0,0-1,.58l-.5,3.18H39.64Z"/><polygon class="cls-3" points="47.69 55.19 49.84 55.19 49.3 58.68 51.37 56.8 54.02 56.8 51.37 59.14 53.48 62.28 50.76 62.28 49.11 59.75 49.07 59.75 48.69 62.28 46.54 62.28 47.69 55.19"/></g><polygon class="cls-2" points="55.28 55.19 57.77 55.19 56.66 62.24 54.17 62.24 55.28 55.19"/><path class="cls-2" d="M59,55.19h3.53a3,3,0,0,1,3.26,3.64,3.93,3.93,0,0,1-3.91,3.45h-4Zm2.3,5.4a1.89,1.89,0,0,0,2.07-1.84c.15-.92-.15-1.84-1.46-1.84h-.69l-.57,3.72Z"/></g></g></g></g></g></svg>