<svg id="Layer_1" data-name="Layer 1" xmlns="http://www.w3.org/2000/svg" xmlns:xlink="http://www.w3.org/1999/xlink" width="38.75mm" height="38.75mm" viewBox="0 0 109.85 109.85"><defs><linearGradient id="linear-gradient" x1="60.98" y1="84.44" x2="51.12" y2="35.93" gradientUnits="userSpaceOnUse"><stop offset="0" stop-color="#fff"/><stop offset="1" stop-color="#646e85"/></linearGradient></defs><g opacity="0.1"><path d="M26.91,70.54H12.72c-3.18,0-1.44-5,3.72-5.23s5.92-11.5.08-15S13.25,31.11,19,29.28s5.84-6,12.75-9.43,14.3,7.79,23.57,5.26S62.1,14.81,70.5,14.63s22.26,8.06,25,24.9S92.31,59,97.84,62.42s15.35,8.12-10.65,8.12Z" fill="url(#linear-gradient)"/></g><rect x="18.89" y="33.91" width="76.54" height="37.34" rx="5.67" transform="translate(4.32 109.49) rotate(-89.74)" fill="#2b303c"/><path d="M70.15,16.65l-5,0a1.25,1.25,0,0,0-1.23,1.27v.92a1.25,1.25,0,0,1-1.23,1.27l-9.83,0a1.25,1.25,0,0,1-1.22-1.29v-.91a1.25,1.25,0,0,0-1.22-1.29H48.61l-4.41,0a4,4,0,0,0-4,3.95l-.27,63.65a4,4,0,0,0,4,4l26,.12a4,4,0,0,0,4-3.95l.27-63.65A4,4,0,0,0,70.15,16.65Z" fill="#fff"/><path d="M55.6,82.22a.54.54,0,1,1-1.07,0,.54.54,0,0,1,.53-.56A.55.55,0,0,1,55.6,82.22Z" fill="#455a64"/><path d="M57.26,82.23a.56.56,0,0,1-.54.57.58.58,0,0,1,0-1.15A.57.57,0,0,1,57.26,82.23Z" fill="#455a64"/><path d="M58.92,82.24a.55.55,0,0,1-.54.56.54.54,0,0,1-.53-.57.55.55,0,0,1,.53-.57A.56.56,0,0,1,58.92,82.24Z" fill="#455a64"/><path d="M83,32.54H48.32A2.43,2.43,0,0,0,45.89,35V53.89a2.42,2.42,0,0,0,2.43,2.42H69.16v7.43l7.43-7.43H83a2.42,2.42,0,0,0,2.42-2.42V35A2.43,2.43,0,0,0,83,32.54Z" fill="#48a69e"/><rect x="52.59" y="41.33" width="20.98" height="1.78" rx="0.18" fill="#fff"/><rect x="52.61" y="45.54" width="28.26" height="1.78" rx="0.21" fill="#fff"/><path d="M35.55,56.37l-.06,0h0c-.21,0-3.5-.36-5.31-.42l.28-1.68.33-2v-.06a27,27,0,0,0,4.08.76c.39-.16,5.78-3.48,6.18-3.56h0a4.09,4.09,0,0,1,1,1.13l0,.06A45.43,45.43,0,0,1,35.55,56.37Z" fill="#845c4f"/><path d="M42.7,50.36l-.61.3a45.43,45.43,0,0,1-6.54,5.71l-.06,0h0c-.21,0-3.5-.36-5.31-.42l.28-1.68.33-2a12.68,12.68,0,0,0,2.39,2.76,26.34,26.34,0,0,0,2.94.26c.87,0,5.44-4.39,5.44-4.39l-.37-.38a1.53,1.53,0,0,0,.59.09l.32-.07a1.73,1.73,0,0,0,.34-.14,1.48,1.48,0,0,1,.32-.11Z" fill="#755143"/><path d="M41,49.19a1.26,1.26,0,0,0-.11,1,1.22,1.22,0,0,0,.77.55,1.57,1.57,0,0,0,1.67-1.1c.22-.78-.66-.94-1-1.17s1.16-1.22,1-1.63-1.25.65-2,1.76C41.21,48.83,41.09,49,41,49.19Z" fill="#845c4f"/><path d="M25.56,48.26c-.53,0-.55.42-1.12.34s-1.24.12-1.79,0-.18-1.83.4-2.16S25.56,48.26,25.56,48.26Z" fill="#1e272b"/><path d="M24.8,47.43A1.06,1.06,0,0,0,26,48.51c.41,0,.82-.32,1.2-.16s.48.52.81.55a.76.76,0,0,0,.51-.2l.45-.3.42-.28a2.53,2.53,0,0,0,1-1,1.19,1.19,0,0,0-.35-1.4,1.17,1.17,0,0,0-.27-.15,1.39,1.39,0,0,1-.64-.47c-.27-.49.23-1.19-.1-1.64s-.74-.32-1-.63a1.49,1.49,0,0,1-.11-.94,2.5,2.5,0,0,0-.34-1.41s-2.72.44-2.86,2.78A23.2,23.2,0,0,0,24.8,47.43Z" fill="#1e272b"/><path d="M26.14,81.47l1.75,8.58.68,3.35h0a5.59,5.59,0,0,0,1.1.48.79.79,0,0,0,.42,0h0a1.49,1.49,0,0,0,.54-.35.54.54,0,0,0,.12-.38v0c0-.21,0-1.41,0-2.54v-.78c0-1.2,0-3.38,0-5.19,0-1.65,0-3,0-3l-1.69-.06Z" fill="#755143"/><path d="M29.32,89.82a19,19,0,0,0,.77,4.09h0a1.49,1.49,0,0,0,.54-.35.54.54,0,0,0,.12-.38v0c0-.21,0-1.41,0-2.54v-.78c0-1.2,0-3.38,0-5.19A8.47,8.47,0,0,0,29.32,89.82Z" fill="#845c4f"/><path d="M27.89,90.05l.68,3.35h0a5.59,5.59,0,0,0,1.1.48.79.79,0,0,0,.42,0h0a1.49,1.49,0,0,0,.54-.35.54.54,0,0,0,.12-.38v0c0-.21,0-1.41,0-2.54v-.78a7.91,7.91,0,0,1-1.31.19h-.09C28.8,90.05,28.27,90.05,27.89,90.05Z" fill="#e8e8e8"/><path d="M29.33,90a19.46,19.46,0,0,0,.76,3.9h0a1.49,1.49,0,0,0,.54-.35.54.54,0,0,0,.12-.38v0c0-.21,0-1.41,0-2.54v-.78a7.91,7.91,0,0,1-1.31.19Z" fill="#fff"/><path d="M28.7,97a1.08,1.08,0,0,0,.08.19h0a.31.31,0,0,0,.07.09.64.64,0,0,0,.54.08l2.34-.41.38-.07.37-.06.67-.13c.33-.06.65-.13,1-.21a4.39,4.39,0,0,0,1.66-.79.23.23,0,0,0,.08-.11.2.2,0,0,0,0-.15,1.43,1.43,0,0,0-.14-.2,1.69,1.69,0,0,0-.55-.4L35,94.73a5.07,5.07,0,0,0-1.08-.23l-.62-.09h-.12l-.48-.07-.11,0-.37,0-.3,0-.11,0a2,2,0,0,1-.41-.13.55.55,0,0,1-.17-.21l-.06-.13h0c-.13-.31-.23-.68-.36-.56l0,0a2.56,2.56,0,0,1-1.12.21c-.53,0-1,0-1.06,0h0c0,.1,0,.2,0,.3,0,.31-.07.61-.1.91A6,6,0,0,0,28.7,97Z" fill="#d55ba0"/><path d="M31.11,93.75c-.12.37-.27.73-.42,1.09,0,.07.07.12.1.06.16-.37.3-.74.43-1.12a.06.06,0,0,0-.11,0Z" fill="#2b303c"/><path d="M31.83,94a4.93,4.93,0,0,0-.29,1.37c0,.08.11.07.11,0A4.86,4.86,0,0,1,31.94,94c0-.06-.08-.09-.11,0Z" fill="#2b303c"/><path d="M32.58,94.16a3.71,3.71,0,0,0-.06,1c0,.07.12.07.11,0a3.5,3.5,0,0,1,.06-1c0-.07-.1-.1-.11,0Z" fill="#2b303c"/><path d="M33.15,94.3a2.83,2.83,0,0,0,.05.87c0,.07.12,0,.1,0a3,3,0,0,1,0-.84c0-.08-.11-.07-.12,0Z" fill="#2b303c"/><path d="M28.65,96.9a.53.53,0,0,0,.13.27h0a.61.61,0,0,0,.53.06l2.32-.43.38-.07.24,0,.79-.16c.33-.06.65-.13,1-.22a4.48,4.48,0,0,0,1.64-.8.19.19,0,0,0,.09-.11.21.21,0,0,0,0-.15l0-.05a1.54,1.54,0,0,0-.6-.5.31.31,0,0,1,.05.1.33.33,0,0,1,0,.17.77.77,0,0,1-.19.43,1.64,1.64,0,0,1-.82.55,5.19,5.19,0,0,1-1.25.1,7.54,7.54,0,0,0-1.41.23c-.56.14-1.11.31-1.68.41a1,1,0,0,1-.66-.06.93.93,0,0,1-.29-.36A2.41,2.41,0,0,1,28.6,95c0-.24.08-.47.09-.71a1.15,1.15,0,0,0-.1-.58l0,0c0,.3-.07.6-.11.9A5.56,5.56,0,0,0,28.65,96.9Z" fill="#c3cde0"/><path d="M19.32,80.06l-1.58,8.61L17.11,92h0a5.44,5.44,0,0,0,.84.85.81.81,0,0,0,.37.19h0A1.52,1.52,0,0,0,19,93a.57.57,0,0,0,.26-.31.08.08,0,0,0,0,0c.05-.2.51-1.32.93-2.37.06-.13.16-.38.3-.72l1.95-4.81,1.12-2.77L22,81.25Z" fill="#755143"/><path d="M19.15,89a19.6,19.6,0,0,0-.82,4.08h0A1.52,1.52,0,0,0,19,93a.57.57,0,0,0,.26-.31.08.08,0,0,0,0,0c.05-.2.51-1.32.93-2.37.06-.13.16-.38.3-.72l1.95-4.81A8.48,8.48,0,0,0,19.15,89Z" fill="#845c4f"/><path d="M17.74,88.67,17.11,92h0a5.44,5.44,0,0,0,.84.85.81.81,0,0,0,.37.19h0A1.52,1.52,0,0,0,19,93a.57.57,0,0,0,.26-.31.08.08,0,0,0,0,0c.05-.2.51-1.32.93-2.37.06-.13.16-.38.3-.72a7.25,7.25,0,0,1-1.29-.31l-.08,0C18.59,89,18.09,88.82,17.74,88.67Z" fill="#e8e8e8"/><path d="M19.09,89.18a20,20,0,0,0-.76,3.9h0A1.52,1.52,0,0,0,19,93a.57.57,0,0,0,.26-.31.08.08,0,0,0,0,0c.05-.2.51-1.32.93-2.37.06-.13.16-.38.3-.72a7.25,7.25,0,0,1-1.29-.31Z" fill="#fff"/><path d="M15.9,95.41a1.34,1.34,0,0,0,0,.2h0l0,.12a.65.65,0,0,0,.48.27l2.32.49.37.08.37.08.67.14c.33.06.66.12,1,.16A4.49,4.49,0,0,0,23,96.84a.24.24,0,0,0,.12-.07.23.23,0,0,0,0-.16,1.05,1.05,0,0,0-.06-.24,1.57,1.57,0,0,0-.36-.57l-.13-.14a5.21,5.21,0,0,0-.91-.62l-.55-.31L21,94.67l-.42-.24-.1-.06-.33-.18L19.88,94,19.79,94a1.75,1.75,0,0,1-.33-.28.41.41,0,0,1-.08-.25.76.76,0,0,0,0-.15h0c0-.33,0-.72-.13-.65h0a2.58,2.58,0,0,1-1.12-.23c-.5-.17-1-.37-1-.38h0a1.61,1.61,0,0,1-.09.29c-.12.27-.29.53-.43.8A5.87,5.87,0,0,0,15.9,95.41Z" fill="#d55ba0"/><path d="M19.34,93.31c-.25.3-.52.58-.8.86-.05,0,0,.14.07.09.29-.29.56-.58.82-.88.05-.06,0-.12-.09-.07Z" fill="#2b303c"/><path d="M19.91,93.83A4.91,4.91,0,0,0,19.12,95c0,.06.08.1.11,0A4.92,4.92,0,0,1,20,93.89c.05,0,0-.11-.09-.06Z" fill="#2b303c"/><path d="M20.55,94.25a4.07,4.07,0,0,0-.45.94c0,.07.09.11.11,0a3.67,3.67,0,0,1,.43-.92.05.05,0,1,0-.09-.06Z" fill="#2b303c"/><path d="M21,94.58a3,3,0,0,0-.29.83c0,.07.1.08.12,0a2.63,2.63,0,0,1,.28-.8c0-.06-.07-.1-.11,0Z" fill="#2b303c"/><path d="M15.88,95.31a.61.61,0,0,0,0,.3h0a.58.58,0,0,0,.47.26l2.31.47.37.07.25,0,.79.16c.32.06.65.11,1,.15a4.46,4.46,0,0,0,1.82-.12.24.24,0,0,0,.12-.07.22.22,0,0,0,0-.16s0,0,0-.06a1.55,1.55,0,0,0-.36-.68.4.4,0,0,1,0,.11.35.35,0,0,1,0,.17.81.81,0,0,1-.34.32,1.63,1.63,0,0,1-1,.2,5.28,5.28,0,0,1-1.19-.37,7.28,7.28,0,0,0-1.4-.31c-.57-.08-1.14-.13-1.7-.25a1,1,0,0,1-.6-.31.84.84,0,0,1-.13-.44,2.41,2.41,0,0,1,.25-1.29c.11-.21.25-.4.35-.62a1.05,1.05,0,0,0,.12-.57s0,0,0,0c-.12.27-.29.53-.43.79A5.54,5.54,0,0,0,15.88,95.31Z" fill="#c3cde0"/><polygon points="30.75 54.33 30.49 56.39 29.45 56.06 29.8 54.33 30.75 54.33" fill="#20242b"/><path d="M33,83.31a6.14,6.14,0,0,0-2.89,0c-1.1.22-2.81-1.14-4.47-1.21a10.37,10.37,0,0,0-2.85.64,3.59,3.59,0,0,1-2.54,0c-1.82-.82-3.72.58-3.77.62a31.74,31.74,0,0,0,.44-7.23C16.84,71,19,63.93,20.69,61.72c1.46-1.95,1.38-3.08.55-5.29,0-.06,0-.13-.08-.19-.08-.22-.18-.45-.27-.69a5.14,5.14,0,0,1-.41-2.28,4.67,4.67,0,0,1,2-3.54c1.29-.85,3.33-.06,5,.7S31.11,52,31.11,52l-.35,2.34h-1c.37,1.56-.54,3.81-1.47,3.88-.12,0-.24.61-.34,1.28,0,.39-.1.8-.12,1.13-.08.9,1,4.27,1.88,7.49.25.93.49,1.85.67,2.69C31.25,74.57,33,83.31,33,83.31Z" fill="#2b303c"/><path d="M24.21,50.44a7.33,7.33,0,0,0-2.73.24,4.58,4.58,0,0,1,1-1A2.58,2.58,0,0,1,23,49.5a2.62,2.62,0,0,1,.4-.11l.28,0A3.88,3.88,0,0,1,24.21,50.44Z" fill="#20242b"/><path d="M23.38,49.93c.15.5,1.44.67,2.95,1h0c1.51.3,1.93-.13.66-.72a1.65,1.65,0,0,1-1-1,5.71,5.71,0,0,1-.08-1.43L25,47.61l-.26,0-1.44-.22A16.45,16.45,0,0,0,23.38,49.93Z" fill="#845c4f"/><path d="M23.38,49.93c.15.5,1.44.67,2.95,1h0a4.18,4.18,0,0,0-1-.54c-1.16-.47-.84-1.25,0-1.47a5.05,5.05,0,0,0-.54-1.29l0,0-1.44-.22A16.45,16.45,0,0,0,23.38,49.93Z" fill="#755143"/><path d="M23.47,47.3A2.32,2.32,0,0,0,26,49.17a5.71,5.71,0,0,1-.08-1.43L25,47.61A3.31,3.31,0,0,1,23.47,47.3Z" fill="#63443b"/><path d="M22.78,41.78,23,46.14a2.42,2.42,0,0,0,2.55,2.29,2.38,2.38,0,0,0,1.53-.66,2.41,2.41,0,0,0,.76-1.89l-.09-1.64-.09-1.65-.06-1.08Z" fill="#845c4f"/><path d="M19.49,49.36a1.15,1.15,0,0,0,1.22.06A3.11,3.11,0,0,1,21.3,49a1.54,1.54,0,0,1,1.12.27c.36.16,1.24.54,1.48.22s-.55-1.12-.48-1.63a3.88,3.88,0,0,1,.32-.86,1,1,0,0,0,.1-.3c.07-.61-.68-1.16-.44-1.72a1,1,0,0,1,.19-.26c.21-.18.47-.32.56-.58s-.11-.63-.11-1c0-.53.58-.88,1.1-1a3.71,3.71,0,0,0,1.52-.47A1.25,1.25,0,0,0,27,40.3l0,.19a.67.67,0,0,0-.41-.73,1.39,1.39,0,0,0-.9,0c-.29.08-.57.2-.87.26-.54.12-1.1,0-1.66.08a1.31,1.31,0,0,0-1.23.93,3.44,3.44,0,0,1-.06.72c-.25.62-1.36.44-1.61,1.06s.48,1.22.13,1.7-.87.28-1.06.66a.71.71,0,0,0,.13.69,2,2,0,0,1,.36.63,1.19,1.19,0,0,1-.23.9,3,3,0,0,0-.45.83A1.15,1.15,0,0,0,19.49,49.36Z" fill="#1a2e35"/><path d="M29,48.4l.42-.28a2.53,2.53,0,0,0,1-1,1.19,1.19,0,0,0-.35-1.4,1.17,1.17,0,0,0-.27-.15c.37.94.32,1.64-.28,2.15A1.43,1.43,0,0,0,29,48.4Z" fill="#1a2e35"/><path d="M23.47,46.37a2,2,0,0,1,.27.67,1,1,0,0,0,.1-.3c.07-.61-.68-1.16-.44-1.72a1,1,0,0,1,.19-.26,3.71,3.71,0,0,0-.78-.34C22.5,44.82,22.9,45.49,23.47,46.37Z" fill="#1e272b"/><path d="M24.3,44.32c-.44-.51-1.53-.79-1.66.19s1.24,1.25,1.24,1.25Z" fill="#845c4f"/><path d="M26.12,42a5,5,0,0,0,1.65,2.22l-.09-1.65A7.81,7.81,0,0,0,26.12,42Z" fill="#755143"/><path d="M26,41.82a4.21,4.21,0,0,0,2.82,1.52,7.64,7.64,0,0,0-.48-1.82,3,3,0,0,0-1.19-1.41A1.89,1.89,0,0,0,25.3,40S24.72,40.22,26,41.82Z" fill="#1a2e35"/><path d="M23.74,42.35a0,0,0,0,0,0,0,.64.64,0,0,1,.16-.2L24.1,42a2.56,2.56,0,0,1,.39-.22l.22-.06.11,0h.12a1,1,0,0,1,.25,0h.27l-.11-.08-.12-.08a1,1,0,0,0-.27-.09,1,1,0,0,0-.3,0l-.15,0-.07,0-.07,0a1.07,1.07,0,0,0-.48.36.91.91,0,0,0-.13.26.7.7,0,0,0,0,.14A.45.45,0,0,0,23.74,42.35Z" fill="#d55ba0"/><path d="M16.49,83.29c.05,0,2-1.44,3.77-.61a3.64,3.64,0,0,0,2.54,0,35.89,35.89,0,0,1-2.34-8.14c-1-6.42,1.61-13.25,2.07-14.64.4-1.22-.29-2.13-1.37-3.7.91,2.34,1,3.47-.47,5.48C19,63.93,16.84,71,16.93,76.06A31.74,31.74,0,0,1,16.49,83.29Z" fill="#20242b"/><path d="M30.75,54.33l-.61.75s-1.55-3.57-2.42-4.4a14.9,14.9,0,0,1,2.42,2.59C30.41,53.72,30.61,54.07,30.75,54.33Z" fill="#20242b"/><path d="M29.75,68.11c-1.88-1.28-4.86-3.43-5.54-4.51-1-1.59-1.09-4.3-2.13-6a13,13,0,0,0-.84-1.2c0-.06,0-.13-.08-.19-.08-.22-.18-.45-.27-.69a5.14,5.14,0,0,1-.41-2.28c1.05-.2,2.49-.16,3.22.73,1.23,1.49,1.73-1.31,1.73-1.31a6.91,6.91,0,0,1,2.68,4.83l-.39.43A10.66,10.66,0,0,0,28,59.49c0,.39-.1.8-.12,1.13C27.79,61.52,28.87,64.89,29.75,68.11Z" fill="#20242b"/><path d="M34,68.37,34,68.32a18.28,18.28,0,0,1-1.5-1.38h0l-.5-.52-.23-.23.1-.12.9-1.12v0h.07l1.09.14.37,0a1.54,1.54,0,0,0,.47,0,2.35,2.35,0,0,0,.55-.2.21.21,0,0,1,.27,0,.16.16,0,0,1,0,.15,1.52,1.52,0,0,1-1,.54c-.23,0-.24.13-.16.23a2.74,2.74,0,0,0,.66.47,5.21,5.21,0,0,1,1.17.85.16.16,0,0,1,0,.12c-.06.08-.23.08-.44,0a3.38,3.38,0,0,0-1.2-.51.05.05,0,0,0-.05,0c-.08.15,1.39,1,1.39,1s.28.11.27.26a.09.09,0,0,1,0,0c-.17.33-1.67-.66-1.81-.76a.08.08,0,0,0-.08,0,.1.1,0,0,0,0,.17c.12.07,1.5.79,1.33,1.12h0c-.14.24-1.24-.81-1.61-.8s.93.72.8,1C34.7,68.77,34.65,68.83,34,68.37Z" fill="#845c4f"/><path d="M24,61.63s0,0,0-.05l0,0h0c0-.23-.55-2.14-1.08-4l1.8-.26L26.78,57h.07a13.26,13.26,0,0,0,.32,2.86c.29.34,5.42,4.72,5.62,5.09v0A4.15,4.15,0,0,1,32,66.35s0,0,0,.05A48,48,0,0,1,24,61.63Z" fill="#845c4f"/><path d="M32.44,66.92l-.5-.52A48,48,0,0,1,24,61.63s0,0,0-.05l0,0h0c0-.23-.55-2.14-1.08-4l1.8-.26L26.78,57c-.38.25-2.26,1.47-2.24,1.79a25.31,25.31,0,0,0,.69,3.06c.26.9,6.44,4.21,6.44,4.21v-.46a1.63,1.63,0,0,0,.14.47,3.4,3.4,0,0,0,.18.3,1.48,1.48,0,0,0,.25.3,1.14,1.14,0,0,1,.22.28Z" fill="#755143"/><path d="M27.42,57.13,22.49,58.5s-1.29-4-.47-5.67a2.44,2.44,0,0,1,4.45.31A8.78,8.78,0,0,1,27.42,57.13Z" fill="#20242b"/></svg>