<svg xmlns="http://www.w3.org/2000/svg" viewBox="0 0 92 92"><defs><style>.cls-1{fill:#f5f6f8;}.cls-2{fill:#d55ba0;}</style></defs><title>login-symbol-exclamation</title><g id="Lager_2" data-name="Lager 2"><g id="Layer_3" data-name="Layer 3"><circle class="cls-1" cx="46" cy="46" r="46"/><path class="cls-2" d="M46,63.52a3,3,0,0,1-3.11-3.26A3.09,3.09,0,0,1,46,57a3.17,3.17,0,0,1,3.21,3.26A3.11,3.11,0,0,1,46,63.52ZM45.94,29c1.38,0,2.91.3,3,1.73a16.27,16.27,0,0,1-.15,2C48.39,36.6,47.37,45.78,47,51.84H45c-.46-6.06-1.38-15-1.78-19.12,0-.66-.16-1.58-.16-2.09C43,29.3,44.51,29,45.94,29Z"/></g></g></svg>