<svg xmlns="http://www.w3.org/2000/svg" viewBox="0 0 92 92"><defs><style>.cls-1{fill:#f5f6f8;}.cls-2{fill:none;}.cls-2,.cls-3{stroke:#626c87;stroke-width:1.02px;}.cls-2,.cls-3,.cls-5{stroke-miterlimit:10;}.cls-3,.cls-5{fill:#fff;}.cls-4{fill:#626c87;}.cls-5{stroke:#656f82;stroke-width:1.2px;}</style></defs><title>login-symbol-computer-woman</title><g id="Lager_2" data-name="Lager 2"><g id="Layer_3" data-name="Layer 3"><circle class="cls-1" cx="46" cy="46" r="46"/><line class="cls-2" x1="44.63" y1="62.17" x2="59.56" y2="62.17"/><path class="cls-2" d="M44.63,31.89H20.14V59a3.23,3.23,0,0,0,3.22,3.22H44.63"/><path class="cls-3" d="M44.63,31.89H69.12V28.31a3.23,3.23,0,0,0-3.22-3.22H23.36a3.23,3.23,0,0,0-3.22,3.22v3.58H44.63"/><circle class="cls-4" cx="24.07" cy="28.49" r="1.2"/><circle class="cls-4" cx="29.09" cy="28.49" r="1.2"/><circle class="cls-4" cx="34.12" cy="28.49" r="1.2"/><path class="cls-5" d="M69.06,53.39H30.41a2.51,2.51,0,0,1-2.51-2.51V43.51A2.51,2.51,0,0,1,30.41,41H69.06"/><line class="cls-5" x1="32.92" y1="43.97" x2="32.92" y2="50.35"/><circle class="cls-3" cx="68.07" cy="59.25" r="9.02"/><rect class="cls-3" x="64.29" y="58.84" width="7.55" height="4.62" rx="0.84"/><path class="cls-2" d="M66,58.84V57.16a2.1,2.1,0,0,1,4.2,0v1.68"/><polyline class="cls-2" points="69.12 49.85 69.12 31.89 44.63 31.89"/></g></g></svg>