<svg xmlns="http://www.w3.org/2000/svg" viewBox="0 0 92 92"><defs><style>.cls-1{fill:#f5f6f8;}.cls-2{fill:#48a69e;}</style></defs><title>login-symbol-questionmark</title><g id="Lager_2" data-name="Lager 2"><g id="Layer_3" data-name="Layer 3"><circle class="cls-1" cx="46" cy="46" r="46"/><path class="cls-2" d="M47.27,54c-2.34-.82-6.38-3.79-6.38-7.33,0-2.4,1.46-4.36,5.5-7.58,3.47-2.71,5.24-4.54,5.24-6.88a4.06,4.06,0,0,0-4.3-4.23c-4.16,0-6.63,3.91-7.45,3.91a3.42,3.42,0,0,1-2.71-3,2.92,2.92,0,0,1,1.2-2.33,11,11,0,0,1,6.82-2.28,10.21,10.21,0,0,1,10,9.92c0,2.65-.88,4.93-4.48,7.9-3.16,2.65-4.87,3.85-4.87,5.93,0,1.71.89,2.84,2.59,4.42ZM45.69,67.1a4,4,0,0,1,0-8.09,3.93,3.93,0,0,1,3.92,4A3.86,3.86,0,0,1,45.69,67.1Z"/></g></g></svg>