<svg id="Layer_1" data-name="Layer 1" xmlns="http://www.w3.org/2000/svg" xmlns:xlink="http://www.w3.org/1999/xlink" width="38.75mm" height="38.75mm" viewBox="0 0 109.85 109.85"><defs><linearGradient id="linear-gradient" x1="61.21" y1="89.45" x2="50.9" y2="38.76" gradientUnits="userSpaceOnUse"><stop offset="0" stop-color="#fff"/><stop offset="1" stop-color="#646e85"/></linearGradient></defs><g opacity="0.1"><path d="M25.61,74.92H10.79c-3.33,0-1.51-5.22,3.88-5.46s6.18-12,.08-15.64-3.42-20.09,2.61-22S23.47,25.6,30.68,22s15,8.14,24.64,5.5,7.06-10.76,15.83-11,23.26,8.42,26.11,26-3.32,20.29,2.46,23.92,16,8.48-11.13,8.48Z" fill="url(#linear-gradient)"/></g><path d="M39.09,73.13a1.85,1.85,0,0,1-1.88-1.83V29.84A1.85,1.85,0,0,1,39.09,28H98.3a1.85,1.85,0,0,1,1.87,1.83V71.3a1.85,1.85,0,0,1-1.87,1.83Z" fill="#fff"/><path d="M98.3,28.46a1.41,1.41,0,0,1,1.43,1.38V71.3a1.41,1.41,0,0,1-1.43,1.38H39.09a1.41,1.41,0,0,1-1.43-1.38V29.84a1.41,1.41,0,0,1,1.43-1.38H98.3m0-.89H39.09a2.3,2.3,0,0,0-2.32,2.27V71.3a2.3,2.3,0,0,0,2.32,2.27H98.3a2.3,2.3,0,0,0,2.32-2.27V29.84a2.3,2.3,0,0,0-2.32-2.27Z" fill="#2b303c"/><path d="M100.62,29.84v2.57H36.77V29.84a2.3,2.3,0,0,1,2.32-2.27H98.3A2.3,2.3,0,0,1,100.62,29.84Z" fill="#4c5463"/><path d="M55,27.57l-4.92,4.84H36.77V29.84a2.3,2.3,0,0,1,2.32-2.27Z" fill="#2b303c"/><circle cx="42.01" cy="30.15" r="0.76" fill="#ece668"/><circle cx="45.1" cy="30.15" r="0.76" fill="#d55ba0"/><circle cx="48.18" cy="30.15" r="0.76" fill="#48a69e"/><rect x="44.47" y="51.05" width="50.77" height="14.52" rx="1.88" fill="#fff" stroke="#646e85" stroke-miterlimit="10" stroke-width="0.66"/><circle cx="54.56" cy="58.15" r="1.66" fill="#636d86"/><circle cx="61.53" cy="58.15" r="1.66" fill="#636d86"/><circle cx="68.51" cy="58.15" r="1.66" fill="#636d86"/><line x1="76.53" y1="53.73" x2="76.53" y2="62.58" fill="none" stroke="#656f82" stroke-miterlimit="10" stroke-width="0.86"/><circle cx="68.7" cy="41.49" r="6.08" transform="translate(-5.76 11.54) rotate(-9.22)" fill="#d55b9f"/><path d="M68.69,37.41a1.92,1.92,0,0,0-1.91,1.92,1.87,1.87,0,0,0,.42,1.18,1.89,1.89,0,0,0,1.49.74,1.92,1.92,0,1,0,0-3.84Z" fill="#fff"/><path d="M65.32,43.25v1.41c0,1.22,6.76,1.22,6.76,0V43.25C71.81,41.32,65.87,41.24,65.32,43.25Z" fill="#fff"/><path d="M35.33,54.25l-.06,0h0c-.21-.05-3.5-.36-5.31-.42l.28-1.68.33-2v-.06a27,27,0,0,0,4.08.76c.39-.16,5.78-3.48,6.18-3.56h0a4.09,4.09,0,0,1,1,1.13l0,.06A45.43,45.43,0,0,1,35.33,54.25Z" fill="#845c4f"/><path d="M42.48,48.24l-.61.3a45.43,45.43,0,0,1-6.54,5.71l-.06,0h0c-.21-.05-3.5-.36-5.31-.42l.28-1.68.33-2A12.68,12.68,0,0,0,32.92,53a26.34,26.34,0,0,0,2.94.26c.87,0,5.44-4.39,5.44-4.39l-.37-.38a1.53,1.53,0,0,0,.59.09,2.06,2.06,0,0,0,.32-.07,1.28,1.28,0,0,0,.34-.14,1.48,1.48,0,0,1,.32-.11Z" fill="#755143"/><path d="M40.77,47.07a1.25,1.25,0,0,0-.12,1,1.22,1.22,0,0,0,.77.55,1.57,1.57,0,0,0,1.67-1.1c.22-.78-.65-.94-1-1.17s1.17-1.22,1-1.63-1.25.65-2,1.76C41,46.71,40.87,46.89,40.77,47.07Z" fill="#845c4f"/><path d="M25.34,46.14c-.53,0-.55.42-1.12.34s-1.24.12-1.78,0-.19-1.83.39-2.16S25.34,46.14,25.34,46.14Z" fill="#1e272b"/><path d="M24.58,45.31a1.11,1.11,0,0,0,.36.82,1.07,1.07,0,0,0,.84.26c.41,0,.82-.32,1.2-.16s.48.53.81.55a.76.76,0,0,0,.51-.2l.45-.3.42-.28a2.58,2.58,0,0,0,1-1,1.2,1.2,0,0,0-.35-1.41,2.2,2.2,0,0,0-.26-.15,1.37,1.37,0,0,1-.65-.47c-.27-.49.23-1.19-.1-1.64s-.74-.32-1-.63a1.49,1.49,0,0,1-.11-.94,2.45,2.45,0,0,0-.34-1.4s-2.72.43-2.86,2.77A23.2,23.2,0,0,0,24.58,45.31Z" fill="#1e272b"/><path d="M25.92,79.35l1.75,8.58.68,3.35h0a5.59,5.59,0,0,0,1.1.48.79.79,0,0,0,.42,0h0a1.37,1.37,0,0,0,.54-.35.54.54,0,0,0,.12-.38v0c0-.21,0-1.41,0-2.54V87.7c0-1.2,0-3.38,0-5.19,0-1.65,0-3,0-3l-1.69-.06Z" fill="#755143"/><path d="M29.1,87.7a18.88,18.88,0,0,0,.77,4.09h0a1.37,1.37,0,0,0,.54-.35.54.54,0,0,0,.12-.38v0c0-.21,0-1.41,0-2.54V87.7c0-1.2,0-3.38,0-5.19A8.47,8.47,0,0,0,29.1,87.7Z" fill="#845c4f"/><path d="M27.67,87.93l.68,3.35h0a5.59,5.59,0,0,0,1.1.48.79.79,0,0,0,.42,0h0a1.37,1.37,0,0,0,.54-.35.54.54,0,0,0,.12-.38v0c0-.21,0-1.41,0-2.54V87.7a7.76,7.76,0,0,1-1.31.19h-.09C28.58,87.93,28.05,87.93,27.67,87.93Z" fill="#e8e8e8"/><path d="M29.11,87.89a20.2,20.2,0,0,0,.76,3.9h0a1.37,1.37,0,0,0,.54-.35.54.54,0,0,0,.12-.38v0c0-.21,0-1.41,0-2.54V87.7a7.76,7.76,0,0,1-1.31.19Z" fill="#fff"/><path d="M28.49,94.86a.62.62,0,0,0,.07.19h0a.31.31,0,0,0,.07.09.65.65,0,0,0,.55.08l2.33-.41.38-.07.37-.06.68-.13c.32-.06.65-.13,1-.21a4.39,4.39,0,0,0,1.66-.79.23.23,0,0,0,.08-.11.2.2,0,0,0,0-.15,1.43,1.43,0,0,0-.14-.2,1.69,1.69,0,0,0-.55-.4l-.17-.08a5.07,5.07,0,0,0-1.08-.23L33,92.29h-.11l-.48-.07h-.12L32,92.14l-.3,0-.11,0a2,2,0,0,1-.41-.13.55.55,0,0,1-.17-.21l-.06-.13h0c-.13-.31-.23-.68-.36-.56l0,0a2.56,2.56,0,0,1-1.12.21c-.53,0-1,0-1.06,0h0c0,.1,0,.2,0,.3,0,.31-.07.61-.1.91A5.78,5.78,0,0,0,28.49,94.86Z" fill="#d55ba0"/><path d="M30.89,91.63a10.23,10.23,0,0,1-.42,1.09c0,.07.07.12.1.06.16-.37.3-.74.43-1.12a.06.06,0,0,0-.11,0Z" fill="#2b303c"/><path d="M31.61,91.9a4.92,4.92,0,0,0-.29,1.38c0,.07.11.07.11,0a4.86,4.86,0,0,1,.29-1.35c0-.06-.08-.09-.11,0Z" fill="#2b303c"/><path d="M32.36,92.05a3.62,3.62,0,0,0-.06,1c0,.07.12.07.11,0a3.5,3.5,0,0,1,.06-1,.06.06,0,1,0-.11,0Z" fill="#2b303c"/><path d="M32.93,92.18a2.83,2.83,0,0,0,0,.87c0,.07.12,0,.1,0a3,3,0,0,1,0-.84c0-.08-.11-.07-.12,0Z" fill="#2b303c"/><path d="M28.43,94.78a.53.53,0,0,0,.13.27h0a.61.61,0,0,0,.53.06l2.32-.43.38-.07.24,0,.8-.16c.32-.06.64-.13,1-.22a4.48,4.48,0,0,0,1.64-.8.19.19,0,0,0,.09-.11.21.21,0,0,0,0-.15l0,0a1.58,1.58,0,0,0-.59-.5,1,1,0,0,1,0,.1.35.35,0,0,1,0,.17.77.77,0,0,1-.19.43,1.64,1.64,0,0,1-.82.55,5.19,5.19,0,0,1-1.25.1,7.54,7.54,0,0,0-1.41.23c-.56.14-1.11.31-1.68.41a.72.72,0,0,1-.95-.42,2.41,2.41,0,0,1-.25-1.29c0-.24.08-.47.09-.71a1.05,1.05,0,0,0-.1-.58l0,0c0,.3-.07.6-.11.9A5.56,5.56,0,0,0,28.43,94.78Z" fill="#c3cde0"/><path d="M19.1,78l-1.58,8.6-.62,3.37h0a5.44,5.44,0,0,0,.84.85.81.81,0,0,0,.37.19h0a1.52,1.52,0,0,0,.62-.12.54.54,0,0,0,.26-.31.08.08,0,0,0,0,0c0-.2.51-1.32.94-2.37l.29-.72,2-4.81c.62-1.53,1.13-2.77,1.13-2.77l-1.55-.69Z" fill="#755143"/><path d="M18.93,86.88A19.6,19.6,0,0,0,18.11,91h0a1.52,1.52,0,0,0,.62-.12.54.54,0,0,0,.26-.31.08.08,0,0,0,0,0c0-.2.51-1.32.94-2.37l.29-.72,2-4.81A8.48,8.48,0,0,0,18.93,86.88Z" fill="#845c4f"/><path d="M17.52,86.55l-.62,3.37h0a5.44,5.44,0,0,0,.84.85.81.81,0,0,0,.37.19h0a1.52,1.52,0,0,0,.62-.12.54.54,0,0,0,.26-.31.08.08,0,0,0,0,0c0-.2.51-1.32.94-2.37l.29-.72A7.25,7.25,0,0,1,19,87.09l-.08,0C18.37,86.89,17.87,86.7,17.52,86.55Z" fill="#e8e8e8"/><path d="M18.87,87.06a20,20,0,0,0-.76,3.9h0a1.52,1.52,0,0,0,.62-.12.54.54,0,0,0,.26-.31.08.08,0,0,0,0,0c0-.2.51-1.32.94-2.37l.29-.72A7.25,7.25,0,0,1,19,87.09Z" fill="#fff"/><path d="M15.68,93.29a1.33,1.33,0,0,0,0,.2h0l0,.12a.67.67,0,0,0,.48.27l2.32.49.37.08.37.08.68.14c.32.06.65.12,1,.16a4.49,4.49,0,0,0,1.83-.11.24.24,0,0,0,.12-.07.23.23,0,0,0,0-.16.86.86,0,0,0-.06-.23,1.53,1.53,0,0,0-.36-.58l-.13-.14a5.21,5.21,0,0,0-.91-.62l-.54-.31-.1-.06-.42-.24-.1,0-.33-.19-.26-.16-.09-.06a1.75,1.75,0,0,1-.33-.28.41.41,0,0,1-.08-.25.76.76,0,0,0,0-.15h0c0-.33,0-.72-.13-.65h0a2.69,2.69,0,0,1-1.12-.22c-.5-.18-1-.38-1-.39h0c0,.1-.06.19-.1.29-.12.27-.29.53-.43.8A5.87,5.87,0,0,0,15.68,93.29Z" fill="#d55ba0"/><path d="M19.12,91.19c-.25.3-.52.58-.8.86-.05,0,0,.14.07.09.29-.29.56-.58.82-.88.05-.06,0-.12-.09-.07Z" fill="#2b303c"/><path d="M19.69,91.71a4.91,4.91,0,0,0-.79,1.17c0,.06.08.1.11,0a4.92,4.92,0,0,1,.77-1.15s0-.11-.09-.06Z" fill="#2b303c"/><path d="M20.33,92.13a4.07,4.07,0,0,0-.45.94c0,.07.09.11.11,0a3.67,3.67,0,0,1,.43-.92.05.05,0,1,0-.09-.06Z" fill="#2b303c"/><path d="M20.81,92.46a2.71,2.71,0,0,0-.28.83c0,.07.09.08.11,0a2.63,2.63,0,0,1,.28-.8c0-.06-.07-.1-.11,0Z" fill="#2b303c"/><path d="M15.66,93.2a.57.57,0,0,0,0,.29h0a.59.59,0,0,0,.47.26l2.31.47.37.08.25,0,.79.15c.33.06.65.11,1,.15a4.46,4.46,0,0,0,1.82-.12.24.24,0,0,0,.12-.07.22.22,0,0,0,0-.16.43.43,0,0,0,0,0,1.53,1.53,0,0,0-.36-.69.2.2,0,0,1,0,.11.35.35,0,0,1,0,.17.81.81,0,0,1-.34.32,1.61,1.61,0,0,1-1,.2,5.2,5.2,0,0,1-1.2-.37,7.35,7.35,0,0,0-1.39-.31c-.57-.08-1.15-.13-1.71-.25a.92.92,0,0,1-.59-.31.74.74,0,0,1-.14-.44,2.36,2.36,0,0,1,.25-1.28c.11-.22.25-.41.35-.63a1.05,1.05,0,0,0,.12-.57s0,0,0,0a6,6,0,0,1-.43.79A5.54,5.54,0,0,0,15.66,93.2Z" fill="#c3cde0"/><polygon points="30.53 52.21 30.27 54.27 29.23 53.94 29.58 52.21 30.53 52.21" fill="#20242b"/><path d="M32.79,81.19a6.14,6.14,0,0,0-2.89,0c-1.1.22-2.81-1.14-4.47-1.21a10.45,10.45,0,0,0-2.85.64,3.64,3.64,0,0,1-2.54,0c-1.82-.83-3.72.57-3.77.61a31.74,31.74,0,0,0,.44-7.23c-.09-5.08,2.11-12.13,3.76-14.33,1.46-2,1.39-3.09.55-5.3,0-.06-.05-.13-.08-.19q-.12-.33-.27-.69a5.14,5.14,0,0,1-.41-2.28,4.67,4.67,0,0,1,2-3.54c1.3-.85,3.33-.06,5,.7s3.64,1.55,3.64,1.55l-.35,2.34h-1C30,53.77,29,56,28.11,56.09c-.12,0-.24.61-.34,1.28-.05.39-.09.8-.12,1.13-.08.9,1,4.27,1.88,7.49.25.93.49,1.85.67,2.69C31,72.45,32.79,81.19,32.79,81.19Z" fill="#2b303c"/><path d="M24,48.32a7.36,7.36,0,0,0-2.74.24,4.58,4.58,0,0,1,1-1,2.58,2.58,0,0,1,.44-.22,2.62,2.62,0,0,1,.4-.11,1.33,1.33,0,0,1,.28,0A3.93,3.93,0,0,1,24,48.32Z" fill="#20242b"/><path d="M23.16,47.81c.15.5,1.44.67,2.95,1h0c1.51.3,1.93-.13.67-.72a1.64,1.64,0,0,1-1-1,5.66,5.66,0,0,1-.08-1.42l-.85-.14-.26,0-1.44-.22A16.45,16.45,0,0,0,23.16,47.81Z" fill="#845c4f"/><path d="M23.16,47.81c.15.5,1.44.67,2.95,1h0a4.18,4.18,0,0,0-1-.54c-1.16-.47-.84-1.25,0-1.47a5.21,5.21,0,0,0-.54-1.29.08.08,0,0,0,0,0l-1.44-.22A16.45,16.45,0,0,0,23.16,47.81Z" fill="#755143"/><path d="M23.26,45.18a2.3,2.3,0,0,0,2.49,1.87,5.66,5.66,0,0,1-.08-1.42l-.85-.14A3.13,3.13,0,0,1,23.26,45.18Z" fill="#63443b"/><path d="M22.56,39.66,22.8,44a2.43,2.43,0,0,0,1.06,1.88,2.47,2.47,0,0,0,1.49.41,2.38,2.38,0,0,0,1.53-.66,2.41,2.41,0,0,0,.76-1.89l-.09-1.64-.09-1.65L27.4,39.4Z" fill="#845c4f"/><path d="M19.27,47.24a1.13,1.13,0,0,0,1.22.06,3.11,3.11,0,0,1,.59-.38,1.54,1.54,0,0,1,1.12.27c.36.16,1.24.54,1.48.22s-.55-1.12-.48-1.63a3.88,3.88,0,0,1,.32-.86,1,1,0,0,0,.1-.3c.07-.61-.68-1.16-.44-1.72a1,1,0,0,1,.2-.26c.2-.18.47-.32.55-.58s-.11-.63-.11-1c0-.53.58-.88,1.1-1a3.71,3.71,0,0,0,1.52-.47,1.24,1.24,0,0,0,.33-1.45l-.05.19a.67.67,0,0,0-.41-.73,1.36,1.36,0,0,0-.89,0c-.3.08-.58.2-.88.27-.54.11-1.1,0-1.65.07a1.32,1.32,0,0,0-1.24.93,3.44,3.44,0,0,1-.06.72c-.25.62-1.36.44-1.61,1.06s.48,1.22.13,1.7-.87.28-1.06.66a.73.73,0,0,0,.13.69,2,2,0,0,1,.36.63,1.19,1.19,0,0,1-.23.9,3,3,0,0,0-.45.83A1.15,1.15,0,0,0,19.27,47.24Z" fill="#1a2e35"/><path d="M28.75,46.28l.42-.28a2.58,2.58,0,0,0,1-1,1.2,1.2,0,0,0-.35-1.41,2.2,2.2,0,0,0-.26-.15c.36.94.31,1.64-.29,2.15A1.43,1.43,0,0,0,28.75,46.28Z" fill="#1a2e35"/><path d="M23.25,44.25a2,2,0,0,1,.27.67,1,1,0,0,0,.1-.3c.07-.61-.68-1.16-.44-1.72a1,1,0,0,1,.2-.26,3.91,3.91,0,0,0-.79-.34C22.28,42.7,22.68,43.37,23.25,44.25Z" fill="#1e272b"/><path d="M24.08,42.2c-.44-.51-1.53-.79-1.66.19s1.24,1.25,1.24,1.25Z" fill="#845c4f"/><path d="M25.9,39.9a5,5,0,0,0,1.65,2.22l-.09-1.65A7.81,7.81,0,0,0,25.9,39.9Z" fill="#755143"/><path d="M25.73,39.7a4.17,4.17,0,0,0,2.82,1.52,7.64,7.64,0,0,0-.48-1.82A3,3,0,0,0,26.88,38a1.89,1.89,0,0,0-1.8-.07S24.5,38.1,25.73,39.7Z" fill="#1a2e35"/><path d="M23.52,40.23s0,0,0,0a.78.78,0,0,1,.16-.2l.19-.15a2.24,2.24,0,0,1,.4-.22l.21-.06.11,0h.12a1,1,0,0,1,.25,0h.27l-.11-.08L25,39.4a1,1,0,0,0-.27-.09,1.51,1.51,0,0,0-.3,0l-.15,0-.07,0-.07,0a1.07,1.07,0,0,0-.48.36.91.91,0,0,0-.13.26.7.7,0,0,0,0,.14A.45.45,0,0,0,23.52,40.23Z" fill="#d55ba0"/><path d="M16.27,81.17c.05,0,1.95-1.44,3.77-.61a3.64,3.64,0,0,0,2.54,0,35.89,35.89,0,0,1-2.34-8.14c-1-6.42,1.61-13.25,2.07-14.64.4-1.22-.29-2.13-1.37-3.7.91,2.34,1,3.47-.47,5.49-1.65,2.2-3.85,9.25-3.76,14.33A31.74,31.74,0,0,1,16.27,81.17Z" fill="#20242b"/><path d="M30.53,52.21l-.61.76s-1.54-3.57-2.42-4.41a14.9,14.9,0,0,1,2.42,2.59C30.19,51.6,30.39,52,30.53,52.21Z" fill="#20242b"/><path d="M29.53,66c-1.88-1.28-4.85-3.43-5.53-4.5-1-1.6-1.1-4.31-2.13-6-.25-.4-.55-.81-.85-1.2,0-.06-.05-.13-.08-.19q-.12-.33-.27-.69a5.14,5.14,0,0,1-.41-2.28c1-.2,2.49-.16,3.22.73,1.23,1.49,1.73-1.31,1.73-1.31a6.87,6.87,0,0,1,2.68,4.83l-.39.43a10.66,10.66,0,0,0,.27,1.54c-.05.39-.09.8-.12,1.13C27.57,59.4,28.65,62.77,29.53,66Z" fill="#20242b"/><path d="M33.81,66.25l-.07,0a18.28,18.28,0,0,1-1.5-1.38h0l0,0-.5-.52-.23-.23.1-.12.9-1.12v0h.08l1.08.14L34,63a1.54,1.54,0,0,0,.47,0,2,2,0,0,0,.55-.2.21.21,0,0,1,.27,0,.16.16,0,0,1,0,.15,1.52,1.52,0,0,1-1,.54c-.23,0-.24.13-.16.23a2.61,2.61,0,0,0,.67.47A5.35,5.35,0,0,1,36,65a.16.16,0,0,1,0,.12c-.06.08-.23.08-.43,0a3.7,3.7,0,0,0-1.21-.51.05.05,0,0,0-.05,0c-.08.15,1.39,1,1.39,1s.28.1.27.25a.09.09,0,0,1,0,0c-.17.33-1.67-.66-1.81-.76a.08.08,0,0,0-.08,0,.1.1,0,0,0,0,.17c.12.07,1.5.79,1.33,1.13h0c-.14.24-1.24-.81-1.61-.8s.93.72.8,1C34.48,66.65,34.43,66.71,33.81,66.25Z" fill="#845c4f"/><path d="M23.8,59.51l0,0,0,0h0c0-.23-.55-2.14-1.08-4l1.8-.26,2.09-.3h.07A13.22,13.22,0,0,0,27,57.71c.29.34,5.42,4.72,5.63,5.09v0a4.15,4.15,0,0,1-.81,1.41l-.05,0A48,48,0,0,1,23.8,59.51Z" fill="#845c4f"/><path d="M32.22,64.8l-.5-.52a48,48,0,0,1-7.92-4.77l0,0,0,0h0c0-.23-.55-2.14-1.08-4l1.8-.26,2.09-.3c-.38.24-2.26,1.46-2.24,1.79A25.66,25.66,0,0,0,25,59.71c.26.9,6.44,4.21,6.44,4.21v-.46a1.63,1.63,0,0,0,.14.47,3.4,3.4,0,0,0,.18.3,1.48,1.48,0,0,0,.25.3,1,1,0,0,1,.22.29Z" fill="#755143"/><path d="M27.2,55l-4.93,1.37s-1.29-4-.46-5.67a2.44,2.44,0,0,1,4.44.31A8.78,8.78,0,0,1,27.2,55Z" fill="#20242b"/></svg>