<svg id="Layer_1" data-name="Layer 1" xmlns="http://www.w3.org/2000/svg" xmlns:xlink="http://www.w3.org/1999/xlink" width="38.75mm" height="38.75mm" viewBox="0 0 109.85 109.85"><defs><linearGradient id="linear-gradient" x1="59.63" y1="89.99" x2="49.77" y2="41.47" gradientUnits="userSpaceOnUse"><stop offset="0" stop-color="#fff"/><stop offset="1" stop-color="#646e85"/></linearGradient></defs><rect x="37.69" y="38.86" width="66.54" height="32.46" rx="4.93" transform="translate(15.54 125.8) rotate(-89.74)" fill="#2b303c"/><path d="M82.26,23.86l-4.39,0A1.1,1.1,0,0,0,76.8,25v.8a1.08,1.08,0,0,1-1.07,1.1l-8.54,0a1.08,1.08,0,0,1-1.06-1.11v-.8a1.1,1.1,0,0,0-1.06-1.12H63.53l-3.84,0a3.45,3.45,0,0,0-3.47,3.43L56,82.53A3.45,3.45,0,0,0,59.42,86L82,86.1a3.46,3.46,0,0,0,3.47-3.44l.23-55.33A3.45,3.45,0,0,0,82.26,23.86Z" fill="#fff"/><path d="M69.6,80.87a.47.47,0,1,1-.46-.5A.48.48,0,0,1,69.6,80.87Z" fill="#455a64"/><path d="M71,80.87a.48.48,0,0,1-.46.5.49.49,0,0,1-.47-.5.48.48,0,0,1,.47-.5A.47.47,0,0,1,71,80.87Z" fill="#455a64"/><path d="M72.49,80.88a.48.48,0,0,1-.47.49.47.47,0,0,1-.46-.5.47.47,0,1,1,.93,0Z" fill="#455a64"/><rect x="60.82" y="46.87" width="20.38" height="3.36" rx="1" fill="#c1c5ce"/><circle cx="71.01" cy="38.77" r="5.56" transform="translate(-5.29 11.87) rotate(-9.22)" fill="#48a69e"/><path d="M71,35a1.75,1.75,0,0,0-1.74,1.75,1.74,1.74,0,0,0,3.11,1.09,1.72,1.72,0,0,0,.38-1.09A1.75,1.75,0,0,0,71,35Z" fill="#fff"/><path d="M67.92,40.38v1.29c0,1.1,6.17,1.1,6.17,0V40.38C73.85,38.62,68.42,38.54,67.92,40.38Z" fill="#fff"/><rect x="60.82" y="52.07" width="20.38" height="3.36" rx="1" fill="#c1c5ce"/><g opacity="0.1"><path d="M25.57,76.09H11.38c-3.19,0-1.44-5,3.71-5.23s5.92-11.5.08-15-3.27-19.23,2.5-21.06,5.85-5.95,12.75-9.43S44.72,33.19,54,30.66s6.77-10.3,15.16-10.49,22.26,8.06,25,24.91S91,64.5,96.5,68s15.35,8.12-10.65,8.12Z" fill="url(#linear-gradient)"/></g><rect x="23.34" y="24.47" width="72.83" height="35.53" rx="5.39" transform="translate(17.24 101.8) rotate(-89.74)" fill="#2b303c"/><path d="M72.12,8.05l-4.8,0a1.2,1.2,0,0,0-1.17,1.22v.87A1.19,1.19,0,0,1,65,11.33l-9.35,0a1.2,1.2,0,0,1-1.16-1.23V9.19A1.19,1.19,0,0,0,53.31,8H51.62l-4.2,0a3.77,3.77,0,0,0-3.79,3.76l-.26,60.57a3.78,3.78,0,0,0,3.76,3.79l24.7.11a3.76,3.76,0,0,0,3.79-3.76l.26-60.56A3.78,3.78,0,0,0,72.12,8.05Z" fill="#fff"/><path d="M58.27,70.45a.53.53,0,0,1-.51.54.53.53,0,0,1-.51-.55.53.53,0,0,1,.51-.54A.53.53,0,0,1,58.27,70.45Z" fill="#455a64"/><path d="M59.85,70.45a.53.53,0,0,1-.51.55.54.54,0,0,1-.51-.55.51.51,0,1,1,1,0Z" fill="#455a64"/><path d="M61.43,70.46a.51.51,0,1,1-1,0,.52.52,0,0,1,.51-.54A.53.53,0,0,1,61.43,70.46Z" fill="#455a64"/><rect x="48.66" y="33.23" width="22.3" height="3.68" rx="1.09" fill="#c1c5ce"/><circle cx="59.81" cy="24.37" r="6.08" transform="translate(-3.13 9.89) rotate(-9.22)" fill="#d55b9f"/><path d="M59.8,20.29a1.92,1.92,0,0,0-1.91,1.92,1.87,1.87,0,0,0,.42,1.18,1.91,1.91,0,0,0,1.49.73,1.92,1.92,0,1,0,0-3.83Z" fill="#fff"/><path d="M56.43,26.13v1.41c0,1.21,6.76,1.21,6.76,0V26.13C62.92,24.2,57,24.12,56.43,26.13Z" fill="#fff"/><rect x="48.66" y="38.93" width="22.3" height="3.68" rx="1.09" fill="#c1c5ce"/><path d="M39.63,54.25l-.06,0h0c-.21-.05-3.5-.36-5.31-.42l.28-1.68.33-2v-.06a27.27,27.27,0,0,0,4.08.76c.39-.16,5.78-3.48,6.18-3.56h0a3.94,3.94,0,0,1,1,1.13l0,.06A45.56,45.56,0,0,1,39.63,54.25Z" fill="#845c4f"/><path d="M46.78,48.24l-.6.3a45.56,45.56,0,0,1-6.55,5.71l-.06,0h0c-.21-.05-3.5-.36-5.31-.42l.28-1.68.33-2A12.71,12.71,0,0,0,37.23,53a25.89,25.89,0,0,0,2.93.26c.88,0,5.44-4.39,5.44-4.39l-.37-.38a1.53,1.53,0,0,0,.59.09,1.83,1.83,0,0,0,.32-.07,1.22,1.22,0,0,0,.35-.14,1.21,1.21,0,0,1,.31-.11Z" fill="#755143"/><path d="M45.07,47.07a1,1,0,0,0,.66,1.59,1.57,1.57,0,0,0,1.67-1.1c.21-.78-.66-.94-.95-1.17s1.16-1.22,1-1.63-1.24.65-2,1.76C45.3,46.71,45.18,46.89,45.07,47.07Z" fill="#845c4f"/><path d="M29.65,46.14c-.53,0-.55.42-1.12.34s-1.24.12-1.79,0-.18-1.83.39-2.16S29.65,46.14,29.65,46.14Z" fill="#1e272b"/><path d="M28.88,45.31a1.11,1.11,0,0,0,.36.82,1.08,1.08,0,0,0,.84.26c.41,0,.83-.32,1.2-.16s.48.53.82.55a.8.8,0,0,0,.51-.2l.45-.3c.13-.1.27-.19.41-.28a2.5,2.5,0,0,0,1-1,1.18,1.18,0,0,0-.34-1.41l-.27-.15a1.34,1.34,0,0,1-.64-.47c-.28-.49.22-1.19-.11-1.64s-.73-.32-1-.63a1.42,1.42,0,0,1-.1-.94,2.62,2.62,0,0,0-.34-1.4s-2.72.43-2.87,2.77A24.41,24.41,0,0,0,28.88,45.31Z" fill="#1e272b"/><path d="M30.22,79.35,32,87.93l.68,3.35h0a6.26,6.26,0,0,0,1.1.48.79.79,0,0,0,.42,0h0a1.4,1.4,0,0,0,.53-.35.46.46,0,0,0,.12-.38v0c0-.21,0-1.41,0-2.54V87.7c0-1.2,0-3.38,0-5.19v-3l-1.69-.06Z" fill="#755143"/><path d="M33.4,87.7a19.51,19.51,0,0,0,.77,4.09h0a1.4,1.4,0,0,0,.53-.35.46.46,0,0,0,.12-.38v0c0-.21,0-1.41,0-2.54V87.7c0-1.2,0-3.38,0-5.19A8.4,8.4,0,0,0,33.4,87.7Z" fill="#845c4f"/><path d="M32,87.93l.68,3.35h0a6.26,6.26,0,0,0,1.1.48.79.79,0,0,0,.42,0h0a1.4,1.4,0,0,0,.53-.35.46.46,0,0,0,.12-.38v0c0-.21,0-1.41,0-2.54V87.7a7.61,7.61,0,0,1-1.31.19h-.08C32.89,87.93,32.36,87.93,32,87.93Z" fill="#e8e8e8"/><path d="M33.42,87.89a19.55,19.55,0,0,0,.75,3.9h0a1.4,1.4,0,0,0,.53-.35.46.46,0,0,0,.12-.38v0c0-.21,0-1.41,0-2.54V87.7a7.61,7.61,0,0,1-1.31.19Z" fill="#fff"/><path d="M32.79,94.86a1.07,1.07,0,0,0,.07.19h0a.34.34,0,0,0,.08.09.63.63,0,0,0,.54.08l2.34-.41.37-.07.37-.06.68-.13c.32-.06.65-.13,1-.21a4.35,4.35,0,0,0,1.65-.79.18.18,0,0,0,.08-.11.17.17,0,0,0,0-.15,1.43,1.43,0,0,0-.14-.2,1.69,1.69,0,0,0-.55-.4L39,92.61A4.83,4.83,0,0,0,38,92.38l-.62-.09h-.11l-.48-.07h-.11l-.38-.06-.3,0-.11,0a1.87,1.87,0,0,1-.4-.13.41.41,0,0,1-.17-.21l-.06-.13h0c-.13-.31-.24-.68-.37-.56l0,0a2.56,2.56,0,0,1-1.12.21c-.53,0-1,0-1.06,0h0a1.51,1.51,0,0,1,0,.3,6.85,6.85,0,0,1-.1.91A5.78,5.78,0,0,0,32.79,94.86Z" fill="#d55ba0"/><path d="M35.19,91.63a10.23,10.23,0,0,1-.42,1.09c0,.07.07.12.1.06a11.73,11.73,0,0,0,.43-1.12c0-.07-.08-.1-.11,0Z" fill="#2b303c"/><path d="M35.91,91.9a4.92,4.92,0,0,0-.29,1.38c0,.07.11.07.11,0A4.86,4.86,0,0,1,36,91.92c0-.06-.08-.09-.11,0Z" fill="#2b303c"/><path d="M36.66,92.05a3.62,3.62,0,0,0-.06,1c0,.07.12.07.12,0a3.88,3.88,0,0,1,.05-1,.06.06,0,1,0-.11,0Z" fill="#2b303c"/><path d="M37.24,92.18a2.83,2.83,0,0,0,0,.87c0,.07.12,0,.11,0a2.64,2.64,0,0,1,0-.84c0-.08-.1-.07-.11,0Z" fill="#2b303c"/><path d="M32.73,94.78a.62.62,0,0,0,.13.27h0a.63.63,0,0,0,.54.06l2.32-.43.37-.07.25,0,.79-.16c.32-.06.64-.13,1-.22a4.6,4.6,0,0,0,1.65-.8.23.23,0,0,0,.08-.11.21.21,0,0,0,0-.15l0,0a1.51,1.51,0,0,0-.59-.5.3.3,0,0,1,0,.1.55.55,0,0,1,0,.17.86.86,0,0,1-.2.43,1.64,1.64,0,0,1-.82.55,5.15,5.15,0,0,1-1.24.1,7.41,7.41,0,0,0-1.41.23c-.56.14-1.12.31-1.68.41a1,1,0,0,1-.67-.06.93.93,0,0,1-.29-.36,2.4,2.4,0,0,1-.24-1.29c0-.24.07-.47.09-.71a1.16,1.16,0,0,0-.11-.58l0,0a6.91,6.91,0,0,1-.11.9A5.73,5.73,0,0,0,32.73,94.78Z" fill="#c3cde0"/><path d="M23.41,78l-1.59,8.6-.62,3.37h0a6.64,6.64,0,0,0,.84.85.79.79,0,0,0,.38.19h0a1.61,1.61,0,0,0,.63-.12.54.54,0,0,0,.26-.31s0,0,0,0c.05-.2.5-1.32.93-2.37.05-.13.16-.38.29-.72l1.95-4.81c.62-1.53,1.13-2.77,1.13-2.77l-1.55-.69Z" fill="#755143"/><path d="M23.23,86.88A19.48,19.48,0,0,0,22.42,91h0a1.61,1.61,0,0,0,.63-.12.54.54,0,0,0,.26-.31s0,0,0,0c.05-.2.5-1.32.93-2.37.05-.13.16-.38.29-.72l1.95-4.81A8.48,8.48,0,0,0,23.23,86.88Z" fill="#845c4f"/><path d="M21.82,86.55l-.62,3.37h0a6.64,6.64,0,0,0,.84.85.79.79,0,0,0,.38.19h0a1.61,1.61,0,0,0,.63-.12.54.54,0,0,0,.26-.31s0,0,0,0c.05-.2.5-1.32.93-2.37.05-.13.16-.38.29-.72a7.68,7.68,0,0,1-1.29-.31l-.08,0C22.67,86.89,22.18,86.7,21.82,86.55Z" fill="#e8e8e8"/><path d="M23.17,87.06a19.91,19.91,0,0,0-.75,3.9h0a1.61,1.61,0,0,0,.63-.12.54.54,0,0,0,.26-.31s0,0,0,0c.05-.2.5-1.32.93-2.37.05-.13.16-.38.29-.72a7.68,7.68,0,0,1-1.29-.31Z" fill="#fff"/><path d="M20,93.29a1.41,1.41,0,0,0,0,.2h0a.56.56,0,0,0,0,.12.63.63,0,0,0,.47.27l2.33.49.37.08.37.08.67.14c.32.06.65.12,1,.16A4.46,4.46,0,0,0,27,94.72a.27.27,0,0,0,.13-.07.22.22,0,0,0,0-.16.86.86,0,0,0-.06-.23,1.64,1.64,0,0,0-.35-.58,1.85,1.85,0,0,0-.14-.14,5.21,5.21,0,0,0-.91-.62l-.54-.31-.1-.06-.42-.24-.1,0-.32-.19L24,91.91l-.09-.06a1.75,1.75,0,0,1-.33-.28.5.5,0,0,1-.07-.25.76.76,0,0,1,0-.15h0c0-.33,0-.72-.14-.65h0a2.73,2.73,0,0,1-1.13-.22c-.49-.18-1-.38-1-.39h0c0,.1-.06.19-.1.29-.12.27-.28.53-.43.8A5.69,5.69,0,0,0,20,93.29Z" fill="#d55ba0"/><path d="M23.43,91.19c-.26.3-.53.58-.8.86-.06,0,0,.14.07.09.28-.29.56-.58.82-.88a.06.06,0,0,0-.09-.07Z" fill="#2b303c"/><path d="M24,91.71a4.6,4.6,0,0,0-.78,1.17c0,.06.07.1.1,0a4.67,4.67,0,0,1,.78-1.15s-.05-.11-.1-.06Z" fill="#2b303c"/><path d="M24.63,92.13a3.66,3.66,0,0,0-.44.94c0,.07.08.11.1,0a4.05,4.05,0,0,1,.43-.92.05.05,0,1,0-.09-.06Z" fill="#2b303c"/><path d="M25.12,92.46a2.73,2.73,0,0,0-.29.83c0,.07.1.08.11,0a2.93,2.93,0,0,1,.28-.8c0-.06-.07-.1-.1,0Z" fill="#2b303c"/><path d="M20,93.2a.7.7,0,0,0,0,.29h0a.59.59,0,0,0,.47.26l2.32.47.37.08.24,0,.79.15c.33.06.65.11,1,.15A4.46,4.46,0,0,0,27,94.54a.27.27,0,0,0,.13-.07.22.22,0,0,0,0-.16.07.07,0,0,0,0,0,1.44,1.44,0,0,0-.36-.69.37.37,0,0,1,0,.11.55.55,0,0,1-.05.17.81.81,0,0,1-.34.32,1.61,1.61,0,0,1-1,.2,5.2,5.2,0,0,1-1.2-.37,7.35,7.35,0,0,0-1.39-.31c-.57-.08-1.15-.13-1.71-.25a.74.74,0,0,1-.73-.75,2.46,2.46,0,0,1,.26-1.28c.1-.22.24-.41.35-.63a1.14,1.14,0,0,0,.11-.57v0a7.59,7.59,0,0,1-.44.79A5.87,5.87,0,0,0,20,93.2Z" fill="#c3cde0"/><polygon points="34.83 52.21 34.57 54.27 33.53 53.94 33.88 52.21 34.83 52.21" fill="#20242b"/><path d="M37.09,81.19a6.14,6.14,0,0,0-2.89,0c-1.1.22-2.8-1.14-4.47-1.21a10.45,10.45,0,0,0-2.85.64,3.64,3.64,0,0,1-2.54,0c-1.81-.83-3.72.57-3.76.61A33.09,33.09,0,0,0,21,73.94c-.08-5.08,2.12-12.13,3.76-14.33,1.46-2,1.39-3.09.55-5.3l-.07-.19L25,53.43a5.29,5.29,0,0,1-.41-2.28,4.65,4.65,0,0,1,2-3.54c1.29-.85,3.33-.06,5,.7s3.65,1.55,3.65,1.55l-.36,2.34h-1c.38,1.56-.53,3.81-1.47,3.88-.11,0-.24.61-.33,1.28-.06.39-.1.8-.13,1.13-.07.9,1,4.27,1.88,7.49.25.93.49,1.85.68,2.69C35.34,72.45,37.09,81.19,37.09,81.19Z" fill="#2b303c"/><path d="M28.3,48.32a7.39,7.39,0,0,0-2.74.24,4.58,4.58,0,0,1,1-1,2.35,2.35,0,0,1,.45-.22,2.5,2.5,0,0,1,.39-.11,1.43,1.43,0,0,1,.29,0A4.07,4.07,0,0,1,28.3,48.32Z" fill="#20242b"/><path d="M27.47,47.81c.14.5,1.43.67,2.94,1h0c1.5.3,1.93-.13.66-.72a1.67,1.67,0,0,1-1-1A5.66,5.66,0,0,1,30,45.63l-.85-.14-.26,0-1.43-.22A15.3,15.3,0,0,0,27.47,47.81Z" fill="#845c4f"/><path d="M27.47,47.81c.14.5,1.43.67,2.94,1h0a4.08,4.08,0,0,0-1-.54c-1.16-.47-.84-1.25,0-1.47a5.41,5.41,0,0,0-.53-1.29l0,0-1.43-.22A15.3,15.3,0,0,0,27.47,47.81Z" fill="#755143"/><path d="M27.56,45.18a2.31,2.31,0,0,0,2.49,1.87A5.66,5.66,0,0,1,30,45.63l-.85-.14A3.13,3.13,0,0,1,27.56,45.18Z" fill="#63443b"/><path d="M26.87,39.66,27.1,44a2.43,2.43,0,0,0,4.09,1.63,2.4,2.4,0,0,0,.75-1.89l-.09-1.64-.09-1.65-.05-1.07Z" fill="#845c4f"/><path d="M23.58,47.24a1.11,1.11,0,0,0,1.21.06,2.9,2.9,0,0,1,.6-.38c.37-.13.76.1,1.12.27s1.24.54,1.47.22-.55-1.12-.47-1.63a3.85,3.85,0,0,1,.31-.86.76.76,0,0,0,.1-.3c.07-.61-.68-1.16-.43-1.72a.79.79,0,0,1,.19-.26c.2-.18.47-.32.55-.58s-.11-.63-.1-1c0-.53.57-.88,1.09-1a3.66,3.66,0,0,0,1.52-.47,1.25,1.25,0,0,0,.34-1.45l0,.19a.69.69,0,0,0-.42-.73,1.36,1.36,0,0,0-.89,0c-.3.08-.58.2-.87.27-.55.11-1.11,0-1.66.07A1.3,1.3,0,0,0,26,38.9a3.45,3.45,0,0,1-.07.72c-.25.62-1.36.44-1.6,1.06s.47,1.22.13,1.7-.88.28-1.07.66a.76.76,0,0,0,.13.69,2,2,0,0,1,.37.63,1.24,1.24,0,0,1-.24.9,3.34,3.34,0,0,0-.45.83A1.14,1.14,0,0,0,23.58,47.24Z" fill="#1a2e35"/><path d="M33.06,46.28c.13-.1.27-.19.41-.28a2.5,2.5,0,0,0,1-1,1.18,1.18,0,0,0-.34-1.41l-.27-.15c.36.94.31,1.64-.29,2.15A1.39,1.39,0,0,0,33.06,46.28Z" fill="#1a2e35"/><path d="M27.55,44.25a1.85,1.85,0,0,1,.27.67.76.76,0,0,0,.1-.3c.07-.61-.68-1.16-.43-1.72a.79.79,0,0,1,.19-.26,3.91,3.91,0,0,0-.79-.34C26.58,42.7,27,43.37,27.55,44.25Z" fill="#1e272b"/><path d="M28.38,42.2c-.44-.51-1.53-.79-1.66.19S28,43.64,28,43.64Z" fill="#845c4f"/><path d="M30.2,39.9a5,5,0,0,0,1.65,2.22l-.09-1.65A7.81,7.81,0,0,0,30.2,39.9Z" fill="#755143"/><path d="M30,39.7a4.19,4.19,0,0,0,2.82,1.52,7.62,7.62,0,0,0-.47-1.82A3,3,0,0,0,31.18,38a1.89,1.89,0,0,0-1.8-.07S28.81,38.1,30,39.7Z" fill="#1a2e35"/><path d="M27.82,40.23a0,0,0,0,1,0,0,1.12,1.12,0,0,1,.17-.2l.18-.15a2.24,2.24,0,0,1,.4-.22l.21-.06.12,0H29a1,1,0,0,1,.25,0h.27l-.11-.08-.12-.08a.86.86,0,0,0-.27-.09,1.37,1.37,0,0,0-.29,0l-.15,0-.08,0-.07,0a1,1,0,0,0-.47.36.94.94,0,0,0-.14.26l0,.14A.45.45,0,0,0,27.82,40.23Z" fill="#d55ba0"/><path d="M20.58,81.17s2-1.44,3.76-.61a3.64,3.64,0,0,0,2.54,0,35.89,35.89,0,0,1-2.34-8.14c-1-6.42,1.61-13.25,2.07-14.64.4-1.22-.29-2.13-1.36-3.7.9,2.34,1,3.47-.48,5.49-1.64,2.2-3.84,9.25-3.76,14.33A33.09,33.09,0,0,1,20.58,81.17Z" fill="#20242b"/><path d="M34.83,52.21l-.61.76s-1.54-3.57-2.42-4.41a14.52,14.52,0,0,1,2.42,2.59C34.49,51.6,34.69,52,34.83,52.21Z" fill="#20242b"/><path d="M33.83,66C32,64.71,29,62.56,28.3,61.49c-1-1.6-1.1-4.31-2.13-6-.25-.4-.55-.81-.85-1.2l-.07-.19L25,53.43a5.29,5.29,0,0,1-.41-2.28c1.05-.2,2.49-.16,3.22.73,1.24,1.49,1.73-1.31,1.73-1.31a6.83,6.83,0,0,1,2.68,4.83l-.39.43a9.94,9.94,0,0,0,.28,1.54c-.06.39-.1.8-.13,1.13C31.88,59.4,33,62.77,33.83,66Z" fill="#20242b"/><path d="M38.11,66.25l-.06,0a18.19,18.19,0,0,1-1.51-1.38h0l0,0-.5-.52-.22-.23.09-.12.9-1.12,0,0h.07l1.08.14.37,0a1.48,1.48,0,0,0,.47,0,2,2,0,0,0,.56-.2.2.2,0,0,1,.26,0,.16.16,0,0,1,0,.15,1.58,1.58,0,0,1-1,.54c-.23,0-.24.13-.16.23a2.61,2.61,0,0,0,.67.47,5.46,5.46,0,0,1,1.17.85.16.16,0,0,1,0,.12c-.06.08-.22.08-.43,0a3.7,3.7,0,0,0-1.21-.51.05.05,0,0,0,0,0c-.08.15,1.4,1,1.4,1s.28.1.27.25l0,0c-.16.33-1.66-.66-1.8-.76a.08.08,0,0,0-.08,0,.09.09,0,0,0,0,.17c.11.07,1.49.79,1.33,1.13h0c-.14.24-1.24-.81-1.61-.8s.93.72.8,1C38.78,66.65,38.74,66.71,38.11,66.25Z" fill="#845c4f"/><path d="M28.11,59.51l0,0a0,0,0,0,1,0,0h0c0-.23-.55-2.14-1.08-4l1.79-.26,2.09-.3h.07a12.32,12.32,0,0,0,.33,2.85c.29.34,5.41,4.72,5.62,5.09a0,0,0,0,0,0,0,4.35,4.35,0,0,1-.82,1.41l0,0A47.94,47.94,0,0,1,28.11,59.51Z" fill="#845c4f"/><path d="M36.52,64.8l-.5-.52a47.94,47.94,0,0,1-7.91-4.77l0,0a0,0,0,0,1,0,0h0c0-.23-.55-2.14-1.08-4l1.79-.26,2.09-.3c-.38.24-2.25,1.46-2.24,1.79a27.83,27.83,0,0,0,.69,3.05c.27.9,6.44,4.21,6.44,4.21v-.46a1.45,1.45,0,0,0,.13.47c.06.09.12.2.18.3a1.89,1.89,0,0,0,.25.3,1,1,0,0,1,.22.29Z" fill="#755143"/><path d="M31.5,55l-4.93,1.37s-1.29-4-.46-5.67a2.44,2.44,0,0,1,4.45.31A8.84,8.84,0,0,1,31.5,55Z" fill="#20242b"/></svg>