<svg id="Layer_1" data-name="Layer 1" xmlns="http://www.w3.org/2000/svg" xmlns:xlink="http://www.w3.org/1999/xlink" width="38.75mm" height="38.75mm" viewBox="0 0 109.85 109.85"><defs><linearGradient id="linear-gradient" x1="59.88" y1="84.44" x2="50.01" y2="35.93" gradientUnits="userSpaceOnUse"><stop offset="0" stop-color="#fff"/><stop offset="1" stop-color="#646e85"/></linearGradient></defs><g opacity="0.1"><path d="M25.81,70.54H11.62c-3.19,0-1.44-5,3.72-5.23s5.91-11.5.07-15-3.27-19.23,2.5-21.06,5.85-6,12.75-9.43S45,27.64,54.24,25.11,61,14.81,69.4,14.63s22.25,8.06,25,24.9S91.2,59,96.74,62.42s15.35,8.12-10.65,8.12Z" fill="url(#linear-gradient)"/></g><path d="M35.34,72.22a1.86,1.86,0,0,1-1.88-1.84V28.93a1.85,1.85,0,0,1,1.88-1.83H94.55a1.85,1.85,0,0,1,1.87,1.83V70.38a1.86,1.86,0,0,1-1.87,1.84Z" fill="#fff"/><path d="M94.55,27.54A1.42,1.42,0,0,1,96,28.93V70.38a1.41,1.41,0,0,1-1.43,1.39H35.34a1.41,1.41,0,0,1-1.43-1.39V28.93a1.42,1.42,0,0,1,1.43-1.39H94.55m0-.89H35.34A2.3,2.3,0,0,0,33,28.93V70.38a2.3,2.3,0,0,0,2.32,2.28H94.55a2.3,2.3,0,0,0,2.32-2.28V28.93a2.3,2.3,0,0,0-2.32-2.28Z" fill="#2b303c"/><path d="M96.87,28.93v2.56H33V28.93a2.3,2.3,0,0,1,2.32-2.28H94.55A2.3,2.3,0,0,1,96.87,28.93Z" fill="#4c5463"/><path d="M51.25,26.65l-4.92,4.84H33V28.93a2.3,2.3,0,0,1,2.32-2.28Z" fill="#2b303c"/><circle cx="38.26" cy="29.23" r="0.76" fill="#ece668"/><circle cx="41.35" cy="29.23" r="0.76" fill="#d55ba0"/><circle cx="44.43" cy="29.23" r="0.76" fill="#48a69e"/><path d="M89.23,39.12V50.21c0,.34-.79.61-1.76.61h-45c-1,0-1.76-.27-1.76-.61V39.12c0-.34.79-.61,1.76-.61H87.47C88.44,38.51,89.23,38.78,89.23,39.12Z" fill="#e8e8e8"/><path d="M55.45,56v11.1a.58.58,0,0,1-.54.61H41.2a.58.58,0,0,1-.54-.61V56a.58.58,0,0,1,.54-.61H54.91A.58.58,0,0,1,55.45,56Z" fill="#e8e8e8"/><path d="M87.85,55.66v4.26c0,.13-.43.23-1,.23H62.06c-.54,0-1-.1-1-.23V55.66c0-.13.43-.23,1-.23H86.88C87.42,55.43,87.85,55.53,87.85,55.66Z" fill="#e8e8e8"/><path d="M87.85,62.57v4.26c0,.12-.43.23-1,.23H62.06c-.54,0-1-.11-1-.23V62.57c0-.13.43-.24,1-.24H86.88C87.42,62.33,87.85,62.44,87.85,62.57Z" fill="#e8e8e8"/><path d="M16.84,56.52l.44,5.69a5.62,5.62,0,0,1-.94,0,3.23,3.23,0,0,1-.47-.11L15.7,62l-.26-.12a2.56,2.56,0,0,1-1.33-1.77c-.06-.23-.34-3.36-.36-3.61Z" fill="#ffbe9d"/><path d="M16.74,54.82l.54,7.39a5.62,5.62,0,0,1-.94,0,3.23,3.23,0,0,1-.47-.11L15.7,62c-.79-.58-1.33-6-1.47-7Z" fill="#fcac88"/><path d="M13.72,98.23a.54.54,0,0,1-.29.35,1.28,1.28,0,0,1-.66.11c-.4,0-1.26-1.11-1.26-1.11l2.24-12.81,5.54.38L13.73,98.26" fill="#fcac88"/><path d="M14.76,95.76c-.48,1.09-1,2.25-1,2.47a.54.54,0,0,1-.29.35C13,97.9,13.48,96.7,14.76,95.76Z" fill="#ffbe9d"/><path d="M13.73,98.26c.28-.1,0,.89.21,1.12a2.9,2.9,0,0,0,.71.54l1.55.94a4.78,4.78,0,0,1,.94.68,1.76,1.76,0,0,1,.56,1,.25.25,0,0,1,0,.17.27.27,0,0,1-.13.07,4.65,4.65,0,0,1-1.93.07c-.34,0-.69-.12-1-.19l-1.09-.26-.39-.09-2.43-.58c-.2,0-.42-.11-.5-.3a.61.61,0,0,1,0-.33,6.28,6.28,0,0,1,.78-2.4,5.49,5.49,0,0,0,.58-1.13S13.32,98.42,13.73,98.26Z" fill="#48a69e"/><path d="M13.82,99c-.27.3-.56.6-.86.88-.06.05,0,.15.07.09.31-.29.61-.59.89-.9.05-.06-.05-.13-.1-.07Z" fill="#35726a"/><path d="M14.41,99.52a5.18,5.18,0,0,0-.86,1.22c0,.07.08.11.11,0a5.17,5.17,0,0,1,.84-1.18c.06-.06,0-.13-.09-.08Z" fill="#35726a"/><path d="M15.07,100a3.81,3.81,0,0,0-.49,1c0,.07.09.11.11,0a3.6,3.6,0,0,1,.48-1,.06.06,0,0,0-.1-.07Z" fill="#35726a"/><path d="M15.57,100.34a3,3,0,0,0-.32.87c0,.07.1.09.12,0a2.78,2.78,0,0,1,.31-.83c0-.07-.07-.11-.11,0Z" fill="#35726a"/><path d="M17.27,101.55a.43.43,0,0,1-.05.29.88.88,0,0,1-.36.33,1.65,1.65,0,0,1-1,.19,5.11,5.11,0,0,1-1.25-.42,27.27,27.27,0,0,0-3.26-.66,1,1,0,0,1-.61-.34.84.84,0,0,1-.14-.47,2.59,2.59,0,0,1,.3-1.34c.12-.22.27-.43.38-.65a1.22,1.22,0,0,0,.14-.64c-.14.28-.32.55-.48.82a5.71,5.71,0,0,0-.79,2.34.58.58,0,0,0,0,.32c.08.18.3.24.49.29l2.43.54.39.09,1.08.24c.34.07.69.13,1,.18a4.77,4.77,0,0,0,1.92-.09.21.21,0,0,0,.13-.07.29.29,0,0,0,0-.16A1.54,1.54,0,0,0,17.27,101.55Z" fill="#fff"/><path d="M28.86,97.31a.56.56,0,0,1-.24.39,1.46,1.46,0,0,1-.64.2c-.4,0-1.4-1-1.4-1l.32-11.72,5.58-.86-3.61,13" fill="#fcac88"/><path d="M29.57,94.73c-.33,1.14-.68,2.36-.71,2.58a.56.56,0,0,1-.24.39C28.13,97.08,28.42,95.83,29.57,94.73Z" fill="#ffbe9d"/><path d="M28.87,97.34c.26-.14.13.89.35,1.09a2.85,2.85,0,0,0,.78.44l1.65.73a5.34,5.34,0,0,1,1,.55,1.76,1.76,0,0,1,.68.93.2.2,0,0,1,0,.17.23.23,0,0,1-.12.09,4.53,4.53,0,0,1-1.9.32c-.35,0-.69,0-1-.06l-1.12-.11-.4,0-2.49-.26a.69.69,0,0,1-.53-.23.75.75,0,0,1-.07-.33,6.27,6.27,0,0,1,.46-2.47A5.29,5.29,0,0,0,26.58,97S28.48,97.56,28.87,97.34Z" fill="#48a69e"/><path d="M29.05,98c-.23.34-.48.67-.74,1,0,.06,0,.14.09.08.27-.32.52-.66.76-1,0-.06-.06-.12-.11-.06Z" fill="#35726a"/><path d="M29.71,98.51A4.7,4.7,0,0,0,29,99.82c0,.07.09.1.11,0a4.77,4.77,0,0,1,.68-1.28c.05-.06-.06-.12-.1-.06Z" fill="#35726a"/><path d="M30.42,98.87a4.25,4.25,0,0,0-.35,1c0,.08.1.11.11,0a3.62,3.62,0,0,1,.35-1c0-.07-.07-.13-.11-.06Z" fill="#35726a"/><path d="M31,99.17a2.81,2.81,0,0,0-.21.9c0,.07.11.07.12,0a2.9,2.9,0,0,1,.2-.87c0-.07-.08-.1-.11,0Z" fill="#35726a"/><path d="M32.81,100.14a.61.61,0,0,1,0,.3.91.91,0,0,1-.32.38,1.85,1.85,0,0,1-1,.32,5.79,5.79,0,0,1-1.29-.26,28,28,0,0,0-3.32-.24,1,1,0,0,1-.65-.25.87.87,0,0,1-.19-.45,2.47,2.47,0,0,1,.12-1.37c.09-.23.21-.45.29-.69a1.21,1.21,0,0,0,.05-.65,8.24,8.24,0,0,1-.37.88,6.06,6.06,0,0,0-.48,2.41.58.58,0,0,0,.07.32c.1.17.33.2.52.22l2.48.23.39,0,1.12.1c.34,0,.69,0,1,0a4.71,4.71,0,0,0,1.9-.34.22.22,0,0,0,.12-.09.18.18,0,0,0,0-.16A1.57,1.57,0,0,0,32.81,100.14Z" fill="#fff"/><path d="M18.33,65.06,12.94,84.9,19.72,86,23.6,70.29s2.49,6.38,2.74,9.18a41.09,41.09,0,0,1-.21,6.77h6.68A48,48,0,0,0,32,76.39c-1-4.2-1.74-10.74-3.32-13S18.33,65.06,18.33,65.06Z" fill="#122a30"/><path d="M30.64,51.76l-.09.05c-.28.12-.55.25-.81.38l-.1,0-2.53,1.2h0v0c.07.68.1,1.44.13,2.22l.17,2.84v.14l.05.11,2.32,5.44-5.07.74L17.18,66l.22-2.47-.29-3.8-.25-3-3,.25a1.09,1.09,0,0,1,0-.18.81.81,0,0,1,0-.16c0-.25,0-.52,0-.78a12.69,12.69,0,0,1,1.37-4.48,5.5,5.5,0,0,1,1.05-1.3l.25-.19a3.26,3.26,0,0,1,1.07-.49,27.2,27.2,0,0,1,5.66-.86l.27,0,.64,0a12.34,12.34,0,0,1,1.62.06s1.15-.21,2.48-.49h0l1.1-.23h0Z" fill="#d55ba0"/><path d="M23.94,48.65s-6.33,2-7.41,4a9.85,9.85,0,0,0-1.24,3.56,14.74,14.74,0,0,1-1.49.43c0-.25,0-.52,0-.78a12.69,12.69,0,0,1,1.37-4.48,5.5,5.5,0,0,1,1.05-1.3l.25-.19a3.26,3.26,0,0,1,1.07-.49,27.2,27.2,0,0,1,5.66-.86Z" fill="#c6589c"/><path d="M34.64,49.93a.12.12,0,0,1,0,0l0,0h0c-.24.06-2.11.92-3.92,1.76L30.08,50l-.66-2.1,0-.07A13.8,13.8,0,0,0,32.28,47c.3-.36,4-6.34,4.31-6.61,0,0,0,0,0,0a4.35,4.35,0,0,1,1.58.6l.06.05C38.45,41.19,35.37,49.12,34.64,49.93Z" fill="#ffbe9d"/><path d="M38.7,40.42l-.45.61c.2.16-2.88,8.09-3.61,8.9a.12.12,0,0,1,0,0l0,0h0c-.24.06-2.11.92-3.92,1.76L30.08,50l-.66-2.1c.32.35,1.88,2.08,2.21,2a27.51,27.51,0,0,0,3-1.21c.88-.41,3.18-7,3.18-7l-.56-.19a1.77,1.77,0,0,0,.64-.21,2.55,2.55,0,0,0,.55-.53,1.23,1.23,0,0,1,.25-.28Z" fill="#fcac88"/><path d="M24.22,45.37a1.17,1.17,0,0,1-1.1,1.05h-.19L23,47l.14,1.26-3.21.37L19.48,46l-.78-4.76,4.68-1.72S24.29,44.66,24.22,45.37Z" fill="#ffbe9d"/><path d="M11.91,56.93l0-.08A.34.34,0,0,1,11.91,56.93Z" fill="#d32a3b"/><path d="M29.78,64.2s-1.71-3.21-3-5-1.26-4.45.27-5.78c.17,1.55.11,3.53.31,5.2Z" fill="#d179af"/><path d="M23.94,48.65l-.8.16a18.72,18.72,0,0,1-4,.24L19,47.91a14.53,14.53,0,0,0,2.72,0,14,14,0,0,0,2.12-.37Z" fill="#d179af"/><path d="M30.55,51.81c-.28.12-.55.25-.81.38l-.26.12L28.24,48h0l1.1-.23Z" fill="#c6589c"/><path d="M16.78,55.76l.06.76-3,.25a6,6,0,0,1,0-.94Z" fill="#c6589c"/><polygon points="13.84 56.95 13.07 57.01 12.99 56.07 16.91 55.75 16.98 56.69 13.84 56.95" fill="#d179af"/><polygon points="28.25 47.79 29.52 47.44 31 52.08 29.95 52.61 28.25 47.79" fill="#d179af"/><path d="M24.71,64.94,17.18,66l.22-2.47-.29-3.8-.25-3s2.34,6.75,3.44,7.14C21.14,64.14,23.59,64.69,24.71,64.94Z" fill="#c6589c"/><path d="M23.44,48.11c-.14.35-.15.56-.3.7a18.72,18.72,0,0,1-4,.24L19,47.91a14.53,14.53,0,0,0,2.72,0Z" fill="#c6589c"/><path d="M24.15,40a5,5,0,0,1-.54,2.39c-.1.32,0,.95-.32,1s-.37-.71-.52-.71a.78.78,0,0,0-.73.64c-.08.34.3,1.36.69,1.31a1.51,1.51,0,0,0,.32,1.22s.9,2.25.29,2.53l-.37.16a3.52,3.52,0,0,1-2.33.37l-.24-.73,0,.66A2.38,2.38,0,0,1,18,47.7a1.74,1.74,0,0,1-.1-.88l-.18,0a1.43,1.43,0,0,1-.91-.66.6.6,0,0,1,0-.62,1.24,1.24,0,0,1,.5-.29A1.7,1.7,0,0,0,18.22,44a2.42,2.42,0,0,0,0-.66,4.26,4.26,0,0,1-.28-.78,2.74,2.74,0,0,1,.93-2.7l.28-.21a1.26,1.26,0,0,1-.67-.26,1,1,0,0,1-.21-.21,1.11,1.11,0,0,1,0-1.33,1,1,0,0,1,1.29-.19A1.17,1.17,0,0,1,20,38.87a2.13,2.13,0,0,1-.18.41c.14-.07.29-.15.44-.21A4.84,4.84,0,0,1,22,38.64a2.32,2.32,0,0,1,1.66.42L23.61,39C24.16,38.58,24.7,39.35,24.15,40Z" fill="#263238"/><path d="M23,48.49a3.52,3.52,0,0,1-2.33.37l-.24-.73,0,.66A2.38,2.38,0,0,1,18,47.7a1.74,1.74,0,0,1-.1-.88l-.18,0a1.43,1.43,0,0,1-.91-.66.6.6,0,0,1,0-.62,1.24,1.24,0,0,1,.5-.29A1.7,1.7,0,0,0,18.22,44a2.42,2.42,0,0,0,0-.66,4.26,4.26,0,0,1-.28-.78,2.74,2.74,0,0,1,.93-2.7l.28-.21a1.26,1.26,0,0,1-.67-.26,5.08,5.08,0,0,1,.93.3,2.3,2.3,0,0,0,.64,3.55c.89.51.43,1.2.47,2.13s1-.21,1.33.43,1.05.88,1.12,2A3.75,3.75,0,0,1,23,48.49Z" fill="#0d1d21"/><path d="M19.9,39a1.42,1.42,0,0,1-1,.52s0,.18.09.21a1.68,1.68,0,0,0,.89-.34C20.15,39.16,19.9,39,19.9,39Z" fill="#d55ba0"/><path d="M36.42,40.13a1.38,1.38,0,0,0,.41,1.09,1.36,1.36,0,0,0,1,.15A1.75,1.75,0,0,0,39,39.45c-.18-.89-1.13-.61-1.53-.68s.54-1.79.21-2.14-.91,1.27-1.15,2.78C36.47,39.65,36.44,39.9,36.42,40.13Z" fill="#ffbe9d"/><rect x="35.14" y="30.37" width="72.83" height="35.53" rx="5.39" transform="translate(23.09 119.48) rotate(-89.74)" fill="#2b303c"/><path d="M83.93,14l-4.8,0A1.2,1.2,0,0,0,78,15.15V16a1.2,1.2,0,0,1-1.17,1.21l-9.36,0A1.2,1.2,0,0,1,66.27,16v-.87a1.2,1.2,0,0,0-1.17-1.22H63.43l-4.2,0a3.78,3.78,0,0,0-3.8,3.76l-.25,60.57A3.77,3.77,0,0,0,58.94,82l24.7.11a3.77,3.77,0,0,0,3.79-3.76l.26-60.56A3.77,3.77,0,0,0,83.93,14Z" fill="#fff"/><path d="M70.08,76.35a.51.51,0,1,1-.51-.55A.53.53,0,0,1,70.08,76.35Z" fill="#455a64"/><path d="M71.66,76.36a.53.53,0,0,1-.52.54.55.55,0,0,1,0-1.09A.53.53,0,0,1,71.66,76.36Z" fill="#455a64"/><path d="M73.24,76.36a.53.53,0,0,1-.52.54.51.51,0,0,1-.5-.54.51.51,0,1,1,1,0Z" fill="#455a64"/><path d="M81.37,40.28a9.94,9.94,0,1,1-9.94-9.94,9.76,9.76,0,0,1,3.87.78" fill="#fff" stroke="#626c87" stroke-miterlimit="10" stroke-width="1.21"/><path d="M65.09,39.8l1.6-1.61,4,4.07,8.8-8.8,1.61,1.61L70.69,45.48Z" fill="#45a69e"/></svg>