<svg id="Layer_1" data-name="Layer 1" xmlns="http://www.w3.org/2000/svg" xmlns:xlink="http://www.w3.org/1999/xlink" width="38.75mm" height="38.75mm" viewBox="0 0 109.85 109.85"><defs><linearGradient id="linear-gradient" x1="60.54" y1="89.99" x2="50.67" y2="41.47" gradientUnits="userSpaceOnUse"><stop offset="0" stop-color="#fff"/><stop offset="1" stop-color="#646e85"/></linearGradient></defs><g opacity="0.1"><path d="M26.47,76.09H12.28c-3.19,0-1.44-5,3.72-5.23s5.91-11.5.07-15-3.27-19.23,2.5-21.06,5.85-5.95,12.75-9.43,14.31,7.79,23.58,5.26,6.76-10.3,15.16-10.49,22.25,8.06,25,24.91S91.86,64.5,97.4,68s15.35,8.12-10.65,8.12Z" fill="url(#linear-gradient)"/></g><rect x="24.24" y="24.47" width="72.83" height="35.53" rx="5.39" transform="translate(18.14 102.7) rotate(-89.74)" fill="#2b303c"/><path d="M73,8.05,68.23,8a1.19,1.19,0,0,0-1.17,1.22v.87a1.19,1.19,0,0,1-1.17,1.21l-9.35,0a1.2,1.2,0,0,1-1.16-1.23V9.19A1.19,1.19,0,0,0,54.21,8H52.52l-4.2,0a3.77,3.77,0,0,0-3.79,3.76l-.26,60.57A3.78,3.78,0,0,0,48,76.06l24.7.11a3.78,3.78,0,0,0,3.8-3.76l.25-60.56A3.78,3.78,0,0,0,73,8.05Z" fill="#fff"/><path d="M59.17,70.45a.53.53,0,0,1-.51.54.53.53,0,0,1-.51-.55.51.51,0,1,1,1,0Z" fill="#455a64"/><path d="M60.75,70.45a.53.53,0,0,1-.51.55.54.54,0,0,1-.51-.55.53.53,0,0,1,.51-.54A.52.52,0,0,1,60.75,70.45Z" fill="#455a64"/><path d="M62.33,70.46a.51.51,0,1,1-1,0,.52.52,0,0,1,.51-.54A.53.53,0,0,1,62.33,70.46Z" fill="#455a64"/><rect x="49.56" y="33.23" width="22.3" height="3.68" rx="1.09" fill="#c1c5ce"/><circle cx="60.71" cy="24.37" r="6.08" transform="translate(-3.12 10.04) rotate(-9.22)" fill="#d55b9f"/><path d="M60.7,20.29a1.91,1.91,0,0,0-1.9,1.92,1.86,1.86,0,0,0,.41,1.18,1.91,1.91,0,0,0,3,0,1.86,1.86,0,0,0,.41-1.18A1.91,1.91,0,0,0,60.7,20.29Z" fill="#fff"/><path d="M57.33,26.13v1.41c0,1.21,6.76,1.21,6.76,0V26.13C63.82,24.2,57.88,24.12,57.33,26.13Z" fill="#fff"/><rect x="49.56" y="38.93" width="22.3" height="3.68" rx="1.09" fill="#c1c5ce"/><path d="M30.26,54.92l.44,5.68a4,4,0,0,1-.94,0,3,3,0,0,1-.47-.1l-.17-.06-.26-.11a2.62,2.62,0,0,1-1.34-1.78c-.05-.22-.33-3.35-.35-3.6Z" fill="#ffbe9d"/><path d="M30.16,53.22l.54,7.38a4,4,0,0,1-.94,0,3,3,0,0,1-.47-.1l-.17-.06c-.8-.57-1.33-6-1.48-7Z" fill="#fcac88"/><path d="M27.14,96.62a.57.57,0,0,1-.29.36,1.44,1.44,0,0,1-.66.11c-.41,0-1.27-1.12-1.27-1.12l2.24-12.81,5.54.39L27.15,96.66" fill="#fcac88"/><path d="M28.18,94.15c-.48,1.09-1,2.26-1,2.47a.57.57,0,0,1-.29.36C26.45,96.3,26.9,95.1,28.18,94.15Z" fill="#ffbe9d"/><path d="M27.15,96.66c.27-.11,0,.89.2,1.12a3.41,3.41,0,0,0,.71.54l1.55.94a5.25,5.25,0,0,1,.95.67,1.78,1.78,0,0,1,.55,1c0,.06,0,.13,0,.17a.21.21,0,0,1-.13.07,4.44,4.44,0,0,1-1.92.08c-.35-.05-.69-.12-1-.2l-1.09-.25-.39-.09-2.44-.58a.68.68,0,0,1-.49-.3.64.64,0,0,1,0-.34,6.28,6.28,0,0,1,.77-2.39A4.9,4.9,0,0,0,24.92,96S26.73,96.82,27.15,96.66Z" fill="#48a69e"/><path d="M27.24,97.36c-.28.31-.56.6-.86.89a.06.06,0,1,0,.07.09,12.6,12.6,0,0,0,.88-.91c.05-.05,0-.12-.09-.07Z" fill="#35726a"/><path d="M27.82,97.92A5.08,5.08,0,0,0,27,99.13c0,.07.07.12.11.05A4.93,4.93,0,0,1,27.92,98s0-.12-.1-.07Z" fill="#35726a"/><path d="M28.49,98.38a3.6,3.6,0,0,0-.49,1c0,.07.08.12.11,0a3.72,3.72,0,0,1,.47-1c.05-.07,0-.14-.09-.07Z" fill="#35726a"/><path d="M29,98.74a3,3,0,0,0-.32.86c0,.08.1.09.11,0a3,3,0,0,1,.32-.83c0-.07-.07-.11-.11-.05Z" fill="#35726a"/><path d="M30.69,99.94a.52.52,0,0,1-.05.3.91.91,0,0,1-.37.33,1.8,1.8,0,0,1-1,.19,5.93,5.93,0,0,1-1.25-.42,27.13,27.13,0,0,0-3.25-.67.76.76,0,0,1-.75-.8,2.52,2.52,0,0,1,.29-1.35c.12-.22.28-.42.39-.65a1.09,1.09,0,0,0,.13-.64,8.52,8.52,0,0,1-.48.83,6,6,0,0,0-.79,2.33.61.61,0,0,0,0,.33c.08.18.3.24.49.28l2.42.55.39.09,1.09.23c.34.07.68.14,1,.19a4.81,4.81,0,0,0,1.93-.09.21.21,0,0,0,.13-.07.23.23,0,0,0,0-.16A1.6,1.6,0,0,0,30.69,99.94Z" fill="#fff"/><path d="M42.27,95.71a.52.52,0,0,1-.24.39,1.34,1.34,0,0,1-.64.19c-.4,0-1.4-.94-1.4-.94l.33-11.73,5.57-.85-3.6,13" fill="#fcac88"/><path d="M43,93.12c-.33,1.15-.67,2.37-.71,2.59a.52.52,0,0,1-.24.39C41.55,95.47,41.84,94.22,43,93.12Z" fill="#ffbe9d"/><path d="M42.29,95.74c.26-.14.13.88.35,1.08a2.83,2.83,0,0,0,.77.45l1.66.73a4.58,4.58,0,0,1,1,.55,1.78,1.78,0,0,1,.69.93.33.33,0,0,1,0,.17.32.32,0,0,1-.12.08,4.7,4.7,0,0,1-1.9.33q-.52,0-1-.06l-1.11-.11-.4,0-2.49-.25a.65.65,0,0,1-.53-.24.58.58,0,0,1-.07-.32,6.18,6.18,0,0,1,.46-2.48,5.19,5.19,0,0,0,.42-1.2S41.9,96,42.29,95.74Z" fill="#48a69e"/><path d="M42.47,96.43c-.23.34-.48.67-.74,1,0,.06,0,.14.08.08.27-.33.52-.67.76-1,0-.07-.06-.13-.1-.06Z" fill="#35726a"/><path d="M43.12,96.9a5.54,5.54,0,0,0-.69,1.32c0,.07.09.1.12,0A5,5,0,0,1,43.23,97c0-.06-.06-.12-.11-.06Z" fill="#35726a"/><path d="M43.84,97.27a3.89,3.89,0,0,0-.36,1,.06.06,0,0,0,.12,0,3.65,3.65,0,0,1,.34-1,.06.06,0,1,0-.1-.06Z" fill="#35726a"/><path d="M44.38,97.57a3,3,0,0,0-.2.89c0,.08.11.08.12,0a2.84,2.84,0,0,1,.2-.86c0-.07-.09-.1-.12,0Z" fill="#35726a"/><path d="M46.22,98.54a.41.41,0,0,1,0,.29.74.74,0,0,1-.32.38,1.72,1.72,0,0,1-1,.33,5.88,5.88,0,0,1-1.3-.26A28,28,0,0,0,40.3,99a.94.94,0,0,1-.65-.25.92.92,0,0,1-.2-.45A2.65,2.65,0,0,1,39.57,97c.09-.24.22-.46.3-.7a1.19,1.19,0,0,0,.05-.65c-.1.3-.25.59-.37.88a5.91,5.91,0,0,0-.48,2.42.7.7,0,0,0,.06.32.67.67,0,0,0,.53.22l2.47.22.4,0,1.11.1c.35,0,.69,0,1,0a4.73,4.73,0,0,0,1.9-.33.24.24,0,0,0,.11-.09.22.22,0,0,0,0-.16A1.59,1.59,0,0,0,46.22,98.54Z" fill="#fff"/><path d="M31.75,63.45,26.35,83.3l6.78,1.07L37,68.69s2.48,6.37,2.73,9.18a41.44,41.44,0,0,1-.2,6.76h6.68a47.9,47.9,0,0,0-.84-9.84c-1-4.2-1.74-10.75-3.32-13S31.75,63.45,31.75,63.45Z" fill="#122a30"/><path d="M44.05,50.16l-.08,0-.82.38-.1.05-2.52,1.19h0v0c.07.68.1,1.44.13,2.22l.16,2.84,0,.13.05.12,2.31,5.44-5.06.73L30.6,64.42,30.81,62l-.29-3.8-.25-3-3,.24a1,1,0,0,0,0-.17V55a5.27,5.27,0,0,1,0-.79,13,13,0,0,1,1.36-4.48,5.7,5.7,0,0,1,1.06-1.29,2,2,0,0,1,.24-.19,3.21,3.21,0,0,1,1.08-.5,27.78,27.78,0,0,1,5.66-.86h.27l.64,0a9.48,9.48,0,0,1,1.61.06s1.15-.22,2.49-.5h0l1.09-.23h0Z" fill="#d55ba0"/><path d="M37.35,47.05s-6.33,2-7.41,4a10.18,10.18,0,0,0-1.24,3.57s-.69.24-1.48.43a5.27,5.27,0,0,1,0-.79,13,13,0,0,1,1.36-4.48,5.7,5.7,0,0,1,1.06-1.29,2,2,0,0,1,.24-.19,3.21,3.21,0,0,1,1.08-.5,27.78,27.78,0,0,1,5.66-.86C37.1,47,37.35,47.05,37.35,47.05Z" fill="#c6589c"/><path d="M48.06,48.33l-.05.05,0,0h0c-.23.05-2.1.91-3.92,1.76l-.56-1.8-.65-2.1,0-.07a13,13,0,0,0,2.87-.8c.3-.35,4-6.33,4.32-6.61h0a4.39,4.39,0,0,1,1.57.61l.06,0C51.87,39.59,48.78,47.52,48.06,48.33Z" fill="#ffbe9d"/><path d="M52.11,38.82l-.45.6c.21.17-2.88,8.1-3.6,8.91l-.05.05,0,0h0c-.23.05-2.1.91-3.92,1.76l-.56-1.8-.65-2.1c.31.35,1.88,2.08,2.2,2a27.52,27.52,0,0,0,3-1.21c.87-.42,3.18-7.05,3.18-7.05l-.56-.19a1.74,1.74,0,0,0,.63-.21l.28-.23a1.54,1.54,0,0,0,.27-.31,1.29,1.29,0,0,1,.26-.27Z" fill="#fcac88"/><path d="M37.63,43.76a1.16,1.16,0,0,1-1.1,1.05l-.19,0,.07.56.14,1.26L33.33,47l-.44-2.68-.77-4.77,4.68-1.71S37.71,43.06,37.63,43.76Z" fill="#ffbe9d"/><path d="M25.33,55.32l0-.07Z" fill="#d32a3b"/><path d="M43.19,62.6s-1.71-3.21-2.94-5-1.26-4.45.27-5.78c.16,1.54.1,3.52.31,5.19Z" fill="#d179af"/><path d="M37.35,47.05c-.26.06-.53.11-.79.15a18.23,18.23,0,0,1-4.05.24l-.09-1.13a15.32,15.32,0,0,0,2.71,0,14,14,0,0,0,2.13-.38Z" fill="#d179af"/><path d="M44,50.2l-.82.38-.26.12-1.23-4.27h0l1.09-.23Z" fill="#c6589c"/><path d="M30.2,54.16l.06.76-3,.25a7.66,7.66,0,0,1,0-1Z" fill="#c6589c"/><polygon points="27.26 55.34 26.48 55.41 26.41 54.47 30.32 54.15 30.4 55.09 27.26 55.34" fill="#d179af"/><polygon points="41.66 46.19 42.94 45.84 44.41 50.47 43.36 51 41.66 46.19" fill="#d179af"/><path d="M38.13,63.33,30.6,64.42,30.81,62l-.29-3.8-.25-3s2.35,6.75,3.45,7.14C34.56,62.54,37,63.09,38.13,63.33Z" fill="#c6589c"/><path d="M36.86,46.51c-.15.35-.15.55-.3.69a18.23,18.23,0,0,1-4.05.24l-.09-1.13a15.32,15.32,0,0,0,2.71,0Z" fill="#c6589c"/><path d="M37.57,38.38a5.18,5.18,0,0,1-.54,2.4c-.11.32,0,.95-.32,1s-.37-.71-.53-.72a.8.8,0,0,0-.72.65c-.08.34.3,1.36.69,1.31a1.49,1.49,0,0,0,.31,1.22s.91,2.25.29,2.53l-.36.16a3.52,3.52,0,0,1-2.33.37l-.25-.73,0,.65a2.37,2.37,0,0,1-2.37-1.08,1.78,1.78,0,0,1-.11-.88l-.18,0a1.39,1.39,0,0,1-.9-.66.6.6,0,0,1,0-.62,1.09,1.09,0,0,1,.5-.29,1.74,1.74,0,0,0,.92-1.27,2.43,2.43,0,0,0,0-.66,7.25,7.25,0,0,1-.28-.78,2.77,2.77,0,0,1,.93-2.7A3.06,3.06,0,0,1,32.6,38a1.29,1.29,0,0,1-.68-.26,1.34,1.34,0,0,1-.2-.21,1.11,1.11,0,0,1,0-1.33A1,1,0,0,1,33,36a1.15,1.15,0,0,1,.36,1.25,1.4,1.4,0,0,1-.19.41l.45-.21A5,5,0,0,1,35.41,37a2.38,2.38,0,0,1,1.67.42l0-.07C37.58,37,38.11,37.75,37.57,38.38Z" fill="#263238"/><path d="M36.39,46.89a3.52,3.52,0,0,1-2.33.37l-.25-.73,0,.65a2.37,2.37,0,0,1-2.37-1.08,1.78,1.78,0,0,1-.11-.88l-.18,0a1.39,1.39,0,0,1-.9-.66.6.6,0,0,1,0-.62,1.09,1.09,0,0,1,.5-.29,1.74,1.74,0,0,0,.92-1.27,2.43,2.43,0,0,0,0-.66,7.25,7.25,0,0,1-.28-.78,2.77,2.77,0,0,1,.93-2.7A3.06,3.06,0,0,1,32.6,38a1.29,1.29,0,0,1-.68-.26,4.54,4.54,0,0,1,.94.3,2.29,2.29,0,0,0,.64,3.54c.89.52.42,1.2.46,2.14s1-.21,1.34.43,1,.87,1.11,2A3.83,3.83,0,0,1,36.39,46.89Z" fill="#0d1d21"/><path d="M33.31,37.42a1.42,1.42,0,0,1-1,.52s0,.18.09.21a1.67,1.67,0,0,0,.88-.35C33.57,37.55,33.31,37.42,33.31,37.42Z" fill="#d55ba0"/><path d="M49.84,38.53a1.37,1.37,0,0,0,.4,1.08,1.34,1.34,0,0,0,1,.15,1.73,1.73,0,0,0,1.1-1.91c-.18-.89-1.12-.61-1.52-.68s.53-1.79.2-2.14-.9,1.27-1.14,2.77A6.26,6.26,0,0,0,49.84,38.53Z" fill="#ffbe9d"/></svg>