<svg xmlns="http://www.w3.org/2000/svg" viewBox="0 0 92 92"><defs><style>.cls-1{fill:#f5f6f8;}.cls-2,.cls-5{fill:#fff;stroke-miterlimit:10;}.cls-2,.cls-4{stroke:#626c87;}.cls-2{stroke-width:1.08px;}.cls-3{fill:#626c87;}.cls-4{fill:none;stroke-linecap:round;stroke-linejoin:round;stroke-width:0.79px;}.cls-5{stroke:#636d86;}.cls-6{fill:#636d86;}</style></defs><title>login-symbol-sms</title><g id="Lager_2" data-name="Lager 2"><g id="Layer_3" data-name="Layer 3"><circle class="cls-1" cx="46" cy="46" r="46"/><rect class="cls-2" x="31.31" y="23.1" width="22.72" height="43.16" rx="4.19"/><circle class="cls-3" cx="42.12" cy="61.48" r="1.79"/><line class="cls-4" x1="40.33" y1="27.44" x2="43.92" y2="27.44"/><path class="cls-5" d="M46.57,35.09V45.62a4.56,4.56,0,0,0,4,4.42v4.05L52,53.16c.41-.28,4-2.72,4.35-3l.14-.11a2.38,2.38,0,0,0,.41,0h7.7a4.6,4.6,0,0,0,4.71-4.47V35.09a4.6,4.6,0,0,0-4.71-4.48H51.28A4.6,4.6,0,0,0,46.57,35.09Z"/><circle class="cls-6" cx="53.26" cy="40.01" r="1.52"/><circle class="cls-6" cx="57.92" cy="40.01" r="1.52"/><circle class="cls-6" cx="62.58" cy="40.01" r="1.52"/></g></g></svg>