<svg id="Layer_1" data-name="Layer 1" xmlns="http://www.w3.org/2000/svg" xmlns:xlink="http://www.w3.org/1999/xlink" width="38.75mm" height="38.75mm" viewBox="0 0 109.85 109.85"><defs><linearGradient id="linear-gradient" x1="66.43" y1="92.29" x2="56.57" y2="43.78" gradientUnits="userSpaceOnUse"><stop offset="0" stop-color="#fff"/><stop offset="1" stop-color="#646e85"/></linearGradient></defs><g id="Page-1"><g id="logo-bankid"><g id="logo1-default"><path id="Shape" d="M58.78,36.12l2-12.85H58.6a3,3,0,0,1-2.75-1.6c-.13-.37-.41-1.6,1.28-2.79a2.22,2.22,0,0,0,1-1.23.94.94,0,0,0-.27-1,3,3,0,0,0-2-.55c-1.55,0-2.65.91-2.74,1.55s.32.87.64,1.1a2,2,0,0,1,.6,2.79,4.07,4.07,0,0,1-3.39,1.69H48.81c-.18,1.23-3.2,20.44-3.43,21.94H57.45C57.5,44.57,58.05,40.92,58.78,36.12Z" fill="#4399b9"/><path d="M74.92,12H62.67L61,22.4h2.1a3.15,3.15,0,0,0,2.7-1.28,1.35,1.35,0,0,0,.23-.64,1.16,1.16,0,0,0-.6-1,2,2,0,0,1-1-1.69V17.6c.19-1.1,1.65-2.29,3.62-2.29a3.79,3.79,0,0,1,2.6.78,1.89,1.89,0,0,1,.55,1.74,3.4,3.4,0,0,1-1.42,1.74c-1.19.82-1,1.55-1,1.78a2.14,2.14,0,0,0,1.92,1H74c4.35.05,6.68,2,5.9,6.68-.68,4.29-4,6.17-7.91,6.21l-1.64,9.92h2.28c9.74,0,17.65-6.26,19.25-16.09C93.85,16.91,86.07,12,74.92,12Z" fill="#235a72"/><g id="Group"><path d="M44.7,49.65h4.94c2.1,0,2.6,1.05,2.46,2.06a2.24,2.24,0,0,1-1.6,1.73c1.19.46,1.65,1.15,1.47,2.24a2.89,2.89,0,0,1-3,2.38H43.37Zm3.24,3.52a1.34,1.34,0,0,0,1.51-1.1c.09-.64-.18-1.09-1.14-1.09h-.87l-.36,2.19Zm-.54,3.66c1,0,1.55-.41,1.69-1.24s-.28-1.14-1.24-1.14h-1l-.36,2.38Z" fill="#235a72"/><path d="M58.82,58.15c-1.28.09-1.92,0-2.19-.59a4.29,4.29,0,0,1-2.24.64c-1.46,0-2-.73-1.83-1.6a1.65,1.65,0,0,1,.69-1.1c.77-.68,2.79-.78,3.56-1.32,0-.6-.18-.83-.91-.83a4.76,4.76,0,0,0-2.79,1.1l.27-1.92a5.17,5.17,0,0,1,3.25-1.1c1.51,0,2.83.6,2.56,2.24l-.27,1.88c-.1.64-.1.87.64.87Zm-2.19-2.88c-.69.41-2,.37-2.1,1.24a.59.59,0,0,0,.59.73,2.25,2.25,0,0,0,1.28-.46,1.46,1.46,0,0,1,.05-.59Z" fill="#235a72"/><path d="M61.25,51.57h2.56l-.14.87a3.22,3.22,0,0,1,2.24-1c1.42,0,2.1.87,1.88,2.33l-.69,4.3H64.54l.55-3.57c.09-.64-.09-1-.6-1a1.49,1.49,0,0,0-1.14.69l-.59,3.79H60.2Z" fill="#235a72"/><polygon points="69.8 49.65 72.36 49.65 71.72 53.81 74.19 51.57 77.34 51.57 74.19 54.36 76.7 58.11 73.45 58.11 71.49 55.09 71.44 55.09 70.99 58.11 68.43 58.11 69.8 49.65" fill="#235a72"/><path d="M44.7,49.65h4.94c2.1,0,2.6,1.05,2.46,2.06a2.24,2.24,0,0,1-1.6,1.73c1.19.46,1.65,1.15,1.47,2.24a2.89,2.89,0,0,1-3,2.38H43.37Zm3.24,3.52a1.34,1.34,0,0,0,1.51-1.1c.09-.64-.18-1.09-1.14-1.09h-.87l-.36,2.19Zm-.54,3.66c1,0,1.55-.41,1.69-1.24s-.28-1.14-1.24-1.14h-1l-.36,2.38Z" fill="#235a72"/><path d="M58.82,58.15c-1.28.09-1.92,0-2.19-.59a4.29,4.29,0,0,1-2.24.64c-1.46,0-2-.73-1.83-1.6a1.65,1.65,0,0,1,.69-1.1c.77-.68,2.79-.78,3.56-1.32,0-.6-.18-.83-.91-.83a4.76,4.76,0,0,0-2.79,1.1l.27-1.92a5.17,5.17,0,0,1,3.25-1.1c1.51,0,2.83.6,2.56,2.24l-.27,1.88c-.1.64-.1.87.64.87Zm-2.19-2.88c-.69.41-2,.37-2.1,1.24a.59.59,0,0,0,.59.73,2.25,2.25,0,0,0,1.28-.46,1.46,1.46,0,0,1,.05-.59Z" fill="#235a72"/><path d="M61.25,51.57h2.56l-.14.87a3.22,3.22,0,0,1,2.24-1c1.42,0,2.1.87,1.88,2.33l-.69,4.3H64.54l.55-3.57c.09-.64-.09-1-.6-1a1.49,1.49,0,0,0-1.14.69l-.59,3.79H60.2Z" fill="#235a72"/><polygon points="69.8 49.65 72.36 49.65 71.72 53.81 74.19 51.57 77.34 51.57 74.19 54.36 76.7 58.11 73.45 58.11 71.49 55.09 71.44 55.09 70.99 58.11 68.43 58.11 69.8 49.65" fill="#235a72"/></g><polygon points="78.85 49.65 81.82 49.65 80.5 58.06 77.52 58.06 78.85 49.65" fill="#4399b9"/><path d="M83.24,49.65h4.2c3.25,0,4.21,2.38,3.89,4.34a4.68,4.68,0,0,1-4.66,4.12H82ZM86,56.1a2.26,2.26,0,0,0,2.47-2.2c.18-1.1-.18-2.19-1.74-2.19h-.82l-.69,4.43Z" fill="#4399b9"/></g></g></g><g opacity="0.1"><path d="M32.36,78.39H18.18c-3.19,0-1.45-5,3.71-5.23s5.92-11.49.08-15S18.7,39,24.47,37.13s5.85-6,12.75-9.43S51.52,35.5,60.79,33,67.56,22.66,76,22.48s22.26,8.06,25,24.9S97.76,66.8,103.3,70.27s15.35,8.12-10.65,8.12Z" fill="url(#linear-gradient)"/></g><path d="M18.93,57.23l.44,5.68a4.83,4.83,0,0,1-.95,0,3.1,3.1,0,0,1-.46-.11l-.17,0-.27-.12a2.59,2.59,0,0,1-1.33-1.77c-.05-.23-.33-3.36-.35-3.61Z" fill="#ffbe9d"/><path d="M18.83,55.53l.54,7.38a4.83,4.83,0,0,1-.95,0,3.1,3.1,0,0,1-.46-.11l-.17,0c-.8-.57-1.34-6-1.48-7Z" fill="#fcac88"/><path d="M15.81,98.93a.59.59,0,0,1-.29.36,1.58,1.58,0,0,1-.66.11c-.41,0-1.27-1.12-1.27-1.12l2.24-12.81,5.54.39L15.82,99" fill="#fcac88"/><path d="M16.84,96.46c-.47,1.09-1,2.25-1,2.47a.59.59,0,0,1-.29.36C15.11,98.6,15.56,97.4,16.84,96.46Z" fill="#ffbe9d"/><path d="M15.82,99c.27-.1,0,.9.2,1.12a2.84,2.84,0,0,0,.71.54l1.55.94a5.31,5.31,0,0,1,.95.68,1.75,1.75,0,0,1,.55,1,.25.25,0,0,1,0,.17.21.21,0,0,1-.13.07,4.44,4.44,0,0,1-1.92.07c-.35,0-.69-.12-1-.19l-1.1-.26L15.2,103l-2.44-.58a.66.66,0,0,1-.5-.3.73.73,0,0,1,0-.33A6.06,6.06,0,0,1,13,99.42a5.1,5.1,0,0,0,.58-1.14S15.4,99.12,15.82,99Z" fill="#48a69e"/><path d="M15.91,99.67c-.28.31-.57.6-.87.88,0,.06,0,.15.08.1.31-.29.6-.6.88-.91a.06.06,0,1,0-.09-.07Z" fill="#35726a"/><path d="M16.49,100.23a4.89,4.89,0,0,0-.85,1.21c0,.07.07.11.11,0a4.88,4.88,0,0,1,.84-1.18c.05-.06,0-.13-.1-.07Z" fill="#35726a"/><path d="M17.16,100.68a3.81,3.81,0,0,0-.49,1,.06.06,0,1,0,.11,0,3.89,3.89,0,0,1,.47-1c.05-.06-.05-.13-.09-.07Z" fill="#35726a"/><path d="M17.66,101.05a2.63,2.63,0,0,0-.32.86c0,.07.1.09.11,0a2.76,2.76,0,0,1,.32-.84c0-.06-.08-.11-.11,0Z" fill="#35726a"/><path d="M19.36,102.25a.58.58,0,0,1-.05.29.79.79,0,0,1-.37.33,1.72,1.72,0,0,1-1,.2,6,6,0,0,1-1.25-.43,27.11,27.11,0,0,0-3.25-.66,1,1,0,0,1-.62-.34.92.92,0,0,1-.13-.47A2.51,2.51,0,0,1,13,99.83c.12-.22.27-.42.39-.65a1.29,1.29,0,0,0,.13-.64,8.37,8.37,0,0,1-.48.82,6.13,6.13,0,0,0-.79,2.34.69.69,0,0,0,0,.32.66.66,0,0,0,.5.29l2.42.54.39.09,1.09.24c.34.07.68.14,1,.18a4.65,4.65,0,0,0,1.93-.08.35.35,0,0,0,.13-.08.21.21,0,0,0,0-.16A1.6,1.6,0,0,0,19.36,102.25Z" fill="#fff"/><path d="M30.94,98a.54.54,0,0,1-.24.4,1.6,1.6,0,0,1-.64.19c-.4.05-1.4-.94-1.4-.94L29,85.93l5.57-.86-3.6,13" fill="#fcac88"/><path d="M31.65,95.43c-.33,1.14-.67,2.36-.71,2.58a.54.54,0,0,1-.24.4C30.21,97.78,30.51,96.53,31.65,95.43Z" fill="#ffbe9d"/><path d="M31,98.05c.26-.14.12.88.35,1.08a2.8,2.8,0,0,0,.77.44l1.66.73a5.57,5.57,0,0,1,1,.55,1.78,1.78,0,0,1,.69.93.33.33,0,0,1,0,.17.26.26,0,0,1-.12.09,4.53,4.53,0,0,1-1.9.32c-.35,0-.7,0-1-.06l-1.11-.11-.4,0-2.49-.26a.66.66,0,0,1-.53-.23.64.64,0,0,1-.07-.33,6.26,6.26,0,0,1,.45-2.47,4.93,4.93,0,0,0,.43-1.2S30.57,98.26,31,98.05Z" fill="#48a69e"/><path d="M31.14,98.73c-.23.34-.48.67-.74,1,0,.06,0,.14.08.08.27-.32.52-.66.76-1,.05-.06-.06-.12-.1-.06Z" fill="#35726a"/><path d="M31.79,99.21a5.29,5.29,0,0,0-.69,1.31c0,.08.09.11.12,0a4.77,4.77,0,0,1,.68-1.28c0-.06-.06-.12-.11-.06Z" fill="#35726a"/><path d="M32.51,99.58a3.77,3.77,0,0,0-.36,1c0,.07.1.1.11,0a4.1,4.1,0,0,1,.35-1c0-.06-.07-.12-.1,0Z" fill="#35726a"/><path d="M33.05,99.87a3.09,3.09,0,0,0-.2.9c0,.08.11.08.11,0a2.91,2.91,0,0,1,.21-.87c0-.07-.09-.1-.12,0Z" fill="#35726a"/><path d="M34.89,100.84a.44.44,0,0,1,0,.3.84.84,0,0,1-.32.38,1.71,1.71,0,0,1-1,.32,5.35,5.35,0,0,1-1.3-.26,26,26,0,0,0-3.31-.23,1,1,0,0,1-.66-.26.87.87,0,0,1-.19-.44,2.6,2.6,0,0,1,.12-1.38c.09-.23.21-.45.3-.69a1.11,1.11,0,0,0,0-.65c-.09.3-.24.59-.36.88a5.9,5.9,0,0,0-.48,2.41.58.58,0,0,0,.06.32.64.64,0,0,0,.53.22l2.47.23.4,0,1.11.09c.35,0,.69,0,1,0a4.69,4.69,0,0,0,1.89-.34.21.21,0,0,0,.12-.08.25.25,0,0,0,0-.17A1.64,1.64,0,0,0,34.89,100.84Z" fill="#fff"/><path d="M20.41,65.76,15,85.6l6.78,1.07L25.69,71s2.48,6.37,2.73,9.18a41.51,41.51,0,0,1-.2,6.76H34.9a48,48,0,0,0-.84-9.85c-1-4.2-1.74-10.74-3.32-13S20.41,65.76,20.41,65.76Z" fill="#122a30"/><path d="M32.72,52.47l-.08,0-.82.38-.1,0-2.52,1.2h0c.08.68.11,1.44.14,2.23l.16,2.83,0,.14.05.11,2.31,5.45-5.07.73-7.52,1.08.21-2.46-.29-3.81-.25-3.05-3,.25c0-.06,0-.12,0-.18v-.15a7,7,0,0,1,0-.79,13.12,13.12,0,0,1,1.37-4.48,6,6,0,0,1,1-1.3l.25-.18a3,3,0,0,1,1.08-.5,27.78,27.78,0,0,1,5.66-.86h.27l.64,0a12.18,12.18,0,0,1,1.61.06S29,49,30.33,48.74h0l1.09-.23h0Z" fill="#d55ba0"/><path d="M26,49.35s-6.33,2-7.41,4a10.1,10.1,0,0,0-1.24,3.56s-.7.25-1.48.44a7,7,0,0,1,0-.79,13.12,13.12,0,0,1,1.37-4.48,6,6,0,0,1,1-1.3l.25-.18a3,3,0,0,1,1.08-.5,27.78,27.78,0,0,1,5.66-.86Z" fill="#c6589c"/><path d="M36.73,50.64l0,0,0,0h0c-.23,0-2.1.91-3.92,1.76l-.56-1.8-.65-2.11,0-.06a13.55,13.55,0,0,0,2.88-.8c.3-.36,4-6.33,4.31-6.61h0a4.37,4.37,0,0,1,1.57.6l.06,0A50.65,50.65,0,0,1,36.73,50.64Z" fill="#ffbe9d"/><path d="M40.78,41.13l-.45.6a50.65,50.65,0,0,1-3.6,8.91l0,0,0,0h0c-.23,0-2.1.91-3.92,1.76l-.56-1.8-.65-2.11c.31.36,1.87,2.08,2.2,2a30.12,30.12,0,0,0,3-1.2c.87-.42,3.18-7.06,3.18-7.06l-.56-.19a1.66,1.66,0,0,0,.63-.2,3,3,0,0,0,.28-.24,1.5,1.5,0,0,0,.27-.3,1.07,1.07,0,0,1,.26-.27Z" fill="#fcac88"/><path d="M26.3,46.07a1.16,1.16,0,0,1-1.1,1H25l.06.57L25.22,49,22,49.33l-.44-2.68-.77-4.76,4.68-1.72S26.37,45.36,26.3,46.07Z" fill="#ffbe9d"/><path d="M14,57.63a.41.41,0,0,1,0-.08A.27.27,0,0,0,14,57.63Z" fill="#d32a3b"/><path d="M31.86,64.91s-1.71-3.22-2.94-5-1.26-4.44.27-5.78c.16,1.55.1,3.53.31,5.2Z" fill="#d179af"/><path d="M26,49.35l-.79.16a18.23,18.23,0,0,1-4.05.24l-.09-1.14a14.42,14.42,0,0,0,2.71,0,14,14,0,0,0,2.13-.37Z" fill="#d179af"/><path d="M32.64,52.51l-.82.38-.26.12-1.23-4.27h0l1.09-.23Z" fill="#c6589c"/><path d="M18.87,56.46l.06.77-3,.24c0-.3,0-.62,0-.94Z" fill="#c6589c"/><polygon points="15.93 57.65 15.15 57.71 15.07 56.77 18.99 56.45 19.07 57.39 15.93 57.65" fill="#d179af"/><polygon points="30.33 48.49 31.61 48.14 33.08 52.78 32.03 53.31 30.33 48.49" fill="#d179af"/><path d="M26.79,65.64l-7.52,1.08.21-2.46-.29-3.81-.25-3.05s2.35,6.75,3.45,7.15C23.23,64.85,25.68,65.39,26.79,65.64Z" fill="#c6589c"/><path d="M25.53,48.81c-.15.36-.15.56-.3.7a18.23,18.23,0,0,1-4.05.24l-.09-1.14a14.42,14.42,0,0,0,2.71,0Z" fill="#c6589c"/><path d="M26.24,40.69a5.14,5.14,0,0,1-.54,2.39c-.11.32,0,1-.32,1s-.37-.7-.53-.71a.78.78,0,0,0-.72.65c-.08.34.3,1.36.69,1.31a1.46,1.46,0,0,0,.31,1.21s.91,2.25.29,2.54l-.36.15a3.61,3.61,0,0,1-2.34.38l-.24-.73,0,.65a2.37,2.37,0,0,1-2.36-1.09,1.65,1.65,0,0,1-.11-.88l-.18,0a1.4,1.4,0,0,1-.91-.66.6.6,0,0,1,0-.62,1.27,1.27,0,0,1,.51-.28,1.76,1.76,0,0,0,.92-1.27,2.5,2.5,0,0,0,0-.67,5.16,5.16,0,0,1-.28-.78A2.76,2.76,0,0,1,21,40.52a1.94,1.94,0,0,1,.29-.21,1.36,1.36,0,0,1-.68-.27,1.34,1.34,0,0,1-.2-.21,1.11,1.11,0,0,1,0-1.33,1,1,0,0,1,1.29-.19A1.16,1.16,0,0,1,22,39.57a2.17,2.17,0,0,1-.19.41l.45-.21a4.75,4.75,0,0,1,1.78-.43,2.35,2.35,0,0,1,1.67.42l-.05-.08C26.24,39.28,26.78,40.06,26.24,40.69Z" fill="#263238"/><path d="M25.06,49.19a3.61,3.61,0,0,1-2.34.38l-.24-.73,0,.65a2.37,2.37,0,0,1-2.36-1.09,1.65,1.65,0,0,1-.11-.88l-.18,0a1.4,1.4,0,0,1-.91-.66.6.6,0,0,1,0-.62,1.27,1.27,0,0,1,.51-.28,1.76,1.76,0,0,0,.92-1.27,2.5,2.5,0,0,0,0-.67,5.16,5.16,0,0,1-.28-.78A2.76,2.76,0,0,1,21,40.52a1.94,1.94,0,0,1,.29-.21,1.36,1.36,0,0,1-.68-.27,5.32,5.32,0,0,1,.94.3,2.3,2.3,0,0,0,.64,3.55c.89.51.42,1.2.46,2.13s1-.2,1.34.43,1,.88,1.11,2A3.73,3.73,0,0,1,25.06,49.19Z" fill="#0d1d21"/><path d="M22,39.73a1.45,1.45,0,0,1-1,.51s0,.19.09.21a1.63,1.63,0,0,0,.88-.34C22.24,39.86,22,39.73,22,39.73Z" fill="#d55ba0"/><path d="M38.5,40.83a1.42,1.42,0,0,0,.41,1.09,1.39,1.39,0,0,0,1,.15,1.74,1.74,0,0,0,1.1-1.92c-.18-.89-1.12-.6-1.52-.68s.53-1.78.2-2.13-.9,1.26-1.14,2.77C38.55,40.35,38.52,40.6,38.5,40.83Z" fill="#ffbe9d"/></svg>