<svg id="Layer_1" data-name="Layer 1" xmlns="http://www.w3.org/2000/svg" xmlns:xlink="http://www.w3.org/1999/xlink" width="38.75mm" height="38.75mm" viewBox="0 0 109.85 109.85"><defs><linearGradient id="linear-gradient" x1="64.79" y1="86.37" x2="54.93" y2="37.85" gradientUnits="userSpaceOnUse"><stop offset="0" stop-color="#fff"/><stop offset="1" stop-color="#646e85"/></linearGradient></defs><path d="M62.83,53.27c-2.79-1-7.62-4.52-7.62-8.75,0-2.86,1.74-5.2,6.56-9.05C65.92,32.23,68,30,68,27.25A4.85,4.85,0,0,0,62.9,22.2c-5,0-7.91,4.68-8.89,4.68a4.11,4.11,0,0,1-3.25-3.55,3.53,3.53,0,0,1,1.44-2.79,13.2,13.2,0,0,1,8.14-2.71,12.18,12.18,0,0,1,12,11.84c0,3.16-1.06,5.88-5.35,9.42-3.77,3.17-5.81,4.6-5.81,7.09,0,2,1.06,3.39,3.09,5.28ZM60.94,69a4.83,4.83,0,0,1,0-9.66,4.69,4.69,0,0,1,4.68,4.83A4.61,4.61,0,0,1,60.94,69Z" fill="#46a69e"/><g opacity="0.1"><path d="M30.72,72.47H16.53c-3.18,0-1.44-5,3.72-5.23s5.92-11.5.08-15S17.06,33,22.83,31.21s5.84-5.95,12.75-9.43S49.88,29.57,59.15,27s6.77-10.3,15.16-10.48,22.26,8.05,25,24.9-3.18,19.42,2.36,22.89S117,72.46,91,72.46Z" fill="url(#linear-gradient)"/></g><path d="M44.79,50.63l-.06,0h0c-.21,0-3.5-.36-5.31-.41l.28-1.68.33-2v-.06a28.85,28.85,0,0,0,4.08.77c.39-.17,5.78-3.49,6.18-3.57h0a4.24,4.24,0,0,1,1,1.13l0,.07A44.88,44.88,0,0,1,44.79,50.63Z" fill="#845c4f"/><path d="M51.94,44.62l-.61.31a44.88,44.88,0,0,1-6.54,5.7l-.06,0h0c-.21,0-3.5-.36-5.31-.41l.28-1.68.33-2a12.23,12.23,0,0,0,2.4,2.76,25.89,25.89,0,0,0,2.93.26c.87,0,5.44-4.38,5.44-4.38l-.37-.39a1.69,1.69,0,0,0,.59.1l.32-.08a1.51,1.51,0,0,0,.34-.13,1.07,1.07,0,0,1,.32-.12Z" fill="#755143"/><path d="M50.23,43.45A1,1,0,0,0,50.89,45,1.55,1.55,0,0,0,52.55,44c.22-.79-.65-1-.95-1.17s1.17-1.22,1-1.64-1.24.65-2,1.77A5.63,5.63,0,0,0,50.23,43.45Z" fill="#845c4f"/><path d="M34.8,42.53c-.53,0-.55.41-1.12.33s-1.24.12-1.78,0-.18-1.83.39-2.15S34.8,42.53,34.8,42.53Z" fill="#1e272b"/><path d="M34,41.7a1.09,1.09,0,0,0,.36.81,1.11,1.11,0,0,0,.84.27c.41-.05.82-.33,1.2-.17s.48.53.81.56a.88.88,0,0,0,.51-.2c.16-.1.3-.21.45-.31l.42-.28a2.5,2.5,0,0,0,1-1,1.17,1.17,0,0,0-.35-1.4,2.26,2.26,0,0,0-.26-.16,1.41,1.41,0,0,1-.65-.46c-.27-.5.23-1.19-.1-1.65-.23-.31-.74-.31-1-.63a1.39,1.39,0,0,1-.1-.93,2.57,2.57,0,0,0-.35-1.41s-2.72.43-2.86,2.78A24.48,24.48,0,0,0,34,41.7Z" fill="#1e272b"/><path d="M35.38,75.73l1.75,8.58.68,3.36h0a6.52,6.52,0,0,0,1.1.47.7.7,0,0,0,.42,0h0a1.51,1.51,0,0,0,.53-.34.52.52,0,0,0,.12-.39v0c0-.21,0-1.41,0-2.54v-.78c0-1.2,0-3.38,0-5.19,0-1.65,0-3,0-3l-1.69-.06Z" fill="#755143"/><path d="M38.56,84.08a19.51,19.51,0,0,0,.77,4.09h0a1.51,1.51,0,0,0,.53-.34.52.52,0,0,0,.12-.39v0c0-.21,0-1.41,0-2.54v-.78c0-1.2,0-3.38,0-5.19A8.47,8.47,0,0,0,38.56,84.08Z" fill="#845c4f"/><path d="M37.13,84.31l.68,3.36h0a6.52,6.52,0,0,0,1.1.47.7.7,0,0,0,.42,0h0a1.51,1.51,0,0,0,.53-.34.52.52,0,0,0,.12-.39v0c0-.21,0-1.41,0-2.54v-.78a6.86,6.86,0,0,1-1.31.19h-.08C38,84.31,37.52,84.31,37.13,84.31Z" fill="#e8e8e8"/><path d="M38.58,84.28a19.29,19.29,0,0,0,.75,3.89h0a1.51,1.51,0,0,0,.53-.34.52.52,0,0,0,.12-.39v0c0-.21,0-1.41,0-2.54v-.78a6.86,6.86,0,0,1-1.31.19Z" fill="#fff"/><path d="M38,91.25a1.34,1.34,0,0,0,.07.18h0a.36.36,0,0,0,.07.1.65.65,0,0,0,.55.07L41,91.19l.38-.06.37-.07.68-.12c.32-.07.65-.13,1-.22A4.42,4.42,0,0,0,45,89.93a.23.23,0,0,0,.08-.11s0-.1,0-.15a1.33,1.33,0,0,0-.14-.19,1.72,1.72,0,0,0-.55-.41L44.2,89a5,5,0,0,0-1.08-.24l-.62-.08-.11,0-.48-.07H41.8l-.38,0-.3,0-.11,0a1.53,1.53,0,0,1-.41-.14.46.46,0,0,1-.16-.21L40.38,88h0c-.14-.3-.24-.68-.37-.55h0a2.56,2.56,0,0,1-1.12.21c-.53,0-1,0-1.06,0h0c0,.1,0,.2,0,.3,0,.3-.07.6-.1.9A5.82,5.82,0,0,0,38,91.25Z" fill="#d55ba0"/><path d="M40.35,88a11.3,11.3,0,0,1-.42,1.1c0,.06.07.12.1,0,.16-.37.3-.74.43-1.12,0-.07-.08-.1-.11,0Z" fill="#2b303c"/><path d="M41.07,88.28a5,5,0,0,0-.29,1.38c0,.07.11.07.11,0a4.72,4.72,0,0,1,.29-1.35c0-.07-.08-.1-.11,0Z" fill="#2b303c"/><path d="M41.82,88.43a3.62,3.62,0,0,0-.06,1,.06.06,0,0,0,.12,0,3.41,3.41,0,0,1,0-1,.06.06,0,1,0-.11,0Z" fill="#2b303c"/><path d="M42.4,88.56a2.55,2.55,0,0,0,0,.87c0,.08.12,0,.11,0a2.64,2.64,0,0,1,0-.84c0-.07-.11-.07-.11,0Z" fill="#2b303c"/><path d="M37.89,91.17a.64.64,0,0,0,.13.26h0a.63.63,0,0,0,.54.07l2.32-.44.37-.06L41.5,91l.8-.15c.32-.07.64-.14,1-.23a4.31,4.31,0,0,0,1.64-.79.23.23,0,0,0,.09-.11.19.19,0,0,0,0-.15l0,0a1.61,1.61,0,0,0-.59-.51.42.42,0,0,1,0,.1.37.37,0,0,1,0,.18.74.74,0,0,1-.19.42,1.58,1.58,0,0,1-.82.55,5.19,5.19,0,0,1-1.25.1,7.7,7.7,0,0,0-1.41.24c-.55.14-1.11.3-1.68.4a.94.94,0,0,1-.66-.06.86.86,0,0,1-.29-.36,2.51,2.51,0,0,1-.25-1.29c0-.23.08-.47.1-.71a1.12,1.12,0,0,0-.11-.57l0,0c0,.3-.07.6-.11.9A5.59,5.59,0,0,0,37.89,91.17Z" fill="#c3cde0"/><path d="M28.56,74.33,27,82.94l-.62,3.36h0a4.94,4.94,0,0,0,.84.86.78.78,0,0,0,.37.18h0a1.37,1.37,0,0,0,.62-.12.48.48,0,0,0,.26-.31s0,0,0,0c.06-.2.51-1.32.94-2.36.05-.14.15-.39.29-.72L31.65,79l1.13-2.78-1.55-.68Z" fill="#755143"/><path d="M28.39,83.26a20.28,20.28,0,0,0-.82,4.08h0a1.37,1.37,0,0,0,.62-.12.48.48,0,0,0,.26-.31s0,0,0,0c.06-.2.51-1.32.94-2.36.05-.14.15-.39.29-.72L31.65,79A8.44,8.44,0,0,0,28.39,83.26Z" fill="#845c4f"/><path d="M27,82.94l-.62,3.36h0a4.94,4.94,0,0,0,.84.86.78.78,0,0,0,.37.18h0a1.37,1.37,0,0,0,.62-.12.48.48,0,0,0,.26-.31s0,0,0,0c.06-.2.51-1.32.94-2.36.05-.14.15-.39.29-.72a7.34,7.34,0,0,1-1.29-.32l-.08,0C27.83,83.28,27.33,83.08,27,82.94Z" fill="#e8e8e8"/><path d="M28.33,83.44a20,20,0,0,0-.76,3.9h0a1.37,1.37,0,0,0,.62-.12.48.48,0,0,0,.26-.31s0,0,0,0c.06-.2.51-1.32.94-2.36.05-.14.15-.39.29-.72a7.34,7.34,0,0,1-1.29-.32Z" fill="#fff"/><path d="M25.14,89.67a1.33,1.33,0,0,0,0,.2h0a.56.56,0,0,0,0,.12.63.63,0,0,0,.47.27l2.32.5.37.07.37.08.68.14c.32.06.65.12,1,.16a4.14,4.14,0,0,0,1.82-.11.16.16,0,0,0,.12-.07.21.21,0,0,0,0-.16.86.86,0,0,0-.06-.23,1.64,1.64,0,0,0-.35-.58l-.14-.13a4.72,4.72,0,0,0-.91-.62L30.33,89l-.1,0-.42-.25-.1,0-.33-.19-.26-.15L29,88.23A2.16,2.16,0,0,1,28.7,88a.45.45,0,0,1-.08-.26v-.14h0c0-.33,0-.72-.14-.65h0a2.69,2.69,0,0,1-1.12-.22c-.5-.17-1-.38-1-.39h0a2.47,2.47,0,0,1-.1.29c-.12.28-.29.54-.43.8A5.87,5.87,0,0,0,25.14,89.67Z" fill="#d55ba0"/><path d="M28.58,87.57a10.85,10.85,0,0,1-.8.86c-.05,0,0,.14.08.09.28-.28.55-.57.82-.88,0,0-.05-.12-.1-.07Z" fill="#2b303c"/><path d="M29.15,88.09a4.91,4.91,0,0,0-.79,1.17c0,.07.08.11.11,0a4.67,4.67,0,0,1,.77-1.14c.05-.06,0-.12-.09-.07Z" fill="#2b303c"/><path d="M29.79,88.51a3.58,3.58,0,0,0-.44.95c0,.07.08.11.1,0a3.37,3.37,0,0,1,.43-.92c0-.06-.05-.13-.09-.07Z" fill="#2b303c"/><path d="M30.27,88.85a2.66,2.66,0,0,0-.28.82c0,.07.1.09.11,0a2.49,2.49,0,0,1,.28-.79c0-.07-.07-.11-.11,0Z" fill="#2b303c"/><path d="M25.12,89.58a.57.57,0,0,0,0,.29h0v0a.65.65,0,0,0,.47.26l2.31.46.37.08.25,0,.79.15c.33.06.65.12,1,.15a4.29,4.29,0,0,0,1.82-.12.16.16,0,0,0,.12-.07.19.19,0,0,0,0-.15.13.13,0,0,0,0-.06,1.53,1.53,0,0,0-.36-.69.41.41,0,0,1,0,.11.48.48,0,0,1-.05.17.75.75,0,0,1-.34.32,1.62,1.62,0,0,1-1,.21,5.23,5.23,0,0,1-1.2-.38A8.22,8.22,0,0,0,28,90.07c-.57-.08-1.15-.13-1.71-.25a.92.92,0,0,1-.59-.31.74.74,0,0,1-.14-.44,2.36,2.36,0,0,1,.25-1.28c.11-.21.25-.41.35-.63a1,1,0,0,0,.12-.57v0a8.94,8.94,0,0,1-.44.8A5.49,5.49,0,0,0,25.12,89.58Z" fill="#c3cde0"/><polygon points="39.99 48.59 39.73 50.65 38.69 50.33 39.04 48.59 39.99 48.59" fill="#20242b"/><path d="M42.25,77.58a6.14,6.14,0,0,0-2.89,0c-1.1.22-2.81-1.14-4.47-1.21A10.13,10.13,0,0,0,32,77a3.7,3.7,0,0,1-2.54,0c-1.82-.82-3.72.58-3.77.61a31.74,31.74,0,0,0,.44-7.23c-.09-5.08,2.12-12.13,3.76-14.33,1.46-2,1.39-3.08.55-5.29l-.08-.2q-.12-.33-.27-.69a5.26,5.26,0,0,1-.41-2.28,4.63,4.63,0,0,1,2-3.53c1.3-.86,3.33-.07,5,.7s3.65,1.55,3.65,1.55L40,48.58H39c.38,1.56-.53,3.81-1.47,3.88-.12,0-.24.61-.33,1.28-.06.39-.1.8-.13,1.13-.07.9,1,4.27,1.88,7.5.25.93.49,1.84.67,2.69C40.5,68.83,42.25,77.58,42.25,77.58Z" fill="#2b303c"/><path d="M33.46,44.71a7.21,7.21,0,0,0-2.74.23,4.52,4.52,0,0,1,1-.95,2.06,2.06,0,0,1,.44-.23,2.6,2.6,0,0,1,.4-.1l.29,0A4.05,4.05,0,0,1,33.46,44.71Z" fill="#20242b"/><path d="M32.63,44.2c.14.49,1.43.66,2.94,1h0c1.5.31,1.92-.13.66-.72a1.64,1.64,0,0,1-1-1A5.63,5.63,0,0,1,35.13,42l-.85-.14-.26,0-1.44-.22A15.63,15.63,0,0,0,32.63,44.2Z" fill="#845c4f"/><path d="M32.63,44.2c.14.49,1.43.66,2.94,1h0a4.5,4.5,0,0,0-1-.54c-1.16-.47-.84-1.25,0-1.46a5.38,5.38,0,0,0-.53-1.3l0,0-1.44-.22A15.63,15.63,0,0,0,32.63,44.2Z" fill="#755143"/><path d="M32.72,41.56a2.29,2.29,0,0,0,2.49,1.87A5.63,5.63,0,0,1,35.13,42l-.85-.14A3.13,3.13,0,0,1,32.72,41.56Z" fill="#63443b"/><path d="M32,36l.23,4.37a2.45,2.45,0,0,0,1.06,1.87,2.4,2.4,0,0,0,1.49.41A2.37,2.37,0,0,0,36.34,42a2.45,2.45,0,0,0,.76-1.9L37,38.5l-.09-1.65-.06-1.07Z" fill="#845c4f"/><path d="M28.73,43.62a1.13,1.13,0,0,0,1.22.06,3.11,3.11,0,0,1,.59-.38,1.62,1.62,0,0,1,1.13.27c.35.16,1.23.55,1.47.23s-.55-1.13-.47-1.64a3.21,3.21,0,0,1,.31-.85.87.87,0,0,0,.1-.31c.07-.6-.68-1.16-.44-1.72a.82.82,0,0,1,.2-.25c.2-.19.47-.33.55-.59s-.11-.63-.11-.95c0-.54.58-.89,1.1-1A3.71,3.71,0,0,0,35.9,36a1.23,1.23,0,0,0,.33-1.44l0,.18a.67.67,0,0,0-.42-.72,1.36,1.36,0,0,0-.89,0c-.3.07-.58.2-.88.26-.54.11-1.1,0-1.65.07a1.32,1.32,0,0,0-1.24.93,3.39,3.39,0,0,1-.06.72c-.25.62-1.36.45-1.61,1.06s.48,1.22.14,1.7-.88.28-1.07.66a.76.76,0,0,0,.13.69,2.1,2.1,0,0,1,.36.63,1.19,1.19,0,0,1-.23.9,3.1,3.1,0,0,0-.45.84A1.13,1.13,0,0,0,28.73,43.62Z" fill="#1a2e35"/><path d="M38.21,42.66l.42-.28a2.5,2.5,0,0,0,1-1,1.17,1.17,0,0,0-.35-1.4,2.26,2.26,0,0,0-.26-.16c.36,1,.31,1.64-.29,2.15A1.64,1.64,0,0,0,38.21,42.66Z" fill="#1a2e35"/><path d="M32.71,40.63a1.82,1.82,0,0,1,.27.68.87.87,0,0,0,.1-.31c.07-.6-.68-1.16-.44-1.72a.82.82,0,0,1,.2-.25,3.33,3.33,0,0,0-.79-.34C31.74,39.08,32.14,39.76,32.71,40.63Z" fill="#1e272b"/><path d="M33.54,38.58c-.44-.5-1.53-.79-1.66.19S33.12,40,33.12,40Z" fill="#845c4f"/><path d="M35.36,36.28A5,5,0,0,0,37,38.5l-.09-1.65A7.81,7.81,0,0,0,35.36,36.28Z" fill="#755143"/><path d="M35.19,36.09A4.25,4.25,0,0,0,38,37.61a7.08,7.08,0,0,0-.48-1.82,2.91,2.91,0,0,0-1.19-1.42,1.86,1.86,0,0,0-1.8-.06S34,34.48,35.19,36.09Z" fill="#1a2e35"/><path d="M33,36.62s0,0,0,0a.82.82,0,0,1,.17-.2l.18-.15a1.71,1.71,0,0,1,.4-.21L34,36l.11,0h.12l.25,0h.27a.48.48,0,0,0-.11-.09.37.37,0,0,0-.12-.07,1.48,1.48,0,0,0-.27-.1,1.51,1.51,0,0,0-.3,0l-.14,0-.08,0-.07,0a1.07,1.07,0,0,0-.48.36.91.91,0,0,0-.13.26.8.8,0,0,0,0,.15A.49.49,0,0,0,33,36.62Z" fill="#d55ba0"/><path d="M25.73,77.55c.05,0,1.95-1.43,3.77-.61A3.7,3.7,0,0,0,32,77a36,36,0,0,1-2.34-8.15c-1-6.41,1.61-13.25,2.07-14.64.4-1.21-.29-2.12-1.37-3.7.91,2.34,1,3.48-.47,5.49-1.65,2.2-3.85,9.25-3.76,14.33A31.74,31.74,0,0,1,25.73,77.55Z" fill="#20242b"/><path d="M40,48.59l-.61.76S37.84,45.78,37,44.94a15.3,15.3,0,0,1,2.42,2.59Z" fill="#20242b"/><path d="M39,62.38c-1.88-1.29-4.85-3.44-5.53-4.51-1-1.6-1.1-4.3-2.13-6-.25-.4-.55-.8-.85-1.19l-.08-.2q-.12-.33-.27-.69a5.26,5.26,0,0,1-.41-2.28c1.05-.19,2.49-.15,3.22.73C34.17,49.75,34.67,47,34.67,47a6.87,6.87,0,0,1,2.68,4.83l-.39.44a9.92,9.92,0,0,0,.28,1.53c-.06.39-.1.8-.13,1.13C37,55.78,38.11,59.15,39,62.38Z" fill="#20242b"/><path d="M43.27,62.63l-.06-.05A16.72,16.72,0,0,1,41.7,61.2h0l0,0-.5-.52L41,60.43l.1-.12.9-1.12H42l1.08.13.37,0a1.5,1.5,0,0,0,.47,0,2.18,2.18,0,0,0,.55-.21.21.21,0,0,1,.27,0,.14.14,0,0,1,0,.14,1.48,1.48,0,0,1-1,.54c-.23,0-.24.13-.16.24a2.85,2.85,0,0,0,.67.46,6.13,6.13,0,0,1,1.17.85.21.21,0,0,1,0,.12c-.06.09-.23.09-.43,0A3.7,3.7,0,0,0,43.77,61l-.05,0c-.08.15,1.4,1,1.4,1s.28.1.26.25a.07.07,0,0,1,0,0c-.16.33-1.67-.66-1.81-.76a.08.08,0,0,0-.08,0,.11.11,0,0,0,0,.18c.11.07,1.49.79,1.32,1.12h0c-.14.24-1.24-.8-1.61-.8s.93.72.8,1C43.94,63,43.9,63.1,43.27,62.63Z" fill="#845c4f"/><path d="M33.27,55.89l0,0a0,0,0,0,1,0,0h0c0-.23-.55-2.13-1.08-4l1.8-.26,2.09-.3h.07a13.22,13.22,0,0,0,.32,2.85c.3.34,5.42,4.72,5.63,5.1,0,0,0,0,0,0a4.2,4.2,0,0,1-.81,1.4s0,0,0,0A47.53,47.53,0,0,1,33.27,55.89Z" fill="#845c4f"/><path d="M41.68,61.18l-.5-.52a47.53,47.53,0,0,1-7.91-4.77l0,0a0,0,0,0,1,0,0h0c0-.23-.55-2.13-1.08-4l1.8-.26,2.09-.3c-.38.24-2.26,1.47-2.24,1.79a27.91,27.91,0,0,0,.69,3.06c.26.89,6.44,4.2,6.44,4.2v-.45a1.53,1.53,0,0,0,.14.46,2.38,2.38,0,0,0,.18.3,1.53,1.53,0,0,0,.25.3,1.46,1.46,0,0,1,.22.29Z" fill="#755143"/><path d="M36.66,51.39l-4.93,1.37s-1.29-4-.46-5.66a2.44,2.44,0,0,1,4.44.3A8.78,8.78,0,0,1,36.66,51.39Z" fill="#20242b"/></svg>