<svg id="Layer_1" data-name="Layer 1" xmlns="http://www.w3.org/2000/svg" xmlns:xlink="http://www.w3.org/1999/xlink" width="38.75mm" height="39.41mm" viewBox="0 0 109.85 111.7"><defs><linearGradient id="linear-gradient" x1="60.54" y1="92.29" x2="50.67" y2="43.78" gradientUnits="userSpaceOnUse"><stop offset="0" stop-color="#fff"/><stop offset="1" stop-color="#646e85"/></linearGradient></defs><path d="M42.16,36.92c0-4.14,0-8.24,0-12.38A10.36,10.36,0,0,1,52.7,14c8.39,0,16.73,0,25.12,0a10.29,10.29,0,0,1,10.5,10.5c0,8.38,0,16.73,0,25.11a10.31,10.31,0,0,1-10.5,10.51c-8.39,0-16.73,0-25.12,0A10.31,10.31,0,0,1,42.2,49.65C42.13,45.41,42.16,41.17,42.16,36.92Zm44.57.32c0-4,0-7.89,0-11.85,0-5.69-3.93-9.73-9.62-9.8q-11.83-.11-23.66,0a9.35,9.35,0,0,0-9.66,9.8q0,11.67,0,23.34c0,5.84,3.93,9.84,9.73,9.87,7.81.07,15.67.07,23.52,0,5.8,0,9.69-4,9.72-9.87C86.73,44.88,86.73,41.06,86.73,37.24Z" fill="#2c313c"/><path d="M65.47,51.28h-.88c-4.49.28-4-1.17-4-4.49a1.87,1.87,0,0,1,2-2c1.31,0,2.58,0,3.89,0,4.63-.14,8.06-3.39,8.1-7.64s-3.36-7.53-8-7.67c-1.31,0-2.58,0-3.89,0a2,2,0,0,1-2.12-2.12c0-.81,0-1.66,0-2.48a1.81,1.81,0,0,1,1.91-1.9,42.39,42.39,0,0,1,6.68.17A14.15,14.15,0,0,1,81.07,38.3a14.3,14.3,0,0,1-14.18,13Z" fill="#2c313c"/><path d="M57.34,42.05c0,2.19,0,4.35,0,6.54,0,2-.67,2.58-2.69,2.66-4.21.1-4.42-.11-4.42-4.28,0-3.89,0-7.79,0-11.68,0-2.22.6-2.75,2.86-2.79h1.77c1.77.07,2.44.67,2.44,2.48C57.37,37.35,57.34,39.72,57.34,42.05Z" fill="#2c313c"/><path d="M53.66,22.92c3.08,0,3.54.38,3.54,3.18,0,3-.43,3.36-3.54,3.36s-3.47-.5-3.47-3.29S50.69,22.92,53.66,22.92Z" fill="#2c313c"/><g opacity="0.1"><path d="M26.47,78.39H12.28c-3.19,0-1.44-5,3.72-5.23s5.91-11.49.07-15S12.8,39,18.57,37.13s5.85-6,12.75-9.43S45.63,35.5,54.9,33s6.76-10.31,15.16-10.49,22.25,8.06,25,24.9S91.86,66.8,97.4,70.27s15.35,8.12-10.65,8.12Z" fill="url(#linear-gradient)"/></g><path d="M23.82,57.23l.44,5.68a4.83,4.83,0,0,1-1,0,3.1,3.1,0,0,1-.46-.11l-.17,0-.27-.12a2.59,2.59,0,0,1-1.33-1.77c0-.23-.33-3.36-.35-3.61Z" fill="#ffbe9d"/><path d="M23.72,55.53l.54,7.38a4.83,4.83,0,0,1-1,0,3.1,3.1,0,0,1-.46-.11l-.17,0c-.8-.57-1.34-6-1.48-7Z" fill="#fcac88"/><path d="M20.7,98.93a.59.59,0,0,1-.29.36,1.58,1.58,0,0,1-.66.11c-.41,0-1.27-1.12-1.27-1.12l2.24-12.81,5.54.39L20.71,99" fill="#fcac88"/><path d="M21.73,96.46c-.47,1.09-1,2.25-1,2.47a.59.59,0,0,1-.29.36C20,98.6,20.45,97.4,21.73,96.46Z" fill="#ffbe9d"/><path d="M20.71,99c.27-.1,0,.9.2,1.12a2.84,2.84,0,0,0,.71.54l1.55.94a5.31,5.31,0,0,1,.95.68,1.75,1.75,0,0,1,.55,1,.25.25,0,0,1,0,.17.21.21,0,0,1-.13.07,4.44,4.44,0,0,1-1.92.07c-.35,0-.69-.12-1-.19l-1.1-.26-.38-.09-2.44-.58a.63.63,0,0,1-.49-.3.61.61,0,0,1,0-.33,6.06,6.06,0,0,1,.77-2.39,5.1,5.1,0,0,0,.58-1.14S20.29,99.12,20.71,99Z" fill="#48a69e"/><path d="M20.8,99.67c-.28.31-.57.6-.87.88-.05.06,0,.15.08.1.31-.29.6-.6.88-.91a.06.06,0,1,0-.09-.07Z" fill="#35726a"/><path d="M21.38,100.23a4.89,4.89,0,0,0-.85,1.21c0,.07.07.11.11,0a4.88,4.88,0,0,1,.84-1.18c.05-.06,0-.13-.1-.07Z" fill="#35726a"/><path d="M22.05,100.68a3.81,3.81,0,0,0-.49,1,.06.06,0,1,0,.11,0,3.89,3.89,0,0,1,.47-1c.05-.06-.05-.13-.09-.07Z" fill="#35726a"/><path d="M22.55,101.05a2.63,2.63,0,0,0-.32.86c0,.07.1.09.11,0a2.76,2.76,0,0,1,.32-.84c0-.06-.08-.11-.11,0Z" fill="#35726a"/><path d="M24.25,102.25a.58.58,0,0,1-.05.29.79.79,0,0,1-.37.33,1.72,1.72,0,0,1-1,.2,6,6,0,0,1-1.25-.43,27.11,27.11,0,0,0-3.25-.66,1,1,0,0,1-.62-.34.92.92,0,0,1-.13-.47,2.51,2.51,0,0,1,.29-1.34c.12-.22.28-.42.39-.65a1.19,1.19,0,0,0,.13-.64,8.37,8.37,0,0,1-.48.82,6.13,6.13,0,0,0-.79,2.34.58.58,0,0,0,0,.32.63.63,0,0,0,.49.29l2.42.54.39.09,1.09.24c.34.07.68.14,1,.18a4.65,4.65,0,0,0,1.93-.08.35.35,0,0,0,.13-.08.21.21,0,0,0,0-.16A1.6,1.6,0,0,0,24.25,102.25Z" fill="#fff"/><path d="M35.83,98a.54.54,0,0,1-.24.4,1.6,1.6,0,0,1-.64.19c-.4.05-1.4-.94-1.4-.94l.33-11.73,5.57-.86-3.6,13" fill="#fcac88"/><path d="M36.54,95.43c-.33,1.14-.67,2.36-.71,2.58a.54.54,0,0,1-.24.4C35.1,97.78,35.4,96.53,36.54,95.43Z" fill="#ffbe9d"/><path d="M35.85,98.05c.26-.14.12.88.35,1.08a2.8,2.8,0,0,0,.77.44l1.66.73a5.57,5.57,0,0,1,1,.55,1.78,1.78,0,0,1,.69.93.33.33,0,0,1,0,.17.26.26,0,0,1-.12.09,4.53,4.53,0,0,1-1.9.32c-.35,0-.7,0-1-.06l-1.11-.11-.4,0-2.49-.26a.66.66,0,0,1-.53-.23.64.64,0,0,1-.07-.33,6.26,6.26,0,0,1,.45-2.47,4.93,4.93,0,0,0,.43-1.2S35.46,98.26,35.85,98.05Z" fill="#48a69e"/><path d="M36,98.73c-.23.34-.48.67-.74,1,0,.06,0,.14.08.08.27-.32.52-.66.76-1,0-.06-.06-.12-.1-.06Z" fill="#35726a"/><path d="M36.68,99.21a5.29,5.29,0,0,0-.69,1.31.06.06,0,1,0,.12,0,4.77,4.77,0,0,1,.68-1.28c0-.06-.06-.12-.11-.06Z" fill="#35726a"/><path d="M37.4,99.58a3.77,3.77,0,0,0-.36,1c0,.07.1.1.11,0a4.1,4.1,0,0,1,.35-1c0-.06-.07-.12-.1,0Z" fill="#35726a"/><path d="M37.94,99.87a3.09,3.09,0,0,0-.2.9c0,.08.11.08.11,0a2.91,2.91,0,0,1,.21-.87c0-.07-.09-.1-.12,0Z" fill="#35726a"/><path d="M39.78,100.84a.44.44,0,0,1,0,.3.84.84,0,0,1-.32.38,1.71,1.71,0,0,1-1,.32,5.35,5.35,0,0,1-1.3-.26,26,26,0,0,0-3.31-.23,1,1,0,0,1-.66-.26.87.87,0,0,1-.19-.44,2.6,2.6,0,0,1,.12-1.38c.09-.23.21-.45.3-.69a1.21,1.21,0,0,0,0-.65c-.1.3-.25.59-.37.88a5.9,5.9,0,0,0-.48,2.41.58.58,0,0,0,.06.32.64.64,0,0,0,.53.22l2.47.23.4,0,1.11.09c.35,0,.69,0,1,0a4.66,4.66,0,0,0,1.89-.34.21.21,0,0,0,.12-.08.25.25,0,0,0,0-.17A1.64,1.64,0,0,0,39.78,100.84Z" fill="#fff"/><path d="M25.3,65.76,19.91,85.6l6.78,1.07L30.58,71s2.48,6.37,2.73,9.18a41.51,41.51,0,0,1-.2,6.76h6.68A48,48,0,0,0,39,77.09c-1-4.2-1.74-10.74-3.32-13S25.3,65.76,25.3,65.76Z" fill="#122a30"/><path d="M37.61,52.47l-.08,0-.82.38-.1,0-2.52,1.2h0c.07.68.1,1.44.13,2.23l.16,2.83,0,.14,0,.11,2.31,5.45-5.07.73-7.52,1.08.21-2.46-.29-3.81-.25-3.05-3,.25c0-.06,0-.12,0-.18v-.15a7,7,0,0,1,0-.79,13.12,13.12,0,0,1,1.37-4.48,6,6,0,0,1,1-1.3l.25-.18a3,3,0,0,1,1.08-.5,27.78,27.78,0,0,1,5.66-.86h.27l.64,0a12.18,12.18,0,0,1,1.61.06s1.15-.21,2.49-.49h0l1.09-.23h0Z" fill="#d55ba0"/><path d="M30.91,49.35s-6.33,2-7.41,4a10.1,10.1,0,0,0-1.24,3.56s-.7.25-1.48.44a7,7,0,0,1,0-.79,13.12,13.12,0,0,1,1.37-4.48,6,6,0,0,1,1-1.3l.25-.18a3,3,0,0,1,1.08-.5,27.78,27.78,0,0,1,5.66-.86C30.66,49.29,30.91,49.35,30.91,49.35Z" fill="#c6589c"/><path d="M41.62,50.64l0,0,0,0h0c-.23,0-2.1.91-3.92,1.76l-.56-1.8-.65-2.11,0-.06a13.55,13.55,0,0,0,2.88-.8c.3-.36,4-6.33,4.31-6.61h0a4.37,4.37,0,0,1,1.57.6l.06,0A50.65,50.65,0,0,1,41.62,50.64Z" fill="#ffbe9d"/><path d="M45.67,41.13l-.45.6a50.65,50.65,0,0,1-3.6,8.91l0,0,0,0h0c-.23,0-2.1.91-3.92,1.76l-.56-1.8-.65-2.11c.31.36,1.88,2.08,2.2,2a30.12,30.12,0,0,0,3-1.2c.87-.42,3.18-7.06,3.18-7.06l-.56-.19a1.66,1.66,0,0,0,.63-.2,3,3,0,0,0,.28-.24,1.5,1.5,0,0,0,.27-.3,1.29,1.29,0,0,1,.26-.27Z" fill="#fcac88"/><path d="M31.19,46.07a1.16,1.16,0,0,1-1.1,1H29.9l.06.57L30.11,49l-3.22.37-.44-2.68-.77-4.76,4.68-1.72S31.26,45.36,31.19,46.07Z" fill="#ffbe9d"/><path d="M18.89,57.63a.41.41,0,0,1,0-.08A.27.27,0,0,0,18.89,57.63Z" fill="#d32a3b"/><path d="M36.75,64.91s-1.71-3.22-2.94-5-1.26-4.44.27-5.78c.16,1.55.1,3.53.31,5.2Z" fill="#d179af"/><path d="M30.91,49.35l-.79.16a18.23,18.23,0,0,1-4.05.24L26,48.61a14.42,14.42,0,0,0,2.71,0,14,14,0,0,0,2.13-.37Z" fill="#d179af"/><path d="M37.53,52.51l-.82.38-.26.12-1.23-4.27h0l1.09-.23Z" fill="#c6589c"/><path d="M23.76,56.46l.06.77-3,.24c0-.3,0-.62,0-.94Z" fill="#c6589c"/><polygon points="20.82 57.65 20.04 57.71 19.96 56.77 23.88 56.45 23.96 57.39 20.82 57.65" fill="#d179af"/><polygon points="35.22 48.49 36.5 48.14 37.97 52.78 36.92 53.31 35.22 48.49" fill="#d179af"/><path d="M31.68,65.64l-7.52,1.08.21-2.46-.29-3.81-.25-3.05s2.35,6.75,3.45,7.15C28.12,64.85,30.57,65.39,31.68,65.64Z" fill="#c6589c"/><path d="M30.42,48.81c-.15.36-.15.56-.3.7a18.23,18.23,0,0,1-4.05.24L26,48.61a14.42,14.42,0,0,0,2.71,0Z" fill="#c6589c"/><path d="M31.13,40.69a5.14,5.14,0,0,1-.54,2.39c-.11.32,0,1-.32,1s-.37-.7-.53-.71A.78.78,0,0,0,29,44c-.08.34.3,1.36.69,1.31A1.46,1.46,0,0,0,30,46.5s.91,2.25.29,2.54l-.36.15a3.61,3.61,0,0,1-2.34.38l-.24-.73,0,.65A2.37,2.37,0,0,1,25,48.4a1.65,1.65,0,0,1-.11-.88l-.18,0a1.36,1.36,0,0,1-.9-.66.6.6,0,0,1,0-.62,1.27,1.27,0,0,1,.51-.28,1.76,1.76,0,0,0,.92-1.27,2.5,2.5,0,0,0,0-.67,6.55,6.55,0,0,1-.28-.78,2.76,2.76,0,0,1,.93-2.69,1.94,1.94,0,0,1,.29-.21,1.4,1.4,0,0,1-.68-.27,1.34,1.34,0,0,1-.2-.21,1.11,1.11,0,0,1,0-1.33,1,1,0,0,1,1.29-.19,1.16,1.16,0,0,1,.36,1.26,2.17,2.17,0,0,1-.19.41l.45-.21A4.75,4.75,0,0,1,29,39.34a2.35,2.35,0,0,1,1.67.42l-.05-.08C31.13,39.28,31.67,40.06,31.13,40.69Z" fill="#263238"/><path d="M30,49.19a3.61,3.61,0,0,1-2.34.38l-.24-.73,0,.65A2.37,2.37,0,0,1,25,48.4a1.65,1.65,0,0,1-.11-.88l-.18,0a1.36,1.36,0,0,1-.9-.66.6.6,0,0,1,0-.62,1.27,1.27,0,0,1,.51-.28,1.76,1.76,0,0,0,.92-1.27,2.5,2.5,0,0,0,0-.67,6.55,6.55,0,0,1-.28-.78,2.76,2.76,0,0,1,.93-2.69,1.94,1.94,0,0,1,.29-.21,1.4,1.4,0,0,1-.68-.27,5.32,5.32,0,0,1,.94.3,2.3,2.3,0,0,0,.64,3.55c.89.51.42,1.2.46,2.13s1-.2,1.34.43,1,.88,1.11,2A3.73,3.73,0,0,1,30,49.19Z" fill="#0d1d21"/><path d="M26.87,39.73a1.45,1.45,0,0,1-1,.51s0,.19.09.21a1.63,1.63,0,0,0,.88-.34C27.13,39.86,26.87,39.73,26.87,39.73Z" fill="#d55ba0"/><path d="M43.4,40.83a1.08,1.08,0,0,0,1.44,1.24,1.74,1.74,0,0,0,1.1-1.92c-.18-.89-1.12-.6-1.52-.68s.53-1.78.2-2.13-.9,1.26-1.14,2.77A6.1,6.1,0,0,0,43.4,40.83Z" fill="#ffbe9d"/></svg>