<svg id="Layer_1" data-name="Layer 1" xmlns="http://www.w3.org/2000/svg" xmlns:xlink="http://www.w3.org/1999/xlink" width="38.75mm" height="38.75mm" viewBox="0 0 109.85 109.85"><defs><linearGradient id="linear-gradient" x1="60.98" y1="84.44" x2="51.12" y2="35.93" gradientUnits="userSpaceOnUse"><stop offset="0" stop-color="#fff"/><stop offset="1" stop-color="#646e85"/></linearGradient></defs><g opacity="0.1"><path d="M26.91,70.54H12.72c-3.18,0-1.44-5,3.72-5.23s5.92-11.5.08-15S13.25,31.11,19,29.28s5.84-6,12.75-9.43,14.3,7.79,23.57,5.26S62.1,14.81,70.5,14.63s22.26,8.06,25,24.9S92.31,59,97.84,62.42s15.35,8.12-10.65,8.12Z" fill="url(#linear-gradient)"/></g><circle cx="61.55" cy="44.97" r="18.97" fill="#48a69e"/><rect x="50.03" y="36.75" width="23.02" height="16.45" rx="2.12" fill="#ffefe4"/><rect x="50.03" y="36.75" width="23.02" height="16.45" rx="2.12" fill="#fff"/><path d="M70.93,36.75H52.16A2.12,2.12,0,0,0,50,38.87v1.47l0,0,9.5,8.69,1,.9a1.53,1.53,0,0,0,2,0l1-.9L73,40.36l0,0V38.87A2.12,2.12,0,0,0,70.93,36.75Z" fill="#cad0db"/><path d="M62.59,48.12,73,38.56a2.11,2.11,0,0,0-2.1-1.81H52.16a2.11,2.11,0,0,0-2.1,1.81L60.5,48.12A1.55,1.55,0,0,0,62.59,48.12Z" fill="#fff"/><path d="M52.16,37.88H70.93a2.12,2.12,0,0,1,1.78,1l.32-.29a2.11,2.11,0,0,0-2.1-1.81H52.16a2.11,2.11,0,0,0-2.1,1.81l.32.29A2.11,2.11,0,0,1,52.16,37.88Z" fill="#acb3c1"/><path d="M44.39,52.05l-.06,0h0c-.21,0-3.51-.36-5.32-.42L39.25,50l.33-2V48a27.12,27.12,0,0,0,4.09.76c.39-.16,5.78-3.48,6.17-3.56h0a4,4,0,0,1,1,1.13l0,.06A46,46,0,0,1,44.39,52.05Z" fill="#845c4f"/><path d="M51.54,46l-.61.3a46,46,0,0,1-6.54,5.71l-.06,0h0c-.21,0-3.51-.36-5.32-.42L39.25,50l.33-2A12.71,12.71,0,0,0,42,50.77a26.12,26.12,0,0,0,2.93.26c.88,0,5.44-4.39,5.44-4.39L50,46.26a1.53,1.53,0,0,0,.59.09l.33-.07a1.73,1.73,0,0,0,.34-.14,1.3,1.3,0,0,1,.32-.11Z" fill="#755143"/><path d="M49.82,44.87a1,1,0,0,0,.66,1.59,1.57,1.57,0,0,0,1.67-1.1c.22-.78-.66-.94-.95-1.17s1.16-1.22,1-1.63-1.25.65-2.06,1.76C50.05,44.51,49.93,44.69,49.82,44.87Z" fill="#845c4f"/><path d="M34.4,43.94c-.53,0-.55.42-1.12.34s-1.24.12-1.79,0-.18-1.83.39-2.16S34.4,43.94,34.4,43.94Z" fill="#1e272b"/><path d="M33.63,43.11a1.11,1.11,0,0,0,.36.82,1.09,1.09,0,0,0,.85.26c.4,0,.82-.32,1.2-.16s.48.53.81.55a.8.8,0,0,0,.51-.2l.45-.3.41-.28a2.5,2.5,0,0,0,1-.95,1.18,1.18,0,0,0-.34-1.41,1.43,1.43,0,0,0-.27-.15,1.34,1.34,0,0,1-.64-.47c-.28-.49.23-1.19-.1-1.64s-.74-.32-1-.63a1.42,1.42,0,0,1-.1-.94,2.53,2.53,0,0,0-.34-1.4s-2.72.43-2.87,2.77A24.41,24.41,0,0,0,33.63,43.11Z" fill="#1e272b"/><path d="M35,77.15l1.74,8.58.69,3.35h0a5.59,5.59,0,0,0,1.1.48.76.76,0,0,0,.41,0h0a1.44,1.44,0,0,0,.53-.35.51.51,0,0,0,.13-.38s0,0,0,0c0-.21,0-1.41,0-2.54,0-.15,0-.42,0-.78,0-1.2,0-3.38,0-5.19v-3l-1.69-.07Z" fill="#755143"/><path d="M38.15,85.5a19.51,19.51,0,0,0,.77,4.09h0a1.44,1.44,0,0,0,.53-.35.51.51,0,0,0,.13-.38s0,0,0,0c0-.21,0-1.41,0-2.54,0-.15,0-.42,0-.78,0-1.2,0-3.38,0-5.19A8.4,8.4,0,0,0,38.15,85.5Z" fill="#845c4f"/><path d="M36.72,85.73l.69,3.35h0a5.59,5.59,0,0,0,1.1.48.76.76,0,0,0,.41,0h0a1.44,1.44,0,0,0,.53-.35.51.51,0,0,0,.13-.38s0,0,0,0c0-.21,0-1.41,0-2.54,0-.15,0-.42,0-.78a7.89,7.89,0,0,1-1.32.19h-.08C37.64,85.73,37.11,85.73,36.72,85.73Z" fill="#e8e8e8"/><path d="M38.17,85.69a19.55,19.55,0,0,0,.75,3.9h0a1.44,1.44,0,0,0,.53-.35.51.51,0,0,0,.13-.38s0,0,0,0c0-.21,0-1.41,0-2.54,0-.15,0-.42,0-.78a7.89,7.89,0,0,1-1.32.19Z" fill="#fff"/><path d="M37.54,92.66a1.07,1.07,0,0,0,.07.19h0a.34.34,0,0,0,.08.09.63.63,0,0,0,.54.08l2.34-.41.37-.07.38-.06.67-.13c.33-.06.65-.13,1-.21a4.35,4.35,0,0,0,1.65-.79.19.19,0,0,0,.09-.11.21.21,0,0,0-.05-.15.9.9,0,0,0-.14-.2,1.77,1.77,0,0,0-.54-.4l-.18-.08a4.86,4.86,0,0,0-1.07-.23l-.63-.09H42L41.5,90l-.11,0-.37,0-.3,0-.12,0a1.87,1.87,0,0,1-.4-.13.47.47,0,0,1-.17-.21L40,89.4h0c-.13-.31-.24-.68-.37-.56v0a2.61,2.61,0,0,1-1.13.21c-.52,0-1,0-1.05,0h0c0,.1,0,.2,0,.3a6.85,6.85,0,0,1-.1.91A6,6,0,0,0,37.54,92.66Z" fill="#d55ba0"/><path d="M40,89.43c-.13.37-.27.73-.43,1.09,0,.07.07.12.1.06.16-.37.31-.74.44-1.12a.06.06,0,0,0-.11,0Z" fill="#2b303c"/><path d="M40.67,89.7a4.61,4.61,0,0,0-.3,1.37.06.06,0,1,0,.12,0,4.53,4.53,0,0,1,.29-1.35c0-.06-.09-.09-.11,0Z" fill="#2b303c"/><path d="M41.42,89.85a3.62,3.62,0,0,0-.06,1c0,.07.12.07.11,0a3.5,3.5,0,0,1,.06-1c0-.07-.1-.1-.11,0Z" fill="#2b303c"/><path d="M42,90a2.83,2.83,0,0,0,0,.87c0,.07.12,0,.11,0a2.64,2.64,0,0,1,0-.84c0-.08-.1-.07-.11,0Z" fill="#2b303c"/><path d="M37.48,92.58a.62.62,0,0,0,.13.27h0a.63.63,0,0,0,.54.06l2.32-.43.37-.07.25,0,.79-.16c.32-.06.64-.13,1-.22a4.6,4.6,0,0,0,1.65-.8.23.23,0,0,0,.08-.11s0-.1,0-.15l0,0a1.44,1.44,0,0,0-.59-.5l0,.1a1.11,1.11,0,0,1,0,.17.78.78,0,0,1-.2.43,1.62,1.62,0,0,1-.81.55,5.19,5.19,0,0,1-1.25.1,7.41,7.41,0,0,0-1.41.23c-.56.14-1.12.31-1.68.41a1,1,0,0,1-.66-.06.87.87,0,0,1-.3-.36,2.5,2.5,0,0,1-.24-1.29c0-.24.08-.47.09-.71a1.16,1.16,0,0,0-.11-.58l0,0a6.88,6.88,0,0,1-.1.9A5.73,5.73,0,0,0,37.48,92.58Z" fill="#c3cde0"/><path d="M28.16,75.74l-1.59,8.61L26,87.72h0a6.64,6.64,0,0,0,.84.85.84.84,0,0,0,.38.19h0a1.52,1.52,0,0,0,.62-.12.57.57,0,0,0,.26-.31s0,0,0,0c.05-.2.5-1.32.93-2.37.06-.13.16-.38.29-.72.46-1.11,1.28-3.13,2-4.81l1.12-2.77-1.54-.69Z" fill="#755143"/><path d="M28,84.68a19.48,19.48,0,0,0-.81,4.08h0a1.52,1.52,0,0,0,.62-.12.57.57,0,0,0,.26-.31s0,0,0,0c.05-.2.5-1.32.93-2.37.06-.13.16-.38.29-.72.46-1.11,1.28-3.13,2-4.81A8.48,8.48,0,0,0,28,84.68Z" fill="#845c4f"/><path d="M26.57,84.35,26,87.72h0a6.64,6.64,0,0,0,.84.85.84.84,0,0,0,.38.19h0a1.52,1.52,0,0,0,.62-.12.57.57,0,0,0,.26-.31s0,0,0,0c.05-.2.5-1.32.93-2.37.06-.13.16-.38.29-.72A7.68,7.68,0,0,1,28,84.89l-.07,0C27.42,84.69,26.93,84.5,26.57,84.35Z" fill="#e8e8e8"/><path d="M27.93,84.86a19.31,19.31,0,0,0-.76,3.9h0a1.52,1.52,0,0,0,.62-.12.57.57,0,0,0,.26-.31s0,0,0,0c.05-.2.5-1.32.93-2.37.06-.13.16-.38.29-.72A7.68,7.68,0,0,1,28,84.89Z" fill="#fff"/><path d="M24.74,91.09a.67.67,0,0,0,0,.2h0a.27.27,0,0,0,0,.12.63.63,0,0,0,.47.27l2.33.49.37.08.37.08.67.14c.33.06.65.12,1,.16a4.51,4.51,0,0,0,1.83-.11.29.29,0,0,0,.12-.07.3.3,0,0,0,0-.16l-.06-.23a1.83,1.83,0,0,0-.36-.58l-.13-.14a5.62,5.62,0,0,0-.91-.62l-.55-.31-.1-.06-.42-.24-.1,0a3.37,3.37,0,0,0-.32-.19,2.26,2.26,0,0,1-.26-.16l-.1-.06a1.75,1.75,0,0,1-.33-.28.5.5,0,0,1-.07-.25.76.76,0,0,1,0-.15h0c0-.33,0-.72-.13-.65h0a2.55,2.55,0,0,1-1.12-.23c-.5-.17-1-.37-1-.38h0a1.66,1.66,0,0,1-.1.29,7.81,7.81,0,0,1-.43.8A5.86,5.86,0,0,0,24.74,91.09Z" fill="#d55ba0"/><path d="M28.18,89c-.26.3-.52.58-.8.86-.05.05,0,.14.07.09.28-.29.56-.58.82-.88.05-.06-.05-.12-.09-.07Z" fill="#2b303c"/><path d="M28.75,89.51A4.63,4.63,0,0,0,28,90.68c0,.06.07.1.1,0a5,5,0,0,1,.78-1.15c.05,0-.05-.11-.09-.06Z" fill="#2b303c"/><path d="M29.39,89.93a3.39,3.39,0,0,0-.45.94c0,.07.08.11.1,0a4.09,4.09,0,0,1,.44-.92.05.05,0,0,0-.09-.06Z" fill="#2b303c"/><path d="M29.87,90.26a2.73,2.73,0,0,0-.29.83c0,.07.1.08.11,0a2.93,2.93,0,0,1,.28-.8c0-.06-.07-.1-.1,0Z" fill="#2b303c"/><path d="M24.71,91a.59.59,0,0,0,0,.3h0a.59.59,0,0,0,.47.26l2.32.47.37.08.24,0,.8.15c.32.06.64.11,1,.15a4.52,4.52,0,0,0,1.83-.12.29.29,0,0,0,.12-.07.29.29,0,0,0,0-.16.11.11,0,0,1,0,0,1.55,1.55,0,0,0-.37-.69.37.37,0,0,1,0,.11.37.37,0,0,1-.05.17.81.81,0,0,1-.34.32,1.61,1.61,0,0,1-1,.2A5.12,5.12,0,0,1,29,91.8a7.63,7.63,0,0,0-1.4-.31c-.57-.08-1.15-.13-1.71-.25a1,1,0,0,1-.59-.31.84.84,0,0,1-.13-.44,2.36,2.36,0,0,1,.25-1.28c.11-.22.25-.41.35-.63a1.14,1.14,0,0,0,.11-.57v0a8.78,8.78,0,0,1-.44.79A5.87,5.87,0,0,0,24.71,91Z" fill="#c3cde0"/><polygon points="39.58 50.01 39.33 52.07 38.28 51.74 38.63 50.01 39.58 50.01" fill="#20242b"/><path d="M41.84,79A6.14,6.14,0,0,0,39,79c-1.09.22-2.8-1.14-4.47-1.21a10.45,10.45,0,0,0-2.85.64,3.64,3.64,0,0,1-2.54,0c-1.81-.83-3.72.57-3.76.61a33.36,33.36,0,0,0,.44-7.23c-.09-5.08,2.11-12.13,3.75-14.34,1.46-1.95,1.39-3.08.55-5.29L30,51.92l-.28-.69a5.27,5.27,0,0,1-.4-2.28,4.62,4.62,0,0,1,2-3.54c1.29-.85,3.33-.06,5,.7S40,47.66,40,47.66L39.59,50h-1c.38,1.56-.53,3.81-1.47,3.88-.11,0-.24.61-.33,1.28,0,.39-.1.8-.13,1.13-.07.9,1,4.27,1.88,7.49.26.93.49,1.85.68,2.69C40.09,70.25,41.84,79,41.84,79Z" fill="#2b303c"/><path d="M33.05,46.12a7.39,7.39,0,0,0-2.74.24,4.58,4.58,0,0,1,1-1,2.35,2.35,0,0,1,.45-.22,2.62,2.62,0,0,1,.4-.11,1.27,1.27,0,0,1,.28,0A3.76,3.76,0,0,1,33.05,46.12Z" fill="#20242b"/><path d="M32.22,45.61c.15.5,1.43.67,2.94,1h0c1.5.3,1.93-.13.66-.72a1.67,1.67,0,0,1-1-1,6.23,6.23,0,0,1-.08-1.43l-.85-.13-.26,0L32.18,43A15.3,15.3,0,0,0,32.22,45.61Z" fill="#845c4f"/><path d="M32.22,45.61c.15.5,1.43.67,2.94,1h0a4.18,4.18,0,0,0-1-.54c-1.16-.47-.85-1.25,0-1.47a5.72,5.72,0,0,0-.54-1.29l0,0L32.18,43A15.3,15.3,0,0,0,32.22,45.61Z" fill="#755143"/><path d="M32.31,43a2.32,2.32,0,0,0,2.49,1.87,6.23,6.23,0,0,1-.08-1.43l-.85-.13A3.13,3.13,0,0,1,32.31,43Z" fill="#63443b"/><path d="M31.62,37.46l.24,4.36a2.4,2.4,0,0,0,1.06,1.88,2.45,2.45,0,0,0,1.49.41,2.42,2.42,0,0,0,2.28-2.55l-.08-1.64-.09-1.65-.06-1.08Z" fill="#845c4f"/><path d="M28.33,45a1.13,1.13,0,0,0,1.21.06,3.19,3.19,0,0,1,.6-.38c.37-.13.76.1,1.12.27s1.24.54,1.47.22-.55-1.12-.47-1.63a3.85,3.85,0,0,1,.31-.86.76.76,0,0,0,.1-.3c.07-.61-.68-1.16-.43-1.72a.79.79,0,0,1,.19-.26c.2-.18.47-.32.55-.58s-.11-.63-.1-1c0-.53.57-.88,1.1-1a3.62,3.62,0,0,0,1.51-.47A1.25,1.25,0,0,0,35.83,36l0,.19a.69.69,0,0,0-.42-.73,1.36,1.36,0,0,0-.89,0c-.29.08-.57.2-.87.26-.54.12-1.11,0-1.66.08a1.3,1.3,0,0,0-1.23.93,3.45,3.45,0,0,1-.07.72c-.24.62-1.36.44-1.6,1.06s.47,1.22.13,1.7-.88.28-1.06.66a.73.73,0,0,0,.12.69,2,2,0,0,1,.37.63,1.28,1.28,0,0,1-.23.9,2.8,2.8,0,0,0-.45.83A1.11,1.11,0,0,0,28.33,45Z" fill="#1a2e35"/><path d="M37.81,44.08l.41-.28a2.5,2.5,0,0,0,1-.95,1.18,1.18,0,0,0-.34-1.41,1.43,1.43,0,0,0-.27-.15c.36.94.32,1.64-.29,2.15A1.47,1.47,0,0,0,37.81,44.08Z" fill="#1a2e35"/><path d="M32.3,42.05a1.85,1.85,0,0,1,.27.67.76.76,0,0,0,.1-.3c.07-.61-.68-1.16-.43-1.72a.79.79,0,0,1,.19-.26,3.71,3.71,0,0,0-.78-.34C31.33,40.5,31.73,41.17,32.3,42.05Z" fill="#1e272b"/><path d="M33.14,40c-.44-.51-1.54-.79-1.67.19s1.25,1.25,1.25,1.25Z" fill="#845c4f"/><path d="M35,37.7a5,5,0,0,0,1.66,2.22l-.09-1.65A8,8,0,0,0,35,37.7Z" fill="#755143"/><path d="M34.79,37.5A4.19,4.19,0,0,0,37.6,39a7.62,7.62,0,0,0-.47-1.82,3,3,0,0,0-1.2-1.41,1.89,1.89,0,0,0-1.8-.07S33.56,35.9,34.79,37.5Z" fill="#1a2e35"/><path d="M32.58,38v0a1.12,1.12,0,0,1,.17-.2.9.9,0,0,1,.19-.15,1.87,1.87,0,0,1,.39-.22l.21-.06.12,0h.11a1.06,1.06,0,0,1,.25,0h.27l-.11-.08a.5.5,0,0,0-.12-.08.78.78,0,0,0-.27-.09.93.93,0,0,0-.29,0l-.15,0-.07,0-.08,0a1,1,0,0,0-.47.36.94.94,0,0,0-.14.26.68.68,0,0,0,0,.14A.16.16,0,0,0,32.58,38Z" fill="#d55ba0"/><path d="M25.33,79s2-1.44,3.76-.61a3.67,3.67,0,0,0,2.55,0,35.31,35.31,0,0,1-2.35-8.14c-1-6.42,1.62-13.25,2.07-14.64.4-1.22-.28-2.13-1.36-3.7.9,2.34,1,3.47-.48,5.48-1.64,2.21-3.84,9.26-3.75,14.34A33.36,33.36,0,0,1,25.33,79Z" fill="#20242b"/><path d="M39.58,50l-.61.76s-1.54-3.57-2.42-4.41A14.52,14.52,0,0,1,39,49C39.24,49.4,39.44,49.75,39.58,50Z" fill="#20242b"/><path d="M38.58,63.79c-1.87-1.28-4.85-3.43-5.53-4.5-1-1.6-1.1-4.31-2.13-6a13.18,13.18,0,0,0-.85-1.2L30,51.92l-.28-.69a5.27,5.27,0,0,1-.4-2.28,3.43,3.43,0,0,1,3.22.73c1.23,1.49,1.72-1.31,1.72-1.31a6.83,6.83,0,0,1,2.68,4.83l-.39.43a9.94,9.94,0,0,0,.28,1.54c0,.39-.1.8-.13,1.13C36.63,57.2,37.71,60.57,38.58,63.79Z" fill="#20242b"/><path d="M42.86,64.05l-.06,0a18.19,18.19,0,0,1-1.51-1.38h0v0l-.51-.52-.22-.23.1-.12.89-1.12,0,0h.07l1.08.14.37,0a1.48,1.48,0,0,0,.47-.05,2.27,2.27,0,0,0,.56-.2.2.2,0,0,1,.26,0,.16.16,0,0,1,0,.15,1.58,1.58,0,0,1-1,.54c-.22,0-.24.13-.15.23a2.56,2.56,0,0,0,.66.47A5.46,5.46,0,0,1,45,62.8a.12.12,0,0,1,0,.12c-.06.08-.22.08-.43,0a3.75,3.75,0,0,0-1.2-.51,0,0,0,0,0,0,0c-.09.15,1.39,1,1.39,1s.28.1.27.25,0,0,0,0c-.16.33-1.66-.66-1.8-.76a.08.08,0,0,0-.08,0,.09.09,0,0,0,0,.17c.11.07,1.49.79,1.33,1.13h0c-.14.24-1.25-.81-1.62-.8s.93.72.8,1C43.54,64.45,43.49,64.51,42.86,64.05Z" fill="#845c4f"/><path d="M32.86,57.31l0-.05s0,0,0,0h0c0-.23-.55-2.14-1.08-4L33.52,53l2.1-.3.06,0A12.35,12.35,0,0,0,36,55.51c.29.34,5.41,4.72,5.62,5.09v0A4.17,4.17,0,0,1,40.82,62l0,0A47.94,47.94,0,0,1,32.86,57.31Z" fill="#845c4f"/><path d="M41.28,62.6l-.51-.52a47.94,47.94,0,0,1-7.91-4.77l0-.05s0,0,0,0h0c0-.23-.55-2.14-1.08-4L33.52,53l2.1-.3c-.38.24-2.26,1.46-2.24,1.78a27,27,0,0,0,.68,3.06c.27.9,6.45,4.21,6.45,4.21v-.46a1.33,1.33,0,0,0,.14.47l.17.3a1.89,1.89,0,0,0,.25.3,1,1,0,0,1,.22.29Z" fill="#755143"/><path d="M36.25,52.81l-4.93,1.37s-1.28-4-.46-5.67a2.44,2.44,0,0,1,4.45.31A8.84,8.84,0,0,1,36.25,52.81Z" fill="#20242b"/></svg>