<svg id="Layer_1" data-name="Layer 1" xmlns="http://www.w3.org/2000/svg" xmlns:xlink="http://www.w3.org/1999/xlink" width="38.75mm" height="38.75mm" viewBox="0 0 109.85 109.85"><defs><linearGradient id="linear-gradient" x1="61.21" y1="86.37" x2="51.34" y2="37.85" gradientUnits="userSpaceOnUse"><stop offset="0" stop-color="#fff"/><stop offset="1" stop-color="#646e85"/></linearGradient></defs><path d="M58.13,62.6a3.85,3.85,0,0,1-3.94-4.14,3.92,3.92,0,0,1,3.94-4.14,4,4,0,0,1,4.08,4.14A4,4,0,0,1,58.13,62.6Zm-.06-43.87c1.75,0,3.69.38,3.75,2.2a20.12,20.12,0,0,1-.19,2.52c-.46,5-1.75,16.63-2.27,24.33H56.84c-.58-7.7-1.75-19-2.27-24.27-.06-.84-.19-2-.19-2.65C54.38,19.18,56.26,18.73,58.07,18.73Z" fill="#d55b9f"/><g opacity="0.1"><path d="M27.14,72.47H13c-3.19,0-1.44-5,3.72-5.23s5.92-11.5.07-15S13.47,33,19.24,31.21,25.09,25.26,32,21.78,46.3,29.57,55.57,27s6.76-10.3,15.16-10.48,22.25,8.05,25,24.9-3.19,19.42,2.35,22.89,15.35,8.11-10.65,8.11Z" fill="url(#linear-gradient)"/></g><path d="M41.21,50.63l-.06,0h0c-.21,0-3.51-.36-5.32-.41l.28-1.68.33-2v-.06a28.92,28.92,0,0,0,4.09.77c.39-.17,5.78-3.49,6.17-3.57h0a4.11,4.11,0,0,1,1,1.13l0,.07A46,46,0,0,1,41.21,50.63Z" fill="#845c4f"/><path d="M48.36,44.62l-.61.31a46,46,0,0,1-6.54,5.7l-.06,0h0c-.21,0-3.51-.36-5.32-.41l.28-1.68.33-2a12.48,12.48,0,0,0,2.4,2.76,26.12,26.12,0,0,0,2.93.26c.88,0,5.44-4.38,5.44-4.38l-.37-.39a1.69,1.69,0,0,0,.59.1l.33-.08a1.71,1.71,0,0,0,.34-.13,1,1,0,0,1,.32-.12Z" fill="#755143"/><path d="M46.64,43.45A1,1,0,0,0,47.3,45,1.56,1.56,0,0,0,49,44c.22-.79-.66-1-.95-1.17s1.16-1.22,1-1.64-1.25.65-2.06,1.77Q46.8,43.18,46.64,43.45Z" fill="#845c4f"/><path d="M31.22,42.53c-.53,0-.55.41-1.12.33s-1.24.12-1.79,0-.18-1.83.39-2.15S31.22,42.53,31.22,42.53Z" fill="#1e272b"/><path d="M30.45,41.7a1.09,1.09,0,0,0,.36.81,1.13,1.13,0,0,0,.85.27c.4-.05.82-.33,1.2-.17s.48.53.81.56a.93.93,0,0,0,.51-.2l.45-.31.41-.28a2.44,2.44,0,0,0,1-1,1.17,1.17,0,0,0-.34-1.4,2.4,2.4,0,0,0-.27-.16,1.33,1.33,0,0,1-.64-.46c-.28-.5.23-1.19-.1-1.65-.23-.31-.74-.31-1-.63a1.33,1.33,0,0,1-.11-.93,2.48,2.48,0,0,0-.34-1.41s-2.72.43-2.87,2.78A24.48,24.48,0,0,0,30.45,41.7Z" fill="#1e272b"/><path d="M31.8,75.73l1.74,8.58.69,3.36h0a5.8,5.8,0,0,0,1.1.47.67.67,0,0,0,.41,0h0a1.43,1.43,0,0,0,.53-.34.53.53,0,0,0,.13-.39s0,0,0,0c0-.21,0-1.41,0-2.54,0-.15,0-.42,0-.78,0-1.2,0-3.38,0-5.19v-3l-1.69-.06Z" fill="#755143"/><path d="M35,84.08a19,19,0,0,0,.76,4.09h0a1.43,1.43,0,0,0,.53-.34.53.53,0,0,0,.13-.39s0,0,0,0c0-.21,0-1.41,0-2.54,0-.15,0-.42,0-.78,0-1.2,0-3.38,0-5.19A8.4,8.4,0,0,0,35,84.08Z" fill="#845c4f"/><path d="M33.54,84.31l.69,3.36h0a5.8,5.8,0,0,0,1.1.47.67.67,0,0,0,.41,0h0a1.43,1.43,0,0,0,.53-.34.53.53,0,0,0,.13-.39s0,0,0,0c0-.21,0-1.41,0-2.54,0-.15,0-.42,0-.78a7,7,0,0,1-1.32.19H35C34.46,84.31,33.93,84.31,33.54,84.31Z" fill="#e8e8e8"/><path d="M35,84.28a19.29,19.29,0,0,0,.75,3.89h0a1.43,1.43,0,0,0,.53-.34.53.53,0,0,0,.13-.39s0,0,0,0c0-.21,0-1.41,0-2.54,0-.15,0-.42,0-.78a7,7,0,0,1-1.32.19Z" fill="#fff"/><path d="M34.36,91.25a1.34,1.34,0,0,0,.07.18h0a.39.39,0,0,0,.08.1.63.63,0,0,0,.54.07l2.34-.41.37-.06.38-.07.67-.12c.33-.07.65-.13,1-.22a4.35,4.35,0,0,0,1.65-.79.19.19,0,0,0,.09-.11.28.28,0,0,0,0-.15,1.39,1.39,0,0,0-.15-.19,1.8,1.8,0,0,0-.54-.41L40.61,89a4.88,4.88,0,0,0-1.07-.24l-.63-.08-.11,0-.48-.07h-.11l-.37,0-.3,0-.12,0a1.47,1.47,0,0,1-.4-.14.47.47,0,0,1-.17-.21L36.79,88h0c-.13-.3-.24-.68-.37-.55h0a2.61,2.61,0,0,1-1.13.21c-.52,0-1,0-1.05,0h0c0,.1,0,.2,0,.3a6.88,6.88,0,0,1-.1.9A6,6,0,0,0,34.36,91.25Z" fill="#d55ba0"/><path d="M36.77,88c-.13.37-.27.74-.43,1.1,0,.06.08.12.1,0,.16-.37.31-.74.44-1.12a.06.06,0,0,0-.11,0Z" fill="#2b303c"/><path d="M37.49,88.28a4.67,4.67,0,0,0-.3,1.38c0,.07.11.07.12,0a4.4,4.4,0,0,1,.29-1.35.06.06,0,0,0-.11,0Z" fill="#2b303c"/><path d="M38.24,88.43a3.62,3.62,0,0,0-.06,1c0,.08.12.07.11,0a3.42,3.42,0,0,1,.06-1c0-.08-.1-.1-.11,0Z" fill="#2b303c"/><path d="M38.81,88.56a2.83,2.83,0,0,0,0,.87c0,.08.12,0,.11,0a2.64,2.64,0,0,1,0-.84c0-.07-.1-.07-.11,0Z" fill="#2b303c"/><path d="M34.3,91.17a.64.64,0,0,0,.13.26h0a.63.63,0,0,0,.54.07l2.32-.44.37-.06.25-.05.79-.15c.32-.07.65-.14,1-.23a4.42,4.42,0,0,0,1.65-.79.28.28,0,0,0,.08-.11.16.16,0,0,0,0-.15l0,0a1.46,1.46,0,0,0-.59-.51l0,.1a1.1,1.1,0,0,1,0,.18.75.75,0,0,1-.2.42,1.56,1.56,0,0,1-.81.55,5.19,5.19,0,0,1-1.25.1,7.42,7.42,0,0,0-1.41.24c-.56.14-1.11.3-1.68.4a.93.93,0,0,1-.66-.06.81.81,0,0,1-.3-.36,2.5,2.5,0,0,1-.24-1.29c0-.23.08-.47.09-.71a1.12,1.12,0,0,0-.11-.57s0,0,0,0c0,.3-.07.6-.11.9A5.75,5.75,0,0,0,34.3,91.17Z" fill="#c3cde0"/><path d="M25,74.33l-1.59,8.61-.62,3.36h0a5.89,5.89,0,0,0,.84.86.8.8,0,0,0,.38.18h0a1.37,1.37,0,0,0,.62-.12.51.51,0,0,0,.26-.31s0,0,0,0c.05-.2.5-1.32.93-2.36l.29-.72c.46-1.11,1.28-3.14,2-4.81l1.12-2.78-1.54-.68Z" fill="#755143"/><path d="M24.81,83.26A19,19,0,0,0,24,87.34h0a1.37,1.37,0,0,0,.62-.12.51.51,0,0,0,.26-.31s0,0,0,0c.05-.2.5-1.32.93-2.36l.29-.72c.46-1.11,1.28-3.14,2-4.81A8.39,8.39,0,0,0,24.81,83.26Z" fill="#845c4f"/><path d="M23.39,82.94l-.62,3.36h0a5.89,5.89,0,0,0,.84.86.8.8,0,0,0,.38.18h0a1.37,1.37,0,0,0,.62-.12.51.51,0,0,0,.26-.31s0,0,0,0c.05-.2.5-1.32.93-2.36l.29-.72a7.47,7.47,0,0,1-1.28-.32l-.08,0C24.24,83.28,23.75,83.08,23.39,82.94Z" fill="#e8e8e8"/><path d="M24.75,83.44a19.31,19.31,0,0,0-.76,3.9h0a1.37,1.37,0,0,0,.62-.12.51.51,0,0,0,.26-.31s0,0,0,0c.05-.2.5-1.32.93-2.36l.29-.72a7.47,7.47,0,0,1-1.28-.32Z" fill="#fff"/><path d="M21.56,89.67a.67.67,0,0,0,0,.2h0a.27.27,0,0,0,0,.12.63.63,0,0,0,.48.27l2.32.5.37.07.37.08.67.14c.33.06.65.12,1,.16a4.19,4.19,0,0,0,1.83-.11.21.21,0,0,0,.12-.07.27.27,0,0,0,0-.16l-.06-.23a1.83,1.83,0,0,0-.36-.58,1.59,1.59,0,0,0-.13-.13,5,5,0,0,0-.91-.62L26.74,89l-.1,0-.42-.25-.1,0-.32-.19-.26-.15-.1-.07a1.69,1.69,0,0,1-.32-.27A.45.45,0,0,1,25,87.7a.61.61,0,0,1,0-.14h0c0-.33,0-.72-.13-.65h0a2.66,2.66,0,0,1-1.12-.22c-.5-.17-1-.38-1-.39h0a1.42,1.42,0,0,1-.1.29,6.16,6.16,0,0,1-.43.8A5.86,5.86,0,0,0,21.56,89.67Z" fill="#d55ba0"/><path d="M25,87.57c-.26.3-.52.59-.8.86-.05,0,0,.14.07.09a11.38,11.38,0,0,0,.82-.88c.05,0,0-.12-.09-.07Z" fill="#2b303c"/><path d="M25.57,88.09a4.63,4.63,0,0,0-.79,1.17.05.05,0,1,0,.1,0,4.7,4.7,0,0,1,.78-1.14c.05-.06-.05-.12-.09-.07Z" fill="#2b303c"/><path d="M26.21,88.51a3.32,3.32,0,0,0-.45.95.06.06,0,0,0,.11,0,3.37,3.37,0,0,1,.43-.92c0-.06-.05-.13-.09-.07Z" fill="#2b303c"/><path d="M26.69,88.85a2.68,2.68,0,0,0-.29.82.06.06,0,1,0,.11,0,2.76,2.76,0,0,1,.28-.79c0-.07-.07-.11-.1,0Z" fill="#2b303c"/><path d="M21.53,89.58a.57.57,0,0,0,0,.29h0v0a.65.65,0,0,0,.47.26l2.32.46.37.08.25,0,.79.15c.32.06.65.12,1,.15a4.35,4.35,0,0,0,1.83-.12.21.21,0,0,0,.12-.07.19.19,0,0,0,0-.15.13.13,0,0,1,0-.06,1.64,1.64,0,0,0-.36-.69v.11a.47.47,0,0,1,0,.17.87.87,0,0,1-.34.32,1.66,1.66,0,0,1-1,.21,5.15,5.15,0,0,1-1.19-.38,8.55,8.55,0,0,0-1.4-.31c-.57-.08-1.15-.13-1.71-.25a1,1,0,0,1-.59-.31.81.81,0,0,1-.13-.44,2.36,2.36,0,0,1,.25-1.28c.11-.21.25-.41.35-.63a1.12,1.12,0,0,0,.11-.57v0a8.94,8.94,0,0,1-.44.8A5.82,5.82,0,0,0,21.53,89.58Z" fill="#c3cde0"/><polygon points="36.4 48.59 36.15 50.65 35.1 50.33 35.45 48.59 36.4 48.59" fill="#20242b"/><path d="M38.66,77.58a6.14,6.14,0,0,0-2.89,0c-1.09.22-2.8-1.14-4.47-1.21a10,10,0,0,0-2.84.65,3.7,3.7,0,0,1-2.54,0c-1.82-.82-3.73.58-3.77.61a33.36,33.36,0,0,0,.44-7.23C22.5,65.24,24.7,58.19,26.34,56c1.46-2,1.39-3.08.55-5.29,0-.07-.05-.13-.07-.2l-.28-.69a5.24,5.24,0,0,1-.4-2.28,4.58,4.58,0,0,1,2-3.53c1.29-.86,3.33-.07,5,.7s3.65,1.55,3.65,1.55l-.36,2.33h-1c.38,1.56-.53,3.81-1.46,3.88-.12,0-.25.61-.34,1.28,0,.39-.1.8-.13,1.13-.07.9,1,4.27,1.88,7.5.26.93.49,1.84.68,2.69C36.91,68.83,38.66,77.58,38.66,77.58Z" fill="#2b303c"/><path d="M29.87,44.71a7.23,7.23,0,0,0-2.74.23,4.52,4.52,0,0,1,1-.95,1.91,1.91,0,0,1,.45-.23,2.6,2.6,0,0,1,.4-.1l.28,0A3.75,3.75,0,0,1,29.87,44.71Z" fill="#20242b"/><path d="M29,44.2c.15.49,1.43.66,2.95,1h0c1.5.31,1.93-.13.66-.72a1.67,1.67,0,0,1-1-1A6.14,6.14,0,0,1,31.54,42l-.85-.14-.26,0L29,41.61A15.42,15.42,0,0,0,29,44.2Z" fill="#845c4f"/><path d="M29,44.2c.15.49,1.43.66,2.95,1h0a4.18,4.18,0,0,0-1-.54c-1.16-.47-.85-1.25,0-1.46a5.69,5.69,0,0,0-.54-1.3l0,0L29,41.61A15.42,15.42,0,0,0,29,44.2Z" fill="#755143"/><path d="M29.13,41.56a2.3,2.3,0,0,0,2.49,1.87A6.14,6.14,0,0,1,31.54,42l-.85-.14A3.13,3.13,0,0,1,29.13,41.56Z" fill="#63443b"/><path d="M28.44,36l.24,4.37a2.42,2.42,0,1,0,4.83-.27l-.08-1.64-.09-1.65-.06-1.07Z" fill="#845c4f"/><path d="M25.15,43.62a1.11,1.11,0,0,0,1.21.06,3.19,3.19,0,0,1,.6-.38,1.61,1.61,0,0,1,1.12.27c.36.16,1.24.55,1.47.23s-.55-1.13-.47-1.64a3.23,3.23,0,0,1,.32-.85,1.11,1.11,0,0,0,.09-.31c.07-.6-.68-1.16-.43-1.72a.67.67,0,0,1,.19-.25c.2-.19.47-.33.55-.59s-.11-.63-.1-.95c0-.54.57-.89,1.1-1A3.62,3.62,0,0,0,32.31,36a1.23,1.23,0,0,0,.34-1.44l0,.18a.67.67,0,0,0-.42-.72,1.36,1.36,0,0,0-.89,0c-.29.07-.57.2-.87.26-.54.11-1.11,0-1.66.07a1.3,1.3,0,0,0-1.23.93,3.39,3.39,0,0,1-.06.72c-.25.62-1.37.45-1.61,1.06s.47,1.22.13,1.7-.88.28-1.06.66a.73.73,0,0,0,.12.69,2.13,2.13,0,0,1,.37.63,1.28,1.28,0,0,1-.23.9,2.85,2.85,0,0,0-.45.84A1.1,1.1,0,0,0,25.15,43.62Z" fill="#1a2e35"/><path d="M34.63,42.66l.41-.28a2.44,2.44,0,0,0,1-1,1.17,1.17,0,0,0-.34-1.4,2.4,2.4,0,0,0-.27-.16c.36,1,.32,1.64-.29,2.15A1.59,1.59,0,0,0,34.63,42.66Z" fill="#1a2e35"/><path d="M29.12,40.63a2,2,0,0,1,.28.68,1.11,1.11,0,0,0,.09-.31c.07-.6-.68-1.16-.43-1.72a.67.67,0,0,1,.19-.25,3.18,3.18,0,0,0-.78-.34C28.15,39.08,28.56,39.76,29.12,40.63Z" fill="#1e272b"/><path d="M30,38.58c-.44-.5-1.54-.79-1.67.19S29.54,40,29.54,40Z" fill="#845c4f"/><path d="M31.77,36.28a4.94,4.94,0,0,0,1.66,2.22l-.09-1.65A8,8,0,0,0,31.77,36.28Z" fill="#755143"/><path d="M31.61,36.09a4.23,4.23,0,0,0,2.81,1.52A7.5,7.5,0,0,0,34,35.79a2.93,2.93,0,0,0-1.2-1.42,1.86,1.86,0,0,0-1.8-.06S30.38,34.48,31.61,36.09Z" fill="#1a2e35"/><path d="M29.4,36.62v0a1.12,1.12,0,0,1,.17-.2l.19-.15a1.47,1.47,0,0,1,.39-.21l.21-.07.12,0h.11l.25,0h.27a.48.48,0,0,0-.11-.09.29.29,0,0,0-.12-.07,1.08,1.08,0,0,0-.27-.1,1.37,1.37,0,0,0-.29,0l-.15,0-.07,0-.08,0a1,1,0,0,0-.47.36,1.3,1.3,0,0,0-.14.26.77.77,0,0,0,0,.15A.17.17,0,0,0,29.4,36.62Z" fill="#d55ba0"/><path d="M22.15,77.55s2-1.43,3.77-.61a3.7,3.7,0,0,0,2.54,0,35.42,35.42,0,0,1-2.35-8.15c-1-6.41,1.62-13.25,2.07-14.64.4-1.21-.28-2.12-1.36-3.7.91,2.34,1,3.48-.48,5.49-1.64,2.2-3.84,9.25-3.75,14.33A33.36,33.36,0,0,1,22.15,77.55Z" fill="#20242b"/><path d="M36.4,48.59l-.61.76s-1.54-3.57-2.42-4.41a14.89,14.89,0,0,1,2.42,2.59Z" fill="#20242b"/><path d="M35.4,62.38c-1.87-1.29-4.85-3.44-5.53-4.51-1-1.6-1.1-4.3-2.13-6a13.06,13.06,0,0,0-.85-1.19c0-.07-.05-.13-.07-.2l-.28-.69a5.24,5.24,0,0,1-.4-2.28,3.48,3.48,0,0,1,3.22.73C30.59,49.75,31.08,47,31.08,47a6.83,6.83,0,0,1,2.68,4.83l-.39.44a9.92,9.92,0,0,0,.28,1.53c0,.39-.1.8-.13,1.13C33.45,55.78,34.53,59.15,35.4,62.38Z" fill="#20242b"/><path d="M39.68,62.63l-.06-.05a18.19,18.19,0,0,1-1.51-1.38h0v0l-.51-.52-.22-.23.1-.12.89-1.12h.09l1.09.13.36,0a1.47,1.47,0,0,0,.47,0,2.26,2.26,0,0,0,.56-.21.2.2,0,0,1,.26,0,.12.12,0,0,1,0,.14,1.54,1.54,0,0,1-1,.54c-.22,0-.24.13-.15.24a2.79,2.79,0,0,0,.66.46,5.82,5.82,0,0,1,1.17.85.12.12,0,0,1,0,.12c-.06.09-.22.09-.43,0a3.75,3.75,0,0,0-1.2-.51l0,0c-.09.15,1.39,1,1.39,1s.28.1.27.25a.08.08,0,0,1,0,0c-.16.33-1.66-.66-1.8-.76a.08.08,0,0,0-.08,0,.1.1,0,0,0,0,.18c.11.07,1.49.79,1.33,1.12h0C41.08,63,40,62,39.6,62s.93.72.8,1C40.36,63,40.31,63.1,39.68,62.63Z" fill="#845c4f"/><path d="M29.68,55.89l0,0s0,0,0,0h0c0-.23-.55-2.13-1.08-4l1.79-.26,2.1-.3h.07a12,12,0,0,0,.32,2.85c.29.34,5.41,4.72,5.62,5.1v0a4.23,4.23,0,0,1-.82,1.4.12.12,0,0,1,0,0A47.94,47.94,0,0,1,29.68,55.89Z" fill="#845c4f"/><path d="M38.1,61.18l-.51-.52a47.94,47.94,0,0,1-7.91-4.77l0,0s0,0,0,0h0c0-.23-.55-2.13-1.08-4l1.79-.26,2.1-.3c-.38.24-2.26,1.47-2.24,1.79a27.45,27.45,0,0,0,.68,3.06c.27.89,6.45,4.2,6.45,4.2v-.45a1.26,1.26,0,0,0,.14.46c.05.1.11.2.17.3a1.53,1.53,0,0,0,.25.3,1.46,1.46,0,0,1,.22.29Z" fill="#755143"/><path d="M33.07,51.39l-4.93,1.37s-1.28-4-.46-5.66a2.44,2.44,0,0,1,4.45.3A8.84,8.84,0,0,1,33.07,51.39Z" fill="#20242b"/></svg>