<svg id="Layer_1" data-name="Layer 1" xmlns="http://www.w3.org/2000/svg" xmlns:xlink="http://www.w3.org/1999/xlink" width="38.75mm" height="38.75mm" viewBox="0 0 109.85 109.85"><defs><linearGradient id="linear-gradient" x1="59.51" y1="89.99" x2="49.65" y2="41.47" gradientUnits="userSpaceOnUse"><stop offset="0" stop-color="#fff"/><stop offset="1" stop-color="#646e85"/></linearGradient></defs><g opacity="0.1"><path d="M25.44,76.09H11.26c-3.19,0-1.45-5,3.71-5.23s5.92-11.5.08-15-3.27-19.23,2.5-21.06S23.4,28.88,30.3,25.4s14.3,7.79,23.57,5.26S60.64,20.36,69,20.17s22.26,8.06,25,24.91S90.84,64.5,96.38,68s15.34,8.12-10.66,8.12Z" fill="url(#linear-gradient)"/></g><path d="M39.51,54.25l-.06,0h0c-.21-.05-3.5-.36-5.31-.42l.28-1.68.33-2v-.06a27,27,0,0,0,4.08.76c.39-.16,5.78-3.48,6.18-3.56h0a3.94,3.94,0,0,1,1,1.13l0,.06A44.89,44.89,0,0,1,39.51,54.25Z" fill="#845c4f"/><path d="M46.66,48.24l-.61.3a44.89,44.89,0,0,1-6.54,5.71l-.06,0h0c-.21-.05-3.5-.36-5.31-.42l.28-1.68.33-2A12.45,12.45,0,0,0,37.11,53a25.89,25.89,0,0,0,2.93.26c.87,0,5.44-4.39,5.44-4.39l-.37-.38a1.53,1.53,0,0,0,.59.09,2.06,2.06,0,0,0,.32-.07,1.05,1.05,0,0,0,.34-.14,1.48,1.48,0,0,1,.32-.11Z" fill="#755143"/><path d="M45,47.07a1,1,0,0,0,.66,1.59,1.56,1.56,0,0,0,1.66-1.1c.22-.78-.65-.94-.94-1.17s1.16-1.22,1-1.63-1.24.65-2,1.76C45.18,46.71,45.06,46.89,45,47.07Z" fill="#845c4f"/><path d="M29.53,46.14c-.53,0-.56.42-1.12.34s-1.25.12-1.79,0-.18-1.83.39-2.16S29.53,46.14,29.53,46.14Z" fill="#1e272b"/><path d="M28.76,45.31a1.11,1.11,0,0,0,.36.82,1.07,1.07,0,0,0,.84.26c.41,0,.82-.32,1.2-.16s.48.53.81.55a.81.81,0,0,0,.52-.2l.45-.3c.13-.1.27-.19.41-.28a2.58,2.58,0,0,0,1-1A1.2,1.2,0,0,0,34,43.64c-.09-.06-.18-.1-.27-.15a1.42,1.42,0,0,1-.65-.47c-.27-.49.23-1.19-.1-1.64s-.73-.32-1-.63a1.42,1.42,0,0,1-.1-.94,2.54,2.54,0,0,0-.35-1.4s-2.71.43-2.86,2.77A24.41,24.41,0,0,0,28.76,45.31Z" fill="#1e272b"/><path d="M30.1,79.35l1.75,8.58.68,3.35h0a6.26,6.26,0,0,0,1.1.48.79.79,0,0,0,.42,0h0a1.4,1.4,0,0,0,.53-.35.5.5,0,0,0,.12-.38v0c0-.21,0-1.41,0-2.54V87.7c0-1.2,0-3.38,0-5.19v-3L33,79.46Z" fill="#755143"/><path d="M33.28,87.7a19.51,19.51,0,0,0,.77,4.09h0a1.4,1.4,0,0,0,.53-.35.5.5,0,0,0,.12-.38v0c0-.21,0-1.41,0-2.54V87.7c0-1.2,0-3.38,0-5.19A8.4,8.4,0,0,0,33.28,87.7Z" fill="#845c4f"/><path d="M31.85,87.93l.68,3.35h0a6.26,6.26,0,0,0,1.1.48.79.79,0,0,0,.42,0h0a1.4,1.4,0,0,0,.53-.35.5.5,0,0,0,.12-.38v0c0-.21,0-1.41,0-2.54V87.7a7.76,7.76,0,0,1-1.31.19H33.3C32.77,87.93,32.24,87.93,31.85,87.93Z" fill="#e8e8e8"/><path d="M33.3,87.89a19.55,19.55,0,0,0,.75,3.9h0a1.4,1.4,0,0,0,.53-.35.5.5,0,0,0,.12-.38v0c0-.21,0-1.41,0-2.54V87.7a7.76,7.76,0,0,1-1.31.19Z" fill="#fff"/><path d="M32.67,94.86a1.07,1.07,0,0,0,.07.19h0a.31.31,0,0,0,.07.09.66.66,0,0,0,.55.08l2.34-.41.37-.07.37-.06.68-.13c.32-.06.65-.13,1-.21a4.42,4.42,0,0,0,1.65-.79.18.18,0,0,0,.08-.11.17.17,0,0,0,0-.15,1.43,1.43,0,0,0-.14-.2,1.69,1.69,0,0,0-.55-.4l-.17-.08a5,5,0,0,0-1.08-.23l-.62-.09h-.11l-.48-.07h-.11l-.38-.06-.3,0-.11,0a2,2,0,0,1-.41-.13.46.46,0,0,1-.16-.21l-.06-.13h0c-.13-.31-.24-.68-.37-.56l0,0a2.56,2.56,0,0,1-1.12.21c-.53,0-1,0-1.06,0h0a1.51,1.51,0,0,1,0,.3,9,9,0,0,1-.1.91A5.78,5.78,0,0,0,32.67,94.86Z" fill="#d55ba0"/><path d="M35.07,91.63a10.23,10.23,0,0,1-.42,1.09c0,.07.07.12.1.06.16-.37.3-.74.43-1.12,0-.07-.08-.1-.11,0Z" fill="#2b303c"/><path d="M35.79,91.9a4.92,4.92,0,0,0-.29,1.38c0,.07.11.07.11,0a4.86,4.86,0,0,1,.29-1.35c0-.06-.08-.09-.11,0Z" fill="#2b303c"/><path d="M36.54,92.05a3.62,3.62,0,0,0-.06,1c0,.07.12.07.12,0a3.5,3.5,0,0,1,0-1,.06.06,0,1,0-.11,0Z" fill="#2b303c"/><path d="M37.12,92.18a2.55,2.55,0,0,0,0,.87c0,.07.12,0,.11,0a2.64,2.64,0,0,1,0-.84c0-.08-.11-.07-.11,0Z" fill="#2b303c"/><path d="M32.61,94.78a.62.62,0,0,0,.13.27h0a.63.63,0,0,0,.54.06l2.32-.43.37-.07.25,0,.79-.16c.32-.06.64-.13,1-.22a4.48,4.48,0,0,0,1.64-.8.19.19,0,0,0,.09-.11.21.21,0,0,0,0-.15l0,0a1.58,1.58,0,0,0-.59-.5.3.3,0,0,1,0,.1.35.35,0,0,1,0,.17.77.77,0,0,1-.19.43,1.64,1.64,0,0,1-.82.55,5.19,5.19,0,0,1-1.25.1,7.68,7.68,0,0,0-1.41.23c-.55.14-1.11.31-1.68.41a.94.94,0,0,1-.66-.06.93.93,0,0,1-.29-.36,2.51,2.51,0,0,1-.25-1.29c0-.24.08-.47.1-.71a1.16,1.16,0,0,0-.11-.58l0,0c0,.3-.07.6-.11.9A5.73,5.73,0,0,0,32.61,94.78Z" fill="#c3cde0"/><path d="M23.28,78l-1.58,8.6-.62,3.37h0a5.44,5.44,0,0,0,.84.85.81.81,0,0,0,.37.19h0a1.61,1.61,0,0,0,.63-.12.52.52,0,0,0,.25-.31.08.08,0,0,0,0,0c.06-.2.51-1.32.94-2.37.05-.13.16-.38.29-.72l1.95-4.81c.62-1.53,1.13-2.77,1.13-2.77L26,79.13Z" fill="#755143"/><path d="M23.11,86.88A20.28,20.28,0,0,0,22.29,91h0a1.61,1.61,0,0,0,.63-.12.52.52,0,0,0,.25-.31.08.08,0,0,0,0,0c.06-.2.51-1.32.94-2.37.05-.13.16-.38.29-.72l1.95-4.81A8.48,8.48,0,0,0,23.11,86.88Z" fill="#845c4f"/><path d="M21.7,86.55l-.62,3.37h0a5.44,5.44,0,0,0,.84.85.81.81,0,0,0,.37.19h0a1.61,1.61,0,0,0,.63-.12.52.52,0,0,0,.25-.31.08.08,0,0,0,0,0c.06-.2.51-1.32.94-2.37.05-.13.16-.38.29-.72a7.68,7.68,0,0,1-1.29-.31l-.08,0C22.55,86.89,22.06,86.7,21.7,86.55Z" fill="#e8e8e8"/><path d="M23.05,87.06a20,20,0,0,0-.76,3.9h0a1.61,1.61,0,0,0,.63-.12.52.52,0,0,0,.25-.31.08.08,0,0,0,0,0c.06-.2.51-1.32.94-2.37.05-.13.16-.38.29-.72a7.68,7.68,0,0,1-1.29-.31Z" fill="#fff"/><path d="M19.86,93.29a1.33,1.33,0,0,0,0,.2h0a.56.56,0,0,0,0,.12.63.63,0,0,0,.47.27l2.32.49.38.08.37.08.67.14c.32.06.65.12,1,.16a4.46,4.46,0,0,0,1.82-.11c.05,0,.1,0,.12-.07a.18.18,0,0,0,0-.16.86.86,0,0,0-.06-.23,1.64,1.64,0,0,0-.35-.58l-.14-.14a5.21,5.21,0,0,0-.91-.62l-.54-.31-.1-.06-.42-.24-.1,0-.33-.19-.26-.16-.09-.06a1.75,1.75,0,0,1-.33-.28.49.49,0,0,1-.08-.25v-.15h0c0-.33,0-.72-.14-.65h0a2.69,2.69,0,0,1-1.12-.22c-.5-.18-1-.38-1-.39h0c0,.1-.06.19-.1.29-.12.27-.28.53-.43.8A5.87,5.87,0,0,0,19.86,93.29Z" fill="#d55ba0"/><path d="M23.3,91.19c-.25.3-.52.58-.8.86-.05,0,0,.14.08.09.28-.29.56-.58.82-.88,0-.06,0-.12-.1-.07Z" fill="#2b303c"/><path d="M23.87,91.71a4.6,4.6,0,0,0-.78,1.17c0,.06.07.1.1,0A4.92,4.92,0,0,1,24,91.77c.05,0,0-.11-.09-.06Z" fill="#2b303c"/><path d="M24.51,92.13a3.66,3.66,0,0,0-.44.94c0,.07.08.11.1,0a4.05,4.05,0,0,1,.43-.92.05.05,0,1,0-.09-.06Z" fill="#2b303c"/><path d="M25,92.46a2.71,2.71,0,0,0-.28.83c0,.07.1.08.11,0a2.63,2.63,0,0,1,.28-.8c0-.06-.07-.1-.11,0Z" fill="#2b303c"/><path d="M19.84,93.2a.57.57,0,0,0,0,.29h0a.59.59,0,0,0,.47.26l2.31.47.37.08.25,0,.79.15c.33.06.65.11,1,.15a4.46,4.46,0,0,0,1.82-.12c.05,0,.1,0,.12-.07a.18.18,0,0,0,0-.16.07.07,0,0,0,0,0,1.44,1.44,0,0,0-.36-.69.37.37,0,0,1,0,.11.55.55,0,0,1-.05.17.81.81,0,0,1-.34.32,1.61,1.61,0,0,1-1,.2,5.2,5.2,0,0,1-1.2-.37,7.35,7.35,0,0,0-1.39-.31c-.57-.08-1.15-.13-1.71-.25a.74.74,0,0,1-.73-.75,2.45,2.45,0,0,1,.25-1.28c.11-.22.25-.41.35-.63a1.05,1.05,0,0,0,.12-.57v0a7.59,7.59,0,0,1-.44.79A5.54,5.54,0,0,0,19.84,93.2Z" fill="#c3cde0"/><polygon points="34.71 52.21 34.45 54.27 33.41 53.94 33.76 52.21 34.71 52.21" fill="#20242b"/><path d="M37,81.19a6.14,6.14,0,0,0-2.89,0C33,81.39,31.27,80,29.61,80a10.45,10.45,0,0,0-2.85.64,3.64,3.64,0,0,1-2.54,0c-1.82-.83-3.72.57-3.77.61a31.74,31.74,0,0,0,.44-7.23C20.8,68.86,23,61.81,24.65,59.61c1.46-2,1.39-3.09.55-5.3,0-.06-.05-.13-.08-.19q-.12-.33-.27-.69a5.29,5.29,0,0,1-.41-2.28,4.65,4.65,0,0,1,2-3.54c1.29-.85,3.32-.06,5,.7s3.65,1.55,3.65,1.55l-.36,2.34h-1c.38,1.56-.53,3.81-1.47,3.88-.11,0-.24.61-.33,1.28-.06.39-.1.8-.13,1.13-.07.9,1,4.27,1.88,7.49.25.93.49,1.85.67,2.69C35.22,72.45,37,81.19,37,81.19Z" fill="#2b303c"/><path d="M28.18,48.32a7.39,7.39,0,0,0-2.74.24,4.58,4.58,0,0,1,1-1,2.58,2.58,0,0,1,.44-.22,3,3,0,0,1,.4-.11,1.43,1.43,0,0,1,.29,0A4.07,4.07,0,0,1,28.18,48.32Z" fill="#20242b"/><path d="M27.35,47.81c.14.5,1.43.67,2.94,1h0c1.5.3,1.93-.13.66-.72a1.64,1.64,0,0,1-1-1,5.66,5.66,0,0,1-.08-1.42L29,45.49l-.26,0-1.44-.22A15.5,15.5,0,0,0,27.35,47.81Z" fill="#845c4f"/><path d="M27.35,47.81c.14.5,1.43.67,2.94,1h0a4.5,4.5,0,0,0-1-.54c-1.16-.47-.84-1.25,0-1.47a5.41,5.41,0,0,0-.53-1.29l0,0-1.44-.22A15.5,15.5,0,0,0,27.35,47.81Z" fill="#755143"/><path d="M27.44,45.18a2.31,2.31,0,0,0,2.49,1.87,5.66,5.66,0,0,1-.08-1.42L29,45.49A3.13,3.13,0,0,1,27.44,45.18Z" fill="#63443b"/><path d="M26.75,39.66,27,44a2.43,2.43,0,0,0,4.09,1.63,2.4,2.4,0,0,0,.75-1.89l-.09-1.64-.09-1.65-.06-1.07Z" fill="#845c4f"/><path d="M23.45,47.24a1.13,1.13,0,0,0,1.22.06,2.9,2.9,0,0,1,.6-.38c.37-.13.76.1,1.12.27s1.24.54,1.47.22-.55-1.12-.47-1.63a3.41,3.41,0,0,1,.31-.86.76.76,0,0,0,.1-.3c.07-.61-.68-1.16-.43-1.72a.79.79,0,0,1,.19-.26c.2-.18.47-.32.55-.58s-.11-.63-.11-1c0-.53.58-.88,1.1-1a3.71,3.71,0,0,0,1.52-.47A1.26,1.26,0,0,0,31,38.18l-.05.19a.69.69,0,0,0-.42-.73,1.36,1.36,0,0,0-.89,0c-.3.08-.58.2-.87.27-.55.11-1.11,0-1.66.07a1.32,1.32,0,0,0-1.24.93,2.88,2.88,0,0,1-.06.72c-.25.62-1.36.44-1.61,1.06s.48,1.22.14,1.7-.88.28-1.07.66a.76.76,0,0,0,.13.69,2,2,0,0,1,.37.63,1.24,1.24,0,0,1-.24.9,3,3,0,0,0-.45.83A1.15,1.15,0,0,0,23.45,47.24Z" fill="#1a2e35"/><path d="M32.94,46.28c.13-.1.27-.19.41-.28a2.58,2.58,0,0,0,1-1A1.2,1.2,0,0,0,34,43.64c-.09-.06-.18-.1-.27-.15.36.94.31,1.64-.29,2.15A1.39,1.39,0,0,0,32.94,46.28Z" fill="#1a2e35"/><path d="M27.43,44.25a1.85,1.85,0,0,1,.27.67.76.76,0,0,0,.1-.3c.07-.61-.68-1.16-.43-1.72a.79.79,0,0,1,.19-.26,3.91,3.91,0,0,0-.79-.34C26.46,42.7,26.86,43.37,27.43,44.25Z" fill="#1e272b"/><path d="M28.26,42.2c-.44-.51-1.53-.79-1.66.19s1.25,1.25,1.25,1.25Z" fill="#845c4f"/><path d="M30.08,39.9a5,5,0,0,0,1.65,2.22l-.09-1.65A7.81,7.81,0,0,0,30.08,39.9Z" fill="#755143"/><path d="M29.91,39.7a4.19,4.19,0,0,0,2.82,1.52,7.19,7.19,0,0,0-.48-1.82A2.93,2.93,0,0,0,31.06,38a1.89,1.89,0,0,0-1.8-.07S28.68,38.1,29.91,39.7Z" fill="#1a2e35"/><path d="M27.7,40.23s0,0,0,0a.82.82,0,0,1,.17-.2l.18-.15a2.24,2.24,0,0,1,.4-.22l.21-.06.11,0h.12a1,1,0,0,1,.25,0h.27l-.11-.08-.12-.08a1,1,0,0,0-.27-.09,1.46,1.46,0,0,0-.29,0l-.15,0-.08,0-.07,0a1,1,0,0,0-.47.36.94.94,0,0,0-.14.26l0,.14A.45.45,0,0,0,27.7,40.23Z" fill="#d55ba0"/><path d="M20.45,81.17c.05,0,1.95-1.44,3.77-.61a3.64,3.64,0,0,0,2.54,0,35.89,35.89,0,0,1-2.34-8.14C23.38,66,26,59.21,26.49,57.82c.4-1.22-.29-2.13-1.37-3.7.91,2.34,1,3.47-.47,5.49-1.64,2.2-3.85,9.25-3.76,14.33A31.74,31.74,0,0,1,20.45,81.17Z" fill="#20242b"/><path d="M34.71,52.21,34.1,53s-1.54-3.57-2.42-4.41a14.52,14.52,0,0,1,2.42,2.59C34.37,51.6,34.57,52,34.71,52.21Z" fill="#20242b"/><path d="M33.71,66c-1.88-1.28-4.85-3.43-5.53-4.5-1-1.6-1.1-4.31-2.13-6-.25-.4-.55-.81-.85-1.2,0-.06-.05-.13-.08-.19q-.12-.33-.27-.69a5.29,5.29,0,0,1-.41-2.28c1-.2,2.49-.16,3.22.73,1.23,1.49,1.73-1.31,1.73-1.31a6.87,6.87,0,0,1,2.68,4.83l-.39.43A9.94,9.94,0,0,0,32,57.37c-.06.39-.1.8-.13,1.13C31.76,59.4,32.83,62.77,33.71,66Z" fill="#20242b"/><path d="M38,66.25l-.06,0a18.19,18.19,0,0,1-1.51-1.38h0l0,0-.5-.52-.23-.23.1-.12.9-1.12v0h.08l1.08.14.37,0a1.48,1.48,0,0,0,.47,0,1.86,1.86,0,0,0,.55-.2.21.21,0,0,1,.27,0,.16.16,0,0,1,0,.15,1.52,1.52,0,0,1-1,.54c-.23,0-.24.13-.16.23a2.61,2.61,0,0,0,.67.47,5.73,5.73,0,0,1,1.17.85.21.21,0,0,1,0,.12c-.06.08-.22.08-.43,0a3.7,3.7,0,0,0-1.21-.51.05.05,0,0,0-.05,0c-.08.15,1.4,1,1.4,1s.28.1.26.25a.09.09,0,0,1,0,0c-.16.33-1.67-.66-1.81-.76a.06.06,0,0,0-.07,0,.09.09,0,0,0,0,.17c.11.07,1.49.79,1.33,1.13h0c-.14.24-1.24-.81-1.61-.8s.93.72.8,1C38.66,66.65,38.62,66.71,38,66.25Z" fill="#845c4f"/><path d="M28,59.51l0,0a0,0,0,0,1,0,0h0c0-.23-.55-2.14-1.08-4l1.8-.26,2.09-.3h.07a13.22,13.22,0,0,0,.32,2.85c.3.34,5.42,4.72,5.63,5.09,0,0,0,0,0,0A4.15,4.15,0,0,1,36,64.23l-.05,0A47.53,47.53,0,0,1,28,59.51Z" fill="#845c4f"/><path d="M36.4,64.8l-.5-.52A47.53,47.53,0,0,1,28,59.51l0,0a0,0,0,0,1,0,0h0c0-.23-.55-2.14-1.08-4l1.8-.26,2.09-.3c-.38.24-2.26,1.46-2.24,1.79a27.83,27.83,0,0,0,.69,3.05c.26.9,6.44,4.21,6.44,4.21v-.46a1.63,1.63,0,0,0,.14.47,3.4,3.4,0,0,0,.18.3,1.89,1.89,0,0,0,.25.3,1,1,0,0,1,.22.29Z" fill="#755143"/><path d="M31.38,55l-4.93,1.37s-1.29-4-.46-5.67a2.44,2.44,0,0,1,4.44.31A8.78,8.78,0,0,1,31.38,55Z" fill="#20242b"/><path d="M84.09,19.5a6.21,6.21,0,0,1,2.13,1l16.16,11.34" fill="none" stroke="#646e85" stroke-linecap="round" stroke-linejoin="round" stroke-width="0.99"/><path d="M100.93,43.2c-6.6,3-15.74-.38-16.64-6.62l-6.23-4.37a1.67,1.67,0,0,1-.41-2.33l1.47-2.1a1.67,1.67,0,0,1,2.33-.4l7.62,5.34" fill="none" stroke="#646e85" stroke-linecap="round" stroke-linejoin="round" stroke-width="0.99"/><path d="M83.35,25.69v-9a3.11,3.11,0,0,0-3.1-3.09H40.41a3.1,3.1,0,0,0-3.09,3.09v20.7a3.11,3.11,0,0,0,3.09,3.1H80.25a3.08,3.08,0,0,0,2-.72" fill="none" stroke="#646e85" stroke-miterlimit="10" stroke-width="0.99"/><line x1="83.35" y1="22.7" x2="37.32" y2="22.7" fill="none" stroke="#646e85" stroke-miterlimit="10" stroke-width="0.99"/><circle cx="45.57" cy="31.93" r="3.25" fill="#48a69e"/></svg>