<?xml version="1.0" encoding="UTF-8"?><svg id="a" xmlns="http://www.w3.org/2000/svg" width="1.09cm" height="1cm" viewBox="0 0 30.93 28.44"><path d="M15.28,28.41h-.88c-4.49,.28-4.03-1.17-3.96-4.49,.04-1.27,.78-1.95,2.05-1.98,1.31-.04,2.58,0,3.89-.04,4.63-.14,8.06-3.4,8.1-7.64,.04-4.28-3.36-7.53-8.03-7.68-1.31-.04-2.58,.04-3.89-.04-1.31-.07-2.05-.78-2.12-2.12-.04-.81-.04-1.66,0-2.48,.07-1.17,.74-1.91,1.91-1.91,2.23,0,4.53-.18,6.68,.18,7.43,1.24,12.45,7.82,11.85,15.21-.57,7.25-6.72,12.84-14.18,12.98h-1.41Z" fill="#ffffff"/><path d="M7.15,19.18c0,2.19,.04,4.35,0,6.54-.04,1.98-.67,2.58-2.69,2.65C.25,28.48,.04,28.27,.04,24.1,.04,20.2,0,16.31,.04,12.42c0-2.23,.6-2.76,2.86-2.79h1.77c1.77,.07,2.44,.67,2.44,2.48,.07,2.37,.04,4.74,.04,7.07Z" fill="#ffffff"/><path d="M3.47,.04C6.54,.04,7,.43,7,3.23c0,2.97-.42,3.36-3.54,3.36S0,6.09,0,3.3C-.03,.54,.5,.04,3.47,.04Z" fill="#ffffff"/></svg>
