<?xml version="1.0" encoding="UTF-8"?>
<svg width="256px" height="256px" viewBox="0 0 256 256" version="1.1" xmlns="http://www.w3.org/2000/svg" xmlns:xlink="http://www.w3.org/1999/xlink">
    <!-- Generator: Sketch 51.3 (57544) - http://www.bohemiancoding.com/sketch -->
    <title>slack-logo-white</title>
    <desc>Created with Sketch.</desc>
    <defs></defs>
    <g id="slack-logo-white" stroke="none" stroke-width="1" fill="none" fill-rule="evenodd">
        <g id="iconfinder_slack_3069711" transform="translate(20.000000, 20.000000)" fill="#FFFFFF" fill-rule="nonzero">
            <path d="M78.2377481,94.0134637 L92.7726916,137.301969 L137.864819,122.198191 L123.329875,78.9096862 L78.2377481,94.0134637 Z M204.049515,136.964831 L182.145693,144.247009 L189.717384,166.835248 C192.759582,175.937971 187.824462,185.849825 178.697869,188.951494 C176.669737,189.625769 174.70921,189.89548 172.681079,189.828052 C165.515013,189.625769 158.957388,185.040694 156.52363,177.893371 L148.951938,155.305132 L103.859811,170.40891 L111.431503,192.997148 C114.4737,202.167299 109.53858,212.011725 100.411987,215.113394 C98.3838558,215.78767 96.4233285,216.05738 94.3951969,215.989952 C87.2291317,215.78767 80.6715061,211.202594 78.2377481,204.055271 L70.6660566,181.467032 L48.7622348,188.749211 C46.7341031,189.423487 44.7059715,189.693197 42.7454442,189.625769 C35.5793791,189.423487 29.0217534,184.838411 26.5879954,177.691088 C23.545798,168.588365 28.4809183,158.676511 37.6075107,155.574842 L59.5113325,148.292664 L44.976389,105.004159 L23.0725672,112.286337 C21.0444356,112.960613 19.0839083,113.230323 17.0557767,113.162896 C9.88971152,112.960613 3.33208585,108.375538 0.898327871,101.228215 C-2.1438696,92.1254915 2.79125074,82.2136375 11.9178432,79.1119689 L33.821665,71.8297905 L26.2499735,49.2415519 C23.207776,40.0714012 28.1428964,30.2269749 37.2694888,27.1253063 C46.4636856,24.0910653 56.3339263,29.0132784 59.4437281,38.1160015 L67.0154196,60.7042401 L112.107547,45.6004626 L104.535855,23.012224 C101.493658,13.8420734 106.428778,3.997647 115.55537,0.895978414 C124.749567,-2.1382626 134.619808,2.7839506 137.72961,11.8866736 L145.301301,34.4749123 L167.205123,27.1927338 C176.39932,24.1584928 186.269561,29.080706 189.379362,38.1834291 C192.42156,47.3535797 187.48644,57.1980061 178.359847,60.2996747 L156.456025,67.5818531 L170.990969,110.870358 L192.894791,103.58818 C202.021383,100.553939 211.959228,105.476152 215.06903,114.578875 C218.178832,124.018736 213.243712,133.863162 204.049515,136.964831 Z" id="logo"></path>
        </g>
    </g>
</svg>