<svg version="1.1" xmlns="http://www.w3.org/2000/svg" xmlns:xlink="http://www.w3.org/1999/xlink" x="0" y="0" width="64.2" height="83.9" viewBox="0 0 64.2 83.9" xml:space="preserve" overflow="visible" enable-background="new 0 0 64.2 83.9">
  <style type="text/css">
    .st0,.st1{fill:none;stroke:#626c87;stroke-width:1.5769;stroke-miterlimit:10}.st1{stroke-width:1.853}
  </style>
  <defs/>
  <g>
    <g>
      <path class="st0" d="M56.9,78.2c0,0,1.4-5.2,0.3-11.9"/>
      <path class="st0" d="M55.1,62.7c0-0.1-6.7-6.8-13.6,0.9"/>
      <path class="st0" d="M40.2,66c0,0-0.4,1-0.4,2.4c-0.1,1.3,0.4,6.4-0.7,8.4c-0.4,0.7-1,1.2-1,1.2"/>
      <path class="st0" d="M42.5,82c0,0,0.3-0.4,0.8-0.9c0.5-0.5,2.2-2.7,2.4-7.7"/>
      <path class="st0" d="M45.7,68.9c0,0,0.1-3.2,2.9-3.2s3,2.4,3,2.6c0,0.3,0.1,3.1,0.1,3.1"/>
      <path class="st0" d="M48.6,68.6"/>
      <path class="st0" d="M51.5,74.3c0,0-0.1,4.6-2.8,9.2"/>
      <path class="st0" d="M56.1,80.9c0,0-0.2,1.1-0.5,1.7"/>
      <path class="st0" d="M62.9,72.3c0,0,2.9-9.4-6.1-15.9"/>
      <path class="st0" d="M52.9,54.6c0,0-8.2-2.7-14.4,3.5"/>
      <path class="st0" d="M34.4,71.8c0,0-1.9-5.1,2.1-11.4"/>
    </g>
    <g>
      <g>
        <g>
          <g>
            <circle class="st1" cx="30.4" cy="24.9" r="13.4"/>
          </g>
        </g>
      </g>
      <path class="st1" d="M0.9,10.8v-6c0-2.1,1.8-3.9,3.9-3.9h8.8"/>
      <path class="st1" d="M59.8,10.8v-6c0-2.1-1.8-3.9-3.9-3.9h-8.8"/>
      <path class="st1" d="M59.8,32.8v6c0,2.1-1.8,3.9-3.9,3.9h-8.8"/>
      <path class="st1" d="M0.9,32.8v6c0,2.1,1.8,3.9,3.9,3.9h8.8"/>
      <path class="st1" d="M30.4,50.9h-9.8c-5.4,0-9.8,4.4-9.8,9.8v4.9"/>
    </g>
  </g>
</svg>
