<svg version="1.1" xmlns="http://www.w3.org/2000/svg" xmlns:xlink="http://www.w3.org/1999/xlink" x="0" y="0" width="49" height="72.6" viewBox="0 0 49 72.6" xml:space="preserve" overflow="visible" enable-background="new 0 0 49 72.6">
  <defs/>
  <g>
    <path d="M0.9,17.4v39.9c0,0.9,0.7,1.6,1.6,1.6h8.6V70c0,0.9,0.7,1.6,1.6,1.6h22.1c0.9,0,1.6-0.7,1.6-1.6V58.9h9.9 c0.9,0,1.6-0.7,1.6-1.6V0" fill="none" stroke="#626c87" stroke-width="1.853" stroke-miterlimit="10"/>
    <path d="M36.8,16.4c0,5.1-4.1,9.2-9.2,9.2c-0.9,0-1.8-0.1-2.7-0.4l-0.4,0.4L23,27.1l-1.5,1.5h-3.1v3.1h-6.1v-6.1 l6.5-6.5c-0.3-0.8-0.4-1.7-0.4-2.7c0-5.1,4.1-9.2,9.2-9.2C32.6,7.2,36.8,11.3,36.8,16.4z M27.6,10.3c-0.8,0-1.5,0.7-1.5,1.5 c0,0.8,0.7,1.5,1.5,1.5c1.7,0,3.1,1.4,3.1,3.1c0,0.8,0.7,1.5,1.5,1.5c0.8,0,1.5-0.7,1.5-1.5C33.7,13,31,10.3,27.6,10.3z" fill-rule="evenodd" clip-rule="evenodd" fill="none" stroke="#626c87" stroke-width="1.5" stroke-miterlimit="10"/>
  </g>
</svg>
